<svg xmlns="http://www.w3.org/2000/svg" xmlns:xlink="http://www.w3.org/1999/xlink" viewBox="0 0 11.84 12.98"><defs><style>.cls-1{isolation:isolate;}.cls-10,.cls-11,.cls-12,.cls-13,.cls-14,.cls-2,.cls-3,.cls-4,.cls-5,.cls-6,.cls-7,.cls-8,.cls-9{fill-rule:evenodd;}.cls-2{fill:url(#linear-gradient);}.cls-3{fill:url(#linear-gradient-2);}.cls-4{fill:url(#linear-gradient-3);}.cls-5{fill:url(#linear-gradient-4);}.cls-6{fill:url(#linear-gradient-5);}.cls-7{fill:url(#linear-gradient-6);}.cls-8{fill:url(#linear-gradient-7);}.cls-9{fill:url(#linear-gradient-8);}.cls-10{fill:url(#linear-gradient-9);}.cls-11{fill:url(#linear-gradient-10);}.cls-12{fill:url(#linear-gradient-11);}.cls-13{fill:url(#linear-gradient-12);}.cls-14{fill:url(#linear-gradient-13);}.cls-15{fill:#3e3e3e;}.cls-15,.cls-16{mix-blend-mode:overlay;}.cls-16{opacity:0.56;fill:url(#linear-gradient-14);}.cls-17{fill:#fff;}</style><linearGradient id="linear-gradient" x1="-9.99" y1="-0.43" x2="9.72" y2="12.66" gradientUnits="userSpaceOnUse"><stop offset="0" stop-color="#2d2f34"/><stop offset="0.29" stop-color="#282a2f"/><stop offset="0.65" stop-color="#181b1f"/><stop offset="1" stop-color="#020509"/></linearGradient><linearGradient id="linear-gradient-2" x1="0.03" y1="0.06" x2="16.67" y2="8.64" xlink:href="#linear-gradient"/><linearGradient id="linear-gradient-3" x1="-10.06" y1="8.19" x2="17.74" y2="8.19" xlink:href="#linear-gradient"/><linearGradient id="linear-gradient-4" x1="-7.45" y1="2.31" x2="22.25" y2="29.86" gradientUnits="userSpaceOnUse"><stop offset="0" stop-color="#191c20"/><stop offset="0.2" stop-color="#101317"/><stop offset="0.56" stop-color="#05080c"/><stop offset="1" stop-color="#020509"/></linearGradient><linearGradient id="linear-gradient-5" x1="-4.27" y1="-1.12" x2="25.42" y2="26.44" xlink:href="#linear-gradient-4"/><linearGradient id="linear-gradient-6" x1="-0.29" y1="-5.4" x2="29.4" y2="22.15" xlink:href="#linear-gradient-4"/><linearGradient id="linear-gradient-7" x1="-7.56" y1="2.43" x2="22.13" y2="29.99" xlink:href="#linear-gradient-4"/><linearGradient id="linear-gradient-8" x1="-0.02" y1="-5.69" x2="29.67" y2="21.86" xlink:href="#linear-gradient-4"/><linearGradient id="linear-gradient-9" x1="-2.57" y1="-2.94" x2="27.12" y2="24.61" xlink:href="#linear-gradient-4"/><linearGradient id="linear-gradient-10" x1="-3.24" y1="-2.22" x2="26.45" y2="25.33" xlink:href="#linear-gradient-4"/><linearGradient id="linear-gradient-11" x1="-6.39" y1="1.17" x2="23.3" y2="28.72" xlink:href="#linear-gradient-4"/><linearGradient id="linear-gradient-12" x1="-2.18" y1="-3.37" x2="27.51" y2="24.19" xlink:href="#linear-gradient-4"/><linearGradient id="linear-gradient-13" x1="0.54" y1="-6.3" x2="30.23" y2="21.26" xlink:href="#linear-gradient-4"/><linearGradient id="linear-gradient-14" x1="0.32" y1="0.74" x2="16.03" y2="15.28" gradientUnits="userSpaceOnUse"><stop offset="0" stop-color="#fff"/><stop offset="1" stop-color="#020509"/></linearGradient></defs><title>safari-pinned-tab</title><g class="cls-1"><g id="Camada_1" data-name="Camada 1"><polyline class="cls-2" points="0.05 4.46 0.13 3.91 0.34 3.61 0.71 3.57 1.23 3.78 4.75 5.81 5.26 6.19 5.63 6.66 5.85 7.21 5.92 7.85 5.92 11.91 5.85 12.46 5.63 12.76 5.26 12.8 4.75 12.59 1.23 10.56 0.71 10.18 0.34 9.71 0.13 9.16 0.05 8.52 0.05 4.46"/><polyline class="cls-3" points="0.79 2.76 1.23 2.42 4.75 0.39 5.33 0.14 5.92 0.05 6.51 0.14 7.1 0.39 10.62 2.42 11.06 2.76 11.21 3.1 11.06 3.44 10.62 3.78 7.1 5.81 6.51 6.07 5.92 6.15 5.33 6.07 4.75 5.81 1.23 3.78 0.79 3.44 0.64 3.1 0.79 2.76"/><polyline class="cls-4" points="5.92 7.85 6 7.21 6.22 6.66 6.58 6.19 7.1 5.81 10.62 3.78 11.13 3.57 11.5 3.61 11.72 3.91 11.79 4.46 11.79 8.52 11.72 9.16 11.5 9.71 11.13 10.18 10.62 10.56 7.1 12.59 6.58 12.8 6.22 12.76 6 12.46 5.92 11.91 5.92 7.85"/><polygon class="cls-5" points="0.18 9.35 0.34 9.71 0.13 9.16 0.18 9.35"/><polygon class="cls-6" points="1.23 2.42 0.71 2.81 0.58 2.95 0.34 3.27 0.18 3.63 0.13 3.82 0.05 4.46 0.13 3.91 0.34 3.61 0.71 3.57 1.23 3.78 0.79 3.44 0.64 3.1 0.79 2.76 1.23 2.42"/><polygon class="cls-7" points="5.53 0.09 5.33 0.14 5.92 0.05 5.53 0.09"/><polygon class="cls-8" points="0.58 10.03 0.71 10.18 0.34 9.71 0.58 10.03"/><polygon class="cls-9" points="6.32 0.09 5.92 0.05 6.51 0.14 6.32 0.09"/><polygon class="cls-10" points="11.27 10.03 11.5 9.71 11.13 10.18 11.27 10.03"/><polygon class="cls-11" points="5.92 6.15 5.33 6.07 4.75 5.81 5.26 6.19 5.63 6.66 5.85 7.21 5.92 7.85 6 7.21 6.22 6.66 6.58 6.19 7.1 5.81 6.51 6.07 5.92 6.15"/><polygon class="cls-12" points="6.22 12.76 6 12.46 5.92 11.91 5.85 12.46 5.63 12.76 5.26 12.8 4.75 12.59 5.33 12.85 5.53 12.89 5.92 12.93 6.32 12.89 6.51 12.85 7.1 12.59 6.58 12.8 6.22 12.76"/><polygon class="cls-13" points="11.66 9.35 11.72 9.16 11.5 9.71 11.66 9.35"/><polygon class="cls-14" points="11.72 3.82 11.66 3.63 11.5 3.27 11.27 2.95 11.13 2.81 10.62 2.42 11.06 2.76 11.21 3.1 11.06 3.44 10.62 3.78 11.13 3.57 11.5 3.61 11.72 3.91 11.79 4.46 11.72 3.82"/><path class="cls-15" d="M13.92,5.82h0l-.07-.63h0L13.79,5h0l-.17-.36h0l-.23-.32h0l-.13-.14h0l-.51-.38h0L9.2,1.7h0l-.59-.25h0l-.19,0h0L8,1.36H8l-.4,0h0l-.19,0h0l-.58.25h0l-3.52,2h0l-.51.38h0l-.13.14h0l-.23.32h0L2.21,5h0l-.06.19h0l-.07.63h0V9.88h0l.07.63h0l.06.19h0l.17.36h0l.23.32h0l.13.14h0l.51.38h0L6.8,14h0l.58.25h0l.19.05h0l.4,0H8l.39,0h0l.19-.05h0L9.2,14h0l3.52-2h0l.51-.38h0l.13-.14h0l.23-.32h0l.17-.36h0l.06-.19h0l.07-.63h0Zm-1.25,6-3.52,2-.5.21-.33,0-.2-.27-.07-.53V9.21l.07-.63L8.34,8l.36-.45.5-.38,3.52-2,.5-.2.33,0,.2.26.07.54V9.88l-.07.62-.22.54-.36.46ZM8.39,14.2l-.39,0-.39,0H7.56l.15,0h0l.22-.3H8l0-.17,0,.17H8l.22.3h0l.15,0ZM3.33,11.87l-.5-.37L2.47,11l-.22-.54-.07-.62V5.82l.07-.54L2.45,5l.33,0,.5.2,3.52,2,.5.38L7.66,8l.22.54L8,9.21v4.06l-.07.53-.2.27-.33,0-.5-.21ZM2.31,5l.16-.35.23-.32,0,0-.06.14v0h0l.15.34h0l.14.1-.16-.06h0l-.36,0h0l-.09.12ZM6.85,1.8l.58-.26L8,1.46l.57.08.58.26,3.52,2,.42.33.14.31-.14.31-.42.32-3.52,2-.58.25L8,7.46l-.57-.08-.58-.25-3.52-2-.42-.32-.14-.31.14-.31.42-.33Zm6.46,2.54.22.32.16.35,0,0-.09-.12h0a0,0,0,0,0,0,0l-.36,0h0L13,4.94l.14-.1h0l.15-.34v0h0l-.06-.14ZM8.63,7.51h0L8.25,8h0L8,8.55H8l0,.2,0-.2H8L7.75,8h0l-.37-.47h0L7.22,7.4l.17.07h0L8,7.56H8l.58-.08h0l.17-.07Z" transform="translate(-2.08 -1.36)"/><path class="cls-16" d="M13.92,5.82h0l-.07-.63h0L13.79,5h0l-.17-.36h0l-.23-.32h0l-.13-.14h0l-.51-.38h0L9.2,1.7h0l-.59-.25h0l-.19,0h0L8,1.36H8l-.4,0h0l-.19,0h0l-.58.25h0l-3.52,2h0l-.51.38h0l-.13.14h0l-.23.32h0L2.21,5h0l-.06.19h0l-.07.63h0V9.88h0l.07.63h0l.06.19h0l.17.36h0l.23.32h0l.13.14h0l.51.38h0L6.8,14h0l.58.25h0l.19.05h0l.4,0H8l.39,0h0l.19-.05h0L9.2,14h0l3.52-2h0l.51-.38h0l.13-.14h0l.23-.32h0l.17-.36h0l.06-.19h0l.07-.63h0Zm-1.25,6-3.52,2-.5.21-.33,0-.2-.27-.07-.53V9.21l.07-.63L8.34,8l.36-.45.5-.38,3.52-2,.5-.2.33,0,.2.26.07.54V9.88l-.07.62-.22.54-.36.46ZM8.39,14.2l-.39,0-.39,0H7.56l.15,0h0l.22-.3H8l0-.17,0,.17H8l.22.3h0l.15,0ZM3.33,11.87l-.5-.37L2.47,11l-.22-.54-.07-.62V5.82l.07-.54L2.45,5l.33,0,.5.2,3.52,2,.5.38L7.66,8l.22.54L8,9.21v4.06l-.07.53-.2.27-.33,0-.5-.21ZM2.31,5l.16-.35.23-.32,0,0-.06.14v0h0l.15.34h0l.14.1-.16-.06h0l-.36,0h0l-.09.12ZM6.85,1.8l.58-.26L8,1.46l.57.08.58.26,3.52,2,.42.33.14.31-.14.31-.42.32-3.52,2-.58.25L8,7.46l-.57-.08-.58-.25-3.52-2-.42-.32-.14-.31.14-.31.42-.33Zm6.46,2.54.22.32.16.35,0,0-.09-.12h0a0,0,0,0,0,0,0l-.36,0h0L13,4.94l.14-.1h0l.15-.34v0h0l-.06-.14ZM8.63,7.51h0L8.25,8h0L8,8.55H8l0,.2,0-.2H8L7.75,8h0l-.37-.47h0L7.22,7.4l.17.07h0L8,7.56H8l.58-.08h0l.17-.07Z" transform="translate(-2.08 -1.36)"/><path class="cls-17" d="M5.14,8.93s0,.05-.06,0c-.23-.13-.42,0-.42.25,0,0,0,0,0,0a.12.12,0,0,1-.05-.1c0-.33.23-.47.52-.3a.13.13,0,0,1,.06.09m-.69.15a1.4,1.4,0,0,0,.64,1.1c.35.21.63,0,.63-.36a1.43,1.43,0,0,0-.64-1.1c-.35-.2-.63,0-.63.36" transform="translate(-2.08 -1.36)"/><path d="M4.56,9.14a.12.12,0,0,0,.05.1s0,0,0,0c0-.27.19-.38.42-.25,0,0,.06,0,.06,0a.13.13,0,0,0-.06-.09c-.29-.17-.52,0-.52.3" transform="translate(-2.08 -1.36)"/><path class="cls-17" d="M10.46,9.67s0,0,0,0c0,.26.19.37.43.24,0,0,.05,0,.05,0a.12.12,0,0,1-.05.09.33.33,0,0,1-.54-.3.13.13,0,0,1,.06-.1m.48.52a1.39,1.39,0,0,0,.63-1.1c0-.4-.29-.56-.64-.36a1.39,1.39,0,0,0-.63,1.1c0,.4.29.56.64.36" transform="translate(-2.08 -1.36)"/><path d="M10.94,10.07A.12.12,0,0,0,11,10s0-.05-.05,0c-.24.13-.43,0-.43-.24,0,0,0-.05,0,0a.13.13,0,0,0-.06.1.33.33,0,0,0,.54.3" transform="translate(-2.08 -1.36)"/><path class="cls-17" d="M7.62,4s0,0,0,.06a.27.27,0,0,0,0,.5,0,0,0,0,1,0,.07h-.1c-.3-.18-.3-.46,0-.63a.21.21,0,0,1,.11,0m-.21.69a1.46,1.46,0,0,0,1.29,0,.4.4,0,0,0,0-.75,1.42,1.42,0,0,0-1.3,0c-.35.21-.35.54,0,.75" transform="translate(-2.08 -1.36)"/></g></g></svg>