<?xml version="1.0" encoding="utf-8"?>
<svg version="1.1" id="Layer_1" xmlns="http://www.w3.org/2000/svg" xmlns:xlink="http://www.w3.org/1999/xlink" x="0px" y="0px"
	 viewBox="0 0 4000 4000" style="enable-background:new 0 0 4000 4000;" xml:space="preserve">
<style type="text/css">
	.st0{fill:#F9C710;}
	.st1{fill:#F89F1D;}
	.st2{opacity:0.55;}
	.st3{fill:#FFFFFF;}
	.st4{fill:#6B184E;}
	.st5{opacity:0.42;}
</style>
<g>
	<g>
		<g>
			<path class="st0" d="M3275.28,1501.3l-21.49,2.42c-148.13,17.85-239.06,50.84-288.69,108.49c24.97,21.03,42.67,50.99,47.66,85.94
				c2.12,15.28,1.82,30.41-0.91,44.64c0,0,0,0,0,0.15c-10.44,57.19-56.29,103.49-116.66,112.27
				c-75.96,10.89-146.16-41.61-157.21-117.57c-2.72-19.97-1.36-39.34,3.93-57.5h-0.15c26.93-154.94,120.74-241.03,224.84-290.21
				h0.15c98.5-46.6,206.23-60.07,275.23-67.63c1.51,0,2.88-0.3,4.09-0.45l4.54-0.45c143.89-21.33,243.91-155.54,223.18-299.59
				c-20.73-144.65-155.24-245.27-299.74-224.39c-7.26,1.06-14.53,2.27-21.64,3.93l0.3,1.51c0.45,3.33,0.61,6.51,0.91,9.83
				c0,0,0,0,0,0.15c0,0,0,0.15,0,0.3c1.21,17.7-0.76,34.8-5.9,50.99c-15.43,49.33-57.8,87.91-112.57,95.78
				c-75.8,10.89-146.01-41.61-156.91-117.57c-7.26-50.08,13.16-97.59,49.63-127.1v-0.15c17.1-14.22,35.25-27.08,54.32-38.43
				l0.15-0.15c50.54-30.26,106.82-50.38,165.83-58.86c243.76-35.1,470.41,134.51,505.37,378.27
				C3688.65,1239.54,3519.04,1466.19,3275.28,1501.3z"/>
		</g>
		<g>
			<path class="st1" d="M3340.64,1290.68c92.9-51.9,149.19-157.36,133.15-268.87C3455.33,893.5,3347.3,799.69,3222.17,795
				c0-6.2-0.45-12.41-1.36-18.61l-0.3-1.51c7.11-1.66,14.37-2.87,21.64-3.93c144.5-20.88,279.01,79.74,299.74,224.39
				C3561.55,1131.96,3472.58,1259.66,3340.64,1290.68z"/>
		</g>
		<g class="st2">
			<path class="st3" d="M3012.76,1698.15c9.68,67.63-31.02,130.73-93.51,151.46c25.72-29.35,39.04-69.3,32.99-111.06
				c-1.76-12.35-5.11-24.07-9.81-35c-17.17-39.96-2.54-87.11,36.55-106.16c0.31-0.15,0.63-0.31,0.95-0.46
				c-5.3,4.84-10.29,9.99-14.83,15.28C2990.07,1633.24,3007.77,1663.2,3012.76,1698.15z"/>
		</g>
		<g>
			<path class="st1" d="M3153.63,812.7c0,0-2.27,21.49-5.9,51.45c-15.43,49.33-57.8,87.91-112.57,95.78
				c-75.8,10.89-146.01-41.61-156.91-117.57c-7.26-50.08,13.16-97.59,49.63-127.1v-0.15c17.1-14.22,35.25-27.08,54.32-38.43
				C2882.79,802.11,3054.07,938.13,3153.63,812.7z"/>
		</g>
		<g>
			<path class="st1" d="M3011.85,1742.78c0,0,0,0,0,0.15c-10.44,57.19-56.29,103.49-116.66,112.27
				c-75.96,10.89-146.16-41.61-157.21-117.57c-2.72-19.97-1.36-39.34,3.93-57.5h-0.15c26.93-154.94,120.74-241.03,224.84-290.21
				h0.15C2809.86,1541.24,2840.88,1878.05,3011.85,1742.78z"/>
		</g>
		<g class="st2">
			<path class="st3" d="M3427.8,1450c120.59-95.47,188.68-250.72,165.23-413.67c-34.95-243.76-261.61-413.37-505.37-378.42
				c-53.71,7.87-105.16,25.12-152.06,50.99c61.28-48.57,134.66-80.04,212.59-91.24c243.76-35.1,470.41,134.51,505.37,378.27
				C3680.78,1184.46,3585.31,1362.7,3427.8,1450z"/>
		</g>
		<g>
			<path class="st4" d="M2875.28,1894.5c-86.33,0-162.02-63.58-174.67-151.47c-3.39-23.56-2.08-47,3.88-69.73
				c58.92-336.69,403.56-374.38,533.33-388.58c0.7-0.08,1.42-0.14,2.13-0.18c0.46-0.06,1.6-0.24,2.06-0.28l4.52-0.5
				c121.81-18.06,207.62-133.27,189.88-256.64c-17.23-119.83-125.77-204.55-244.86-193.75c-2.02,34.6-13.94,67.23-34.79,95.08
				c-28.25,37.73-69.54,62.23-116.27,68.94c-46.68,6.71-93.13-5.14-130.85-33.41c-37.71-28.27-62.19-69.55-68.91-116.26
				c-8.63-60.05,14.64-120.98,60.85-159.85c0.69-0.67,1.43-1.33,2.19-1.97c68.26-56.49,150.94-93.05,239.07-105.72
				c127.81-18.38,255.33,14.19,358.96,91.77c103.63,77.57,170.83,190.71,189.22,318.57c38,264.24-146.07,510.16-410.33,548.17
				l-22.55,2.62c-115.5,13.88-193.13,37.26-239.94,72.77c16.77,22.99,27.83,49.92,31.96,78.68
				c13.86,96.37-53.27,186.05-149.65,199.91C2892.04,1893.91,2883.61,1894.5,2875.28,1894.5z M2779.52,1683.52
				c-0.21,2.32-0.64,4.64-1.29,6.95c-3.85,13.52-4.77,27.57-2.73,41.78c7.92,55.08,59.17,93.39,114.26,85.55
				c55.08-7.92,93.45-59.19,85.52-114.27c-3.51-24.45-15.78-46.59-34.54-62.33c-7.74-6.49-12.56-15.82-13.39-25.9
				c-0.82-10.08,2.43-20.07,9.01-27.73c55.55-64.63,152.07-102.07,312.94-121.38l21.67-2.5c221.92-31.94,377.23-239.43,345.16-462.4
				c-15.5-107.84-72.21-203.3-159.66-268.76c-87.45-65.44-195.01-92.92-302.86-77.45c-73.42,10.56-142.33,40.75-199.45,87.36
				c-0.78,0.75-1.61,1.49-2.46,2.18c-27.69,22.39-41.18,56.91-36.08,92.36c3.84,26.72,17.82,50.32,39.38,66.48
				c21.52,16.12,48.08,22.87,74.71,19.08c26.73-3.85,50.33-17.84,66.47-39.4c16.14-21.56,22.92-48.16,19.07-74.87
				c-2.79-19.43,9.55-39.28,28.68-43.71c8.15-1.91,16.35-3.43,24.76-4.62c79.88-11.51,159.57,8.87,224.33,57.37
				c64.78,48.49,106.78,119.2,118.27,199.09c23.64,164.47-90.79,318.07-255.11,342.41l-5.93,0.67c-0.93,0.16-2.84,0.4-5.09,0.56
				C3051.52,1381.29,2824.23,1437.49,2779.52,1683.52z"/>
		</g>
	</g>
	<g>
		<g>
			<path class="st0" d="M723.81,1501.3l21.49,2.42c148.13,17.85,239.07,50.84,288.69,108.49c-24.96,21.03-42.67,50.99-47.66,85.94
				c-2.12,15.28-1.82,30.41,0.91,44.64c0,0,0,0,0,0.15c10.44,57.19,56.29,103.49,116.66,112.27
				c75.96,10.89,146.16-41.61,157.21-117.57c2.72-19.97,1.36-39.34-3.93-57.5h0.15c-26.93-154.94-120.74-241.03-224.84-290.21h-0.15
				c-98.5-46.6-206.23-60.07-275.23-67.63c-1.51,0-2.87-0.3-4.09-0.45l-4.54-0.45c-143.89-21.33-243.91-155.54-223.18-299.59
				c20.73-144.65,155.24-245.27,299.74-224.39c7.26,1.06,14.53,2.27,21.64,3.93l-0.3,1.51c-0.45,3.33-0.61,6.51-0.91,9.83
				c0,0,0,0,0,0.15c0,0,0,0.15,0,0.3c-1.21,17.7,0.76,34.8,5.9,50.99c15.43,49.33,57.8,87.91,112.57,95.78
				c75.8,10.89,146.01-41.61,156.91-117.57c7.26-50.08-13.16-97.59-49.63-127.1v-0.15c-17.1-14.22-35.25-27.08-54.32-38.43
				l-0.15-0.15c-50.54-30.26-106.82-50.38-165.83-58.86c-243.76-35.1-470.41,134.51-505.37,378.27
				C310.44,1239.54,480.05,1466.19,723.81,1501.3z"/>
		</g>
		<g>
			<path class="st1" d="M658.45,1290.68c-92.9-51.9-149.19-157.36-133.15-268.87C543.76,893.5,651.79,799.69,776.92,795
				c0-6.2,0.45-12.41,1.36-18.61l0.3-1.51c-7.11-1.66-14.37-2.87-21.64-3.93c-144.5-20.88-279.01,79.74-299.74,224.39
				C437.54,1131.96,526.51,1259.66,658.45,1290.68z"/>
		</g>
		<g class="st2">
			<path class="st3" d="M986.33,1698.15c-9.68,67.63,31.02,130.73,93.51,151.46c-25.72-29.35-39.04-69.3-32.98-111.06
				c1.76-12.35,5.11-24.07,9.81-35c17.17-39.96,2.54-87.11-36.55-106.16c-0.32-0.15-0.63-0.31-0.95-0.46
				c5.3,4.84,10.29,9.99,14.83,15.28C1009.03,1633.24,991.32,1663.2,986.33,1698.15z"/>
		</g>
		<g>
			<path class="st1" d="M845.46,812.7c0,0,2.27,21.49,5.9,51.45c15.43,49.33,57.8,87.91,112.57,95.78
				c75.8,10.89,146.01-41.61,156.91-117.57c7.26-50.08-13.16-97.59-49.63-127.1v-0.15c-17.1-14.22-35.25-27.08-54.32-38.43
				C1116.3,802.11,945.02,938.13,845.46,812.7z"/>
		</g>
		<g>
			<path class="st1" d="M987.24,1742.78c0,0,0,0,0,0.15c10.44,57.19,56.29,103.49,116.66,112.27
				c75.96,10.89,146.16-41.61,157.21-117.57c2.72-19.97,1.36-39.34-3.93-57.5h0.15c-26.93-154.94-120.74-241.03-224.84-290.21h-0.15
				C1189.23,1541.24,1158.21,1878.05,987.24,1742.78z"/>
		</g>
		<g class="st2">
			<path class="st3" d="M571.29,1450c-120.59-95.47-188.68-250.72-165.23-413.67c34.95-243.76,261.61-413.37,505.37-378.42
				c53.71,7.87,105.16,25.12,152.06,50.99c-61.28-48.57-134.66-80.04-212.59-91.24c-243.76-35.1-470.41,134.51-505.37,378.27
				C318.31,1184.46,413.78,1362.7,571.29,1450z"/>
		</g>
		<g>
			<path class="st4" d="M1123.81,1894.5c-8.34,0-16.76-0.6-25.24-1.83c-96.38-13.86-163.51-103.54-149.66-199.91
				c4.14-28.76,15.19-55.7,31.97-78.68c-46.82-35.51-124.47-58.91-240.1-72.79l-21.34-2.46
				c-265.31-38.15-449.39-284.07-411.38-548.31c18.39-127.85,85.59-240.99,189.22-318.57c103.62-77.57,231.11-110.15,358.97-91.77
				c88.12,12.66,170.8,49.23,239.06,105.72c0.76,0.63,1.51,1.29,2.21,1.99c46.2,38.87,69.46,99.78,60.83,159.83
				c-6.72,46.71-31.19,87.99-68.91,116.26c-37.72,28.27-84.18,40.16-130.86,33.41c-46.72-6.71-88.01-31.2-116.26-68.94
				c-20.98-28.03-32.91-60.9-34.92-95.08c-119.39-10.9-227.53,73.98-244.74,193.75c-17.74,123.37,68.07,238.57,191.29,256.81
				l3.11,0.32l-1.52,37.93l3.75-37.63c131.73,14.35,476.37,52.05,535.29,388.73c5.96,22.71,7.27,46.15,3.89,69.73
				C1285.83,1830.92,1210.13,1894.5,1123.81,1894.5z M786.64,650.85c-87.57,0-172.51,28.15-244.03,81.68
				c-87.45,65.46-144.16,160.92-159.66,268.76c-32.07,222.97,123.25,430.46,346.22,462.54l20.46,2.34
				c161.04,19.33,257.55,56.77,313.1,121.4c6.58,7.66,9.84,17.65,9.01,27.73c-0.82,10.08-5.65,19.41-13.39,25.9
				c-18.76,15.74-31.02,37.87-34.55,62.33c-7.92,55.08,30.45,106.35,85.53,114.27c55.2,7.8,106.33-30.47,114.27-85.53
				c2.03-14.21,1.11-28.29-2.74-41.8c-0.67-2.32-1.09-4.66-1.3-7.03c-44.73-246-272.02-302.15-465.67-323.43
				c-2.27-0.16-4.37-0.42-6.46-0.73l-3.14-0.32c-165.72-24.51-280.16-178.11-256.52-342.58c11.49-79.9,53.49-150.6,118.27-199.09
				c64.76-48.47,144.47-68.92,224.34-57.37c8.41,1.19,16.6,2.72,24.75,4.62c19.17,4.45,31.74,22.85,28.88,42.34
				c-4.05,28.09,2.73,54.69,18.87,76.24c16.14,21.56,39.74,35.55,66.46,39.4c26.73,3.83,53.21-2.96,74.72-19.08
				c21.56-16.16,35.54-39.76,39.38-66.48c5.1-35.45-8.39-69.97-36.08-92.36c-0.86-0.71-1.69-1.43-2.48-2.2
				c-57.12-46.59-126.02-76.78-199.42-87.34C825.82,652.25,806.17,650.85,786.64,650.85z"/>
		</g>
	</g>
	<g>
		<g>
			<path class="st0" d="M2967.67,516.29h-1898.9c-58.49,0-105.91-47.42-105.91-105.91l0,0c0-58.5,47.42-105.92,105.91-105.92h1898.9
				c58.5,0,105.91,47.42,105.91,105.92l0,0C3073.59,468.87,3026.17,516.29,2967.67,516.29z"/>
		</g>
		<g class="st2">
			<rect x="1684.08" y="322.11" class="st3" width="542.18" height="194.18"/>
		</g>
		<g class="st2">
			<rect x="2293.11" y="322.11" class="st3" width="102.11" height="194.18"/>
		</g>
		<g>
			<path class="st1" d="M1300.72,516.29h-231.95c-58.56,0-105.91-47.36-105.91-105.91c0-29.35,11.8-55.68,31.02-74.9
				c19.22-19.22,45.54-31.02,74.9-31.02h231.95c-29.2,0-55.68,11.8-74.9,31.02c-19.06,19.22-31.02,45.54-31.02,74.9
				C1194.81,468.93,1242.32,516.29,1300.72,516.29z"/>
		</g>
		<g class="st2">
			<path class="st3" d="M3073.59,410.37c0,29.35-11.8,55.68-31.02,74.9c-19.22,19.22-45.54,31.02-74.9,31.02h-131.18
				c29.2,0,55.83-11.8,74.9-31.02c19.22-19.22,31.02-45.54,31.02-74.9c0-58.56-47.36-105.92-105.92-105.92h131.18
				C3026.23,304.46,3073.59,351.82,3073.59,410.37z"/>
		</g>
		<g>
			<path class="st4" d="M2967.67,554.12h-1898.9c-79.26,0-143.74-64.49-143.74-143.75s64.48-143.75,143.74-143.75h1898.9
				c79.26,0,143.74,64.49,143.74,143.75S3046.93,554.12,2967.67,554.12z M1068.77,342.28c-37.55,0-68.09,30.55-68.09,68.08
				s30.55,68.08,68.09,68.08h1898.9c37.55,0,68.09-30.55,68.09-68.08s-30.55-68.08-68.09-68.08H1068.77z"/>
		</g>
		<g>
			<path class="st0" d="M2942.4,516.29l-13.32,105.92l-107.13,847.47c-52.2,413.52-403.84,723.55-820.69,723.55
				c-419.57,0-772.73-314.11-821.6-730.81l-98.5-840.21l-12.41-105.92H2942.4z"/>
		</g>
		<g>
			<path class="st1" d="M2929.09,622.2H1671.94c-191,0-339.23,166.66-316.94,356.36l45.44,386.71
				c48.72,416.7,398.84,764.96,818.27,764.96c75.8,0,152.67-44.43,222.72-63.8c-128,80.65-279.31,126.79-440.15,126.79
				c-419.57,0-772.73-314.11-821.6-730.81l-98.5-840.21l-12.41-105.92H2942.4L2929.09,622.2z"/>
		</g>
		<g class="st2">
			<path class="st3" d="M2942.4,516.29l-120.44,953.39c-52.2,413.52-403.84,723.55-820.69,723.55c-21.94,0-43.73-0.91-65.21-2.57
				c387.5-30.71,705.39-329.4,754.87-720.98l120.44-953.39H2942.4z"/>
		</g>
		<g>
			<path class="st4" d="M2001.33,2231.11c-438.69,0-808.05-328.57-859.15-764.27l-115.94-988.39h1959.12l-125.81,996.01
				C2805.06,1905.82,2436.11,2231.11,2001.33,2231.11z M1111.29,554.12l106.02,903.91c46.65,397.59,383.69,697.42,784.01,697.42
				h0.01c396.75,0,733.43-296.83,783.17-690.47l115.05-910.86H1111.29z"/>
		</g>
		<g>
			<path class="st0" d="M2353.58,2354.67h-711.56c-13.25,0-23.99-10.74-23.99-23.99v-147.09c0-13.25,10.74-23.99,23.99-23.99h711.56
				c13.25,0,23.99,10.74,23.99,23.99v147.09C2377.57,2343.93,2366.83,2354.67,2353.58,2354.67z"/>
		</g>
		<g>
			<path class="st1" d="M1893.54,2354.67h-177.94c-53.87,0-97.59-43.73-97.59-97.59c0-26.93,10.89-51.29,28.6-68.84
				c17.7-17.7,42.06-28.6,69-28.6h177.94c-26.93,0-51.29,10.89-68.84,28.6c-17.7,17.55-28.6,41.91-28.6,68.84
				C1796.1,2310.94,1839.68,2354.67,1893.54,2354.67z"/>
		</g>
		<g class="st2">
			<path class="st3" d="M2377.57,2257.08c0,26.93-10.89,51.29-28.6,69c-17.7,17.7-42.06,28.6-69,28.6h-136.18
				c26.93,0,51.29-10.89,69-28.6c17.7-17.7,28.6-42.06,28.6-69c0-53.87-43.73-97.44-97.59-97.44h136.18
				C2333.85,2159.63,2377.57,2203.21,2377.57,2257.08z"/>
		</g>
		<g class="st2">
			<rect x="1973.46" y="2173.1" class="st3" width="92.99" height="181.57"/>
		</g>
		<g>
			<path class="st4" d="M2280.03,2392.51h-564.46c-74.64,0-135.36-60.74-135.36-135.37c0-74.63,60.72-135.37,135.36-135.37h564.46
				c74.64,0,135.36,60.74,135.36,135.37C2415.39,2331.77,2354.67,2392.51,2280.03,2392.51z M1715.57,2197.43
				c-32.93,0-59.72,26.78-59.72,59.71c0,32.93,26.79,59.71,59.72,59.71h564.46c32.93,0,59.72-26.78,59.72-59.71
				c0-32.93-26.79-59.71-59.72-59.71H1715.57z"/>
		</g>
		<g class="st5">
			<path class="st3" d="M2492.56,1342.22c61.96,14.85,91.9,111.57,66.86,216.03c-25.04,104.46-95.56,177.1-157.53,162.25
				c-61.96-14.85-47.76-100.99-22.72-205.45C2404.22,1410.59,2430.6,1327.37,2492.56,1342.22z"/>
		</g>
		<g class="st5">
			<path class="st3" d="M2312.4,1918.02c-35.02,26.42-84.83,19.45-111.26-15.57c-26.42-35.02-14.21-77.89,20.81-104.31
				c35.02-26.42,79.59-26.4,106.02,8.63C2354.39,1841.79,2347.42,1891.6,2312.4,1918.02z"/>
		</g>
	</g>
	<g>
		<rect x="1828.7" y="2354.67" class="st0" width="353.77" height="746.45"/>
	</g>
	<g>
		<polygon class="st1" points="2186.88,2445.45 1845.48,2576.59 1845.48,2354.67 2182.47,2354.67 		"/>
	</g>
	<g class="st2">
		<path class="st3" d="M2160.62,2455.54c-63.77,195.02-63.77,390.04,0,585.05V2455.54z"/>
	</g>
	<g>
		<path class="st4" d="M2182.47,3138.95H1828.7c-20.89,0-37.82-16.95-37.82-37.83v-746.44c0-20.88,16.93-37.83,37.82-37.83h353.77
			c20.89,0,37.82,16.95,37.82,37.83v746.44C2220.29,3122,2203.36,3138.95,2182.47,3138.95z M1866.52,3063.29h278.12v-670.78h-278.12
			V3063.29z"/>
	</g>
	<g>
		<path class="st0" d="M2285.9,3298.7h-587.04c-67.34,0-121.93-54.59-121.93-121.93l0,0c0-67.34,54.59-121.93,121.93-121.93h587.04
			c67.34,0,121.93,54.59,121.93,121.93l0,0C2407.84,3244.11,2353.25,3298.7,2285.9,3298.7z"/>
	</g>
	<g>
		<path class="st1" d="M1867.06,3298.67h-168.25c-67.33,0-121.95-54.62-121.95-121.95c0-33.74,13.62-64.15,35.71-86.24
			c22.09-22.09,52.65-35.71,86.25-35.71h168.25c-33.59,0-64.15,13.62-86.25,35.71c-22.09,22.09-35.71,52.5-35.71,86.24
			C1745.11,3244.05,1799.73,3298.67,1867.06,3298.67z"/>
	</g>
	<g class="st2">
		<path class="st3" d="M2407.84,3176.72c0,33.74-13.62,64.16-35.71,86.25c-22.09,22.09-52.66,35.71-86.25,35.71h-114.69
			c33.59,0,64.15-13.62,86.25-35.71c22.09-22.09,35.71-52.5,35.71-86.25c0-67.33-54.62-121.95-121.95-121.95h114.69
			C2353.21,3054.77,2407.84,3109.39,2407.84,3176.72z"/>
	</g>
	<g>
		<path class="st4" d="M2285.91,3336.54h-587.04c-88.09,0-159.76-71.68-159.76-159.77S1610.77,3017,1698.86,3017h587.04
			c88.09,0,159.75,71.68,159.75,159.77S2374,3336.54,2285.91,3336.54z M1698.86,3092.67c-46.38,0-84.11,37.73-84.11,84.1
			c0,46.37,37.73,84.1,84.11,84.1h587.04c46.37,0,84.1-37.73,84.1-84.1c0-46.37-37.73-84.1-84.1-84.1H1698.86z"/>
	</g>
	<g>
		<path class="st0" d="M2801.23,3623.38c0,19.67-8.02,37.52-20.88,50.39c-12.86,12.86-30.72,20.88-50.39,20.88H1196.02
			c-39.34,0-71.11-31.93-71.11-71.27c0-89.73,36.31-170.83,95.02-229.53c35.71-35.86,79.74-63.25,128.91-79.28
			c31.62-10.29,65.52-15.89,100.62-15.89h1027.07C2655.83,3298.67,2801.23,3444.08,2801.23,3623.38z"/>
	</g>
	<g>
		<path class="st1" d="M1893.54,3694.64h-697.53c-39.34,0-71.11-31.93-71.11-71.27c0-89.73,36.31-170.83,95.02-229.53
			c35.71-35.86,79.74-63.25,128.91-79.28C1366.09,3576.02,1588.36,3669.22,1893.54,3694.64z"/>
	</g>
	<g class="st2">
		<path class="st3" d="M2801.23,3623.38c0,19.67-8.02,37.52-20.88,50.39c-7.87,7.87-17.55,13.92-28.45,17.4
			c-1.97-159.48-118.78-291.27-271.75-316.38c-24.06,83.67-219.09,82.31-237.4-4.24h-842.48c-89.72,0-170.83,36.31-229.53,95.17
			c-3.78,3.78-7.57,7.87-11.2,11.8c15.59-31.17,36.01-59.31,60.37-83.67c58.71-58.86,139.96-95.17,229.53-95.17h1027.07
			C2655.83,3298.67,2801.23,3444.08,2801.23,3623.38z"/>
	</g>
	<g>
		<path class="st4" d="M2729.99,3732.42h-1533.9c-60.14,0-109.06-48.93-109.06-109.07c0-199.89,162.62-362.51,362.5-362.51h1027.02
			c199.89,0,362.5,162.63,362.5,362.51C2839.05,3683.49,2790.14,3732.42,2729.99,3732.42z M1449.53,3336.5
			c-158.17,0-286.86,128.68-286.86,286.85c0,18.42,15,33.41,33.42,33.41h1533.9c18.42,0,33.42-14.99,33.42-33.41
			c0-158.16-128.68-286.85-286.86-286.85H1449.53z"/>
	</g>
</g>
</svg>
