<svg xmlns="http://www.w3.org/2000/svg" viewBox="0 0 834.62 1384.28"><defs><style>.cls-1{fill:#f9c710;}.cls-2{fill:#f89f1d;}.cls-3{opacity:0.55;}.cls-4{fill:#fff;}.cls-5{fill:#6b184e;}.cls-6{opacity:0.42;}.cls-7{fill:#209dd8;}.cls-8{opacity:0.3;}.cls-9{fill:#51c6db;}.cls-10{fill:#e81c35;}</style></defs><title>Ativo 11.1x</title><g id="Camada_2" data-name="Camada 2"><g id="Camada_2-2" data-name="Camada 2"><path class="cls-1" d="M731.1,303.88l-5.29.6c-36.44,4.38-58.81,12.48-71,26.66a33.93,33.93,0,0,1,11.49,32.13v0a34.13,34.13,0,1,1-66.4-15.46h0c6.63-38.11,29.72-59.29,55.33-71.38h0C679.45,265,706,261.7,722.92,259.85a9.18,9.18,0,0,0,1-.11l1.11-.12a65.13,65.13,0,0,0-18.79-128.89c-1.79.26-3.57.55-5.32,1l.07.37c.11.82.15,1.61.22,2.42v.12a33.66,33.66,0,0,1-1.45,12.54A34.1,34.1,0,1,1,645.7,110.5v0A103.64,103.64,0,0,1,659.06,101l0,0a109.81,109.81,0,1,1,72,202.91Z"/><path class="cls-2" d="M747.19,252.08a65.11,65.11,0,0,0-29.11-122,30.55,30.55,0,0,0-.33-4.57l-.07-.38c1.75-.41,3.53-.7,5.32-1a65.13,65.13,0,0,1,24.19,127.86Z"/><g class="cls-3"><path class="cls-4" d="M666.51,352.29a34.17,34.17,0,0,1-23,37.25,33.93,33.93,0,0,0,8.12-27.32,33.57,33.57,0,0,0-2.41-8.61c-4.22-9.83-.61-21.43,9-26.11l.24-.12a41.62,41.62,0,0,0-3.65,3.76A33.85,33.85,0,0,1,666.51,352.29Z"/></g><path class="cls-2" d="M701.22,134.48s-.56,5.29-1.45,12.66A34.1,34.1,0,1,1,645.7,110.5v0A103.64,103.64,0,0,1,659.06,101C634.6,131.86,676.72,165.33,701.22,134.48Z"/><path class="cls-2" d="M666.28,363.27v0a34.13,34.13,0,1,1-66.4-15.46h0c6.63-38.11,29.72-59.29,55.33-71.38h0C616.61,313.67,624.21,396.53,666.28,363.27Z"/><g class="cls-3"><path class="cls-4" d="M768.62,291.27a109.79,109.79,0,0,0-121-182.34,109.78,109.78,0,1,1,121,182.34Z"/></g><path class="cls-5" d="M632.67,400.58a43.51,43.51,0,0,1-42.95-37.28,42.87,42.87,0,0,1,1-17.15C605.2,263.33,690,254.09,721.9,250.6l.52,0,.51-.07,1.11-.12c30-4.43,51.08-32.77,46.73-63.12a55.91,55.91,0,0,0-60.22-47.68,43.41,43.41,0,0,1-86.3,3.51,43.52,43.52,0,0,1,15-39.32l.54-.48a119.1,119.1,0,1,1,92.66,209.8l-5.55.65c-28.41,3.4-47.51,9.15-59,17.88a43.47,43.47,0,0,1-35.18,69Zm-23.54-51.91a9.35,9.35,0,0,1-.32,1.71,24.53,24.53,0,0,0-.67,10.28,24.83,24.83,0,1,0,49.15-7.05,24.56,24.56,0,0,0-8.5-15.34,9.3,9.3,0,0,1-1.07-13.19c13.67-15.9,37.42-25.1,77-29.84l5.33-.61c54.59-7.84,92.81-58.87,84.94-113.72a100.48,100.48,0,0,0-162.82-63.73,7.7,7.7,0,0,1-.6.54,24.8,24.8,0,1,0,40.23,15.67,9.66,9.66,0,0,1,7.05-10.75c2-.47,4-.85,6.1-1.14a74.44,74.44,0,0,1,21.48,147.32L725,269a11.8,11.8,0,0,1-1.25.13C676.06,274.34,620.15,288.15,609.13,348.67Z"/><path class="cls-1" d="M103.46,303.69l5.29.6c36.43,4.4,58.8,12.52,71,26.71a33.94,33.94,0,0,0-11.51,32.12v0a34.13,34.13,0,1,0,66.41-15.42h0c-6.62-38.12-29.69-59.3-55.29-71.41h0c-24.23-11.47-50.73-14.79-67.7-16.66a6.94,6.94,0,0,1-1-.11l-1.12-.11a65.13,65.13,0,0,1,18.87-128.89c1.79.26,3.58.56,5.32,1l-.07.38c-.11.81-.15,1.6-.22,2.41v.12A33.65,33.65,0,0,0,134.88,147,34.1,34.1,0,1,0,189,110.36v0a104.34,104.34,0,0,0-13.36-9.45l0,0a109.8,109.8,0,1,0-72.12,202.86Z"/><path class="cls-2" d="M87.4,251.88A65.11,65.11,0,0,1,116.58,130a31.93,31.93,0,0,1,.33-4.57L117,125c-1.75-.41-3.54-.7-5.32-1A65.13,65.13,0,0,0,87.4,251.88Z"/><g class="cls-3"><path class="cls-4" d="M168,352.14a34.16,34.16,0,0,0,23,37.26,34.18,34.18,0,0,1-5.69-35.93c4.23-9.83.64-21.43-9-26.12l-.23-.11a42.89,42.89,0,0,1,3.64,3.76A33.81,33.81,0,0,0,168,352.14Z"/></g><path class="cls-2" d="M133.44,134.31s.55,5.29,1.44,12.66A34.1,34.1,0,1,0,189,110.36v0a104.34,104.34,0,0,0-13.36-9.45C200.06,131.73,157.92,165.18,133.44,134.31Z"/><path class="cls-2" d="M168.24,363.12v0a34.13,34.13,0,1,0,66.41-15.42h0c-6.62-38.12-29.69-59.3-55.29-71.41h0C218,313.55,210.29,396.4,168.24,363.12Z"/><g class="cls-3"><path class="cls-4" d="M66,291.07A109.79,109.79,0,0,1,187.08,108.8,109.78,109.78,0,1,0,66,291.07Z"/></g><path class="cls-5" d="M201.83,400.45a43.43,43.43,0,0,1-35.14-69c-11.51-8.74-30.61-14.5-59.06-17.92l-5.25-.61C37.12,303.52-8.14,243,1.23,178A119.07,119.07,0,0,1,194.9,103.15a6.3,6.3,0,0,1,.55.48,43.42,43.42,0,0,1-2,67.92,43.45,43.45,0,0,1-69.37-32.15,55.83,55.83,0,0,0-13.18,110.83l.77.08-.38,9.33.93-9.26c32.4,3.54,117.18,12.84,131.65,95.67a43.47,43.47,0,0,1-42,54.4ZM119,94.5a100.5,100.5,0,0,0-14.2,200l5,.57c39.62,4.77,63.35,14,77,29.89a9.29,9.29,0,0,1-1.08,13.19,24.58,24.58,0,0,0-8.5,15.33,24.83,24.83,0,1,0,48.48-3.19,8.77,8.77,0,0,1-.32-1.73c-11-60.52-66.89-74.35-114.53-79.6-.56,0-1.07-.1-1.59-.18l-.77-.08a74.4,74.4,0,0,1-34-133.25,73.89,73.89,0,0,1,55.19-14.1c2.07.29,4.09.67,6.09,1.14a9.29,9.29,0,0,1,7.1,10.42A24.81,24.81,0,1,0,192,140.3a24.46,24.46,0,0,0-8.87-22.72c-.21-.17-.41-.35-.61-.54a100.14,100.14,0,0,0-49.05-21.5A102.38,102.38,0,0,0,119,94.5Z"/><path class="cls-1" d="M655.5,61.56l-467.11-.14a26.07,26.07,0,0,1-26-26.07h0a26.06,26.06,0,0,1,26.06-26l467.12.14a26,26,0,0,1,26,26.06h0A26.05,26.05,0,0,1,655.5,61.56Z"/><g class="cls-3"><rect class="cls-4" x="339.76" y="13.72" width="133.37" height="47.77"/></g><g class="cls-3"><rect class="cls-4" x="489.57" y="13.74" width="25.12" height="47.77"/></g><path class="cls-2" d="M245.45,61.43H188.39a26.06,26.06,0,1,1,0-52.11l57.06,0a26.05,26.05,0,1,0,0,52.1Z"/><g class="cls-3"><path class="cls-4" d="M681.56,35.51A26.05,26.05,0,0,1,655.5,61.56H623.23a26.06,26.06,0,0,0,0-52.11h32.27A26,26,0,0,1,681.56,35.51Z"/></g><path class="cls-5" d="M655.5,70.86l-467.11-.14a35.36,35.36,0,1,1,0-70.72L655.52.14a35.36,35.36,0,0,1,0,70.72ZM188.4,18.61a16.75,16.75,0,0,0,0,33.5l467.11.14a16.75,16.75,0,1,0,0-33.5Z"/><path class="cls-1" d="M649.29,61.55,646,87.61,619.59,296.07a203.49,203.49,0,0,1-404-1.91L191.43,87.47l-3-26Z"/><path class="cls-2" d="M646,87.61l-309.24-.09a78.5,78.5,0,0,0-78,87.63l11.15,95.13c12,102.51,98.06,188.2,201.23,188.24,18.65,0,37.56-10.92,54.8-15.68A203.5,203.5,0,0,1,215.6,294.16L191.43,87.47l-3-26,460.9.13Z"/><g class="cls-3"><path class="cls-4" d="M649.29,61.55l-29.7,234.52A203.47,203.47,0,0,1,417.65,474c-5.39,0-10.75-.23-16-.64a203.53,203.53,0,0,0,185.75-177.3L617.05,61.54Z"/></g><path class="cls-5" d="M417.66,483.32A212.83,212.83,0,0,1,206.38,295.25L177.93,52.11l481.92.14-31,245C615.4,403.36,524.62,483.35,417.66,483.32ZM198.85,70.73l26,222.36A194.21,194.21,0,0,0,417.67,464.7h0c97.6,0,180.44-73,192.7-169.79l28.37-224Z"/><rect class="cls-1" x="323.37" y="465.72" width="186.84" height="47.99" rx="23.99"/><path class="cls-2" d="M391.14,513.7H347.37a24,24,0,0,1-24-24,24,24,0,0,1,24-24h43.78a24,24,0,0,0,0,48Z"/><g class="cls-3"><path class="cls-4" d="M510.21,489.73a24,24,0,0,1-24,24H452.7a24,24,0,1,0,0-48h33.5A24,24,0,0,1,510.21,489.73Z"/></g><g class="cls-3"><rect class="cls-4" x="410.81" y="469.05" width="22.87" height="44.66"/></g><path class="cls-5" d="M486.21,523l-138.85,0a33.3,33.3,0,1,1,0-66.6l138.85,0a33.3,33.3,0,0,1,0,66.6ZM347.37,475a14.69,14.69,0,1,0,0,29.37l138.86,0a14.69,14.69,0,1,0,0-29.37Z"/><g class="cls-6"><path class="cls-4" d="M538.57,264.69c15.24,3.66,22.6,27.46,16.43,53.15s-23.52,43.56-38.76,39.9-11.74-24.85-5.58-50.54S523.33,261,538.57,264.69Z"/></g><g class="cls-6"><path class="cls-4" d="M494.21,406.32a19.54,19.54,0,0,1-27.37-3.84c-6.5-8.61-3.49-19.16,5.13-25.66s19.58-6.48,26.08,2.13A19.56,19.56,0,0,1,494.21,406.32Z"/></g><rect class="cls-1" x="375.16" y="513.71" width="87.02" height="183.62"/><polygon class="cls-2" points="463.29 536.05 379.3 568.29 379.32 513.7 462.21 513.72 463.29 536.05"/><g class="cls-3"><path class="cls-4" d="M456.83,538.53q-23.55,72,0,143.92Z"/></g><path class="cls-5" d="M462.16,706.65l-87,0a9.3,9.3,0,0,1-9.3-9.31l.06-183.61a9.3,9.3,0,0,1,9.3-9.31l87,0a9.3,9.3,0,0,1,9.3,9.31l-.06,183.62A9.3,9.3,0,0,1,462.16,706.65ZM384.44,688l68.42,0,.05-165-68.42,0Z"/><path class="cls-1" d="M487.59,746l-144.41,0a30,30,0,0,1-30-30h0a30,30,0,0,1,30-30l144.41,0a30,30,0,0,1,30,30h0A30,30,0,0,1,487.59,746Z"/><path class="cls-2" d="M384.56,745.92l-41.39,0a30,30,0,1,1,0-60l41.39,0a30,30,0,1,0,0,60Z"/><g class="cls-3"><path class="cls-4" d="M517.59,716a30,30,0,0,1-30,30H459.37a30,30,0,0,0,0-60H487.6A30,30,0,0,1,517.59,716Z"/></g><path class="cls-5" d="M487.59,755.26l-144.41,0a39.31,39.31,0,0,1,0-78.61l144.41,0a39.3,39.3,0,0,1,0,78.6Zm-144.39-60a20.69,20.69,0,1,0,0,41.37l144.41,0a20.69,20.69,0,1,0,0-41.38Z"/><path class="cls-1" d="M614.33,825.86a17.53,17.53,0,0,1-17.54,17.52l-377.33-.11A17.51,17.51,0,0,1,202,825.73a79.78,79.78,0,0,1,79.86-79.85l252.65.08A79.88,79.88,0,0,1,614.33,825.86Z"/><path class="cls-2" d="M391,843.32l-171.58-.05A17.51,17.51,0,0,1,202,825.73a80,80,0,0,1,55.11-75.94C261.3,814.1,316,837.05,391,843.32Z"/><g class="cls-3"><path class="cls-4" d="M614.33,825.86a17.53,17.53,0,0,1-12.14,16.67,79.89,79.89,0,0,0-66.82-77.85c-5.93,20.58-53.9,20.23-58.4-1.06l-207.24-.06A79.41,79.41,0,0,0,213.26,787c-.93.93-1.86,1.93-2.76,2.9a79.83,79.83,0,0,1,71.33-44l252.65.08A79.88,79.88,0,0,1,614.33,825.86Z"/></g><path class="cls-5" d="M596.8,852.68l-377.33-.12a26.86,26.86,0,0,1-26.82-26.84,89.27,89.27,0,0,1,89.2-89.14l252.64.07a89.27,89.27,0,0,1,89.14,89.2A26.86,26.86,0,0,1,596.8,852.68ZM281.85,755.19a70.64,70.64,0,0,0-70.59,70.54,8.23,8.23,0,0,0,8.22,8.22l377.32.11a8.24,8.24,0,0,0,8.23-8.21,70.66,70.66,0,0,0-70.55-70.59Z"/><rect class="cls-7" x="141.3" y="842.83" width="532.15" height="532.15" rx="42.72"/><g class="cls-8"><path class="cls-5" d="M443.31,1037.43a16.63,16.63,0,0,1-15.67,11H316a16.63,16.63,0,0,1-16.65-16.6v-176A16.67,16.67,0,0,1,316,839.17h23.38a15.62,15.62,0,0,0-1,5.66v176a16.63,16.63,0,0,0,16.64,16.6Z"/></g><g class="cls-8"><path class="cls-5" d="M670.88,1346.91A42.75,42.75,0,0,1,630.75,1375H184a42.71,42.71,0,0,1-42.72-42.72V885.55A42.72,42.72,0,0,1,167.88,846a43.52,43.52,0,0,0-3.37,17v443.73a44.21,44.21,0,0,0,44.18,44.23H652.43A44.66,44.66,0,0,0,670.88,1346.91Z"/></g><g class="cls-3"><path class="cls-4" d="M673.47,890.43v446.71a42.81,42.81,0,0,1-29.29,40.57,42.25,42.25,0,0,0,4.88-19.82V911.18a42.74,42.74,0,0,0-42.72-42.72H159.63a42.17,42.17,0,0,0-13.43,2.15A42.66,42.66,0,0,1,184,847.71H630.75A42.74,42.74,0,0,1,673.47,890.43Z"/></g><path class="cls-5" d="M630.73,1384.28H184a52.09,52.09,0,0,1-52-52V885.55a52.09,52.09,0,0,1,52-52H630.73a52.09,52.09,0,0,1,52,52v446.71A52.08,52.08,0,0,1,630.73,1384.28ZM184,852.14a33.45,33.45,0,0,0-33.42,33.41v446.71A33.45,33.45,0,0,0,184,1365.67H630.73a33.44,33.44,0,0,0,33.41-33.41V885.55a33.45,33.45,0,0,0-33.41-33.41Z"/><rect class="cls-9" x="216.76" y="920.02" width="379.52" height="379.52" rx="17.74"/><g class="cls-8"><path class="cls-5" d="M579,1295.09v4.48a17.7,17.7,0,0,1-17.74,17.74h-344a17.72,17.72,0,0,1-17.73-17.74v-344a17.72,17.72,0,0,1,17.73-17.73h3.73v339.54a17.74,17.74,0,0,0,17.74,17.74Z"/></g><g class="cls-3"><path class="cls-4" d="M596.29,937.76v344a17.72,17.72,0,0,1-17.73,17.74H577.4V953.63a12,12,0,0,0-11.95-12H216.75v-3.91A17.72,17.72,0,0,1,234.48,920H578.56A17.72,17.72,0,0,1,596.29,937.76Z"/></g><path class="cls-5" d="M578.55,1308.85h-344a27.07,27.07,0,0,1-27-27v-344a27.06,27.06,0,0,1,27-27h344a27.07,27.07,0,0,1,27,27v344A27.07,27.07,0,0,1,578.55,1308.85Zm-344-379.53a8.45,8.45,0,0,0-8.44,8.43v344a8.45,8.45,0,0,0,8.44,8.44h344a8.45,8.45,0,0,0,8.43-8.44v-344a8.44,8.44,0,0,0-8.43-8.43Z"/><g class="cls-8"><path class="cls-5" d="M470.55,1063.72a92.76,92.76,0,1,1-169.31-52.38v-93h22.7V988.2a92.75,92.75,0,0,1,146.61,75.52Z"/></g><path class="cls-10" d="M478.82,844.83v176a16.63,16.63,0,0,1-16.65,16.6H350.57a16.63,16.63,0,0,1-16.65-16.6v-176a16.67,16.67,0,0,1,16.65-16.65h111.6A16.67,16.67,0,0,1,478.82,844.83Z"/><g class="cls-3"><path class="cls-4" d="M476.38,848.7v176a16.63,16.63,0,0,1-16.65,16.6h-3.46V855.73a5.85,5.85,0,0,0-5.86-5.86H331.48V848.7a16.67,16.67,0,0,1,16.65-16.65h111.6A16.67,16.67,0,0,1,476.38,848.7Z"/></g><path class="cls-5" d="M462.19,1046.76H350.57a26,26,0,0,1-25.94-25.93v-176a26,26,0,0,1,25.94-25.94H462.19a26,26,0,0,1,25.94,25.94v176A26,26,0,0,1,462.19,1046.76ZM350.57,837.49a7.34,7.34,0,0,0-7.33,7.33v176a7.33,7.33,0,0,0,7.33,7.32H462.19a7.33,7.33,0,0,0,7.33-7.32v-176a7.34,7.34,0,0,0-7.33-7.33Z"/><g class="cls-8"><path class="cls-5" d="M478.82,930.71v90.12a16.63,16.63,0,0,1-16.65,16.6H350.57a16.63,16.63,0,0,1-16.65-16.6V851.76c2.44-1,3.91-1.61,3.91-1.61Q370.13,962.56,478.82,930.71Z"/></g><circle class="cls-1" cx="406.59" cy="1052.76" r="92.76" transform="translate(-625.33 595.85) rotate(-45)"/><g class="cls-3"><path class="cls-4" d="M478.4,1116.74a92.79,92.79,0,0,0-2.83-100.52c-15.68,10.79-34.62-9.33-24.17-24.17a92.54,92.54,0,0,0-117.46,10.6A92.73,92.73,0,1,1,478.4,1116.74Z"/></g><circle class="cls-2" cx="406.59" cy="1052.76" r="48.63"/><g class="cls-3"><path class="cls-4" d="M440.5,1087.57a48.63,48.63,0,0,1-67.38,8.45c-10.2,6.59-21.77-7.42-13.71-16.21a48.47,48.47,0,0,1,9.32-57.51,48.59,48.59,0,0,0,71.77,65.27Z"/></g><g class="cls-8"><path class="cls-5" d="M455.24,1052.76a48.18,48.18,0,0,1-16.45,36.37,48.14,48.14,0,0,0,9.52-28.85A48.58,48.58,0,0,0,367.36,1024a48.65,48.65,0,0,1,87.88,28.75Z"/></g><path class="cls-5" d="M406.59,1154.83a102.07,102.07,0,1,1,102.07-102.07A102.18,102.18,0,0,1,406.59,1154.83Zm0-185.52a83.45,83.45,0,1,0,83.46,83.45A83.55,83.55,0,0,0,406.59,969.31Z"/><rect class="cls-5" x="396.38" y="1025.82" width="19.49" height="57.89" rx="5.48"/><g class="cls-8"><path class="cls-5" d="M417.34,1030v46.9a5.41,5.41,0,0,1-2.63,4.68,5.65,5.65,0,0,0,1.14-3.37v-46.89a5.49,5.49,0,0,0-5.47-5.54h-8.5a5.52,5.52,0,0,0-2.74.74,5.55,5.55,0,0,1,4.22-2h8.5A5.48,5.48,0,0,1,417.34,1030Z"/></g><g class="cls-3"><path class="cls-4" d="M412.49,1083.24a5.7,5.7,0,0,1-3.88,1.6h-8.5a5.5,5.5,0,0,1-5.54-5.48v-46.89a5.35,5.35,0,0,1,3.37-5,5.51,5.51,0,0,0-1.54,3.88v46.89a5.48,5.48,0,0,0,5.48,5.48h8.5A5.12,5.12,0,0,0,412.49,1083.24Z"/></g></g></g></svg>