<?xml version="1.0" encoding="utf-8"?>
<svg version="1.1" id="Layer_1" xmlns="http://www.w3.org/2000/svg" xmlns:xlink="http://www.w3.org/1999/xlink" x="0px" y="0px"
viewBox="0 0 4000 4000" style="enable-background:new 0 0 4000 4000;" xml:space="preserve">
<style type="text/css">
.st0{fill:#CBCCD0;}
.st1{opacity:0.3;}
.st2{fill:#6B184E;}
.st3{opacity:0.55;}
.st4{fill:#FFFFFF;}
.st5{opacity:0.42;}
</style>
<g>
<g>
<rect x="1859.07" y="2243.06" class="st0" width="375.97" height="793.29"/>
</g>
<g class="st1">
<polygon class="st2" points="2239.72,2339.54 1876.9,2478.91 1876.9,2243.06 2235.04,2243.06 		"/>
</g>
<g class="st3">
<path class="st4" d="M2186.4,2350.26c-67.77,207.26-67.77,414.51,0,621.77V2350.26z"/>
</g>
<g>
<path class="st2" d="M2235.05,3091h-375.98c-30.19,0-54.65-24.48-54.65-54.65v-793.28c0-30.17,24.46-54.65,54.65-54.65h375.98
c30.19,0,54.65,24.48,54.65,54.65v793.28C2289.7,3066.52,2265.24,3091,2235.05,3091z M1913.72,2981.69h266.67v-683.97h-266.67
V2981.69z"/>
</g>
<g>
<path class="st0" d="M2456.76,3246.34h-847.49c-9.82,0-17.78-7.96-17.78-17.78v-223.6c0-9.82,7.96-17.78,17.78-17.78h847.49
c9.82,0,17.78,7.96,17.78,17.78v223.6C2474.55,3238.38,2466.59,3246.34,2456.76,3246.34z"/>
</g>
<g class="st1">
<path class="st2" d="M1899.84,3246.31h-178.81c-71.56,0-129.61-58.05-129.61-129.61c0-35.86,14.47-68.18,37.95-91.66
c23.48-23.48,55.96-37.95,91.66-37.95h178.81c-35.7,0-68.18,14.47-91.66,37.95c-23.48,23.48-37.95,55.8-37.95,91.66
C1770.23,3188.26,1828.28,3246.31,1899.84,3246.31z"/>
</g>
<g class="st3">
<path class="st4" d="M2474.55,3116.7c0,35.86-14.47,68.18-37.95,91.66c-23.48,23.48-55.96,37.95-91.66,37.95h-121.89
c35.7,0,68.18-14.47,91.66-37.95c23.48-23.48,37.95-55.8,37.95-91.66c0-71.56-58.05-129.61-129.61-129.61h121.89
C2416.5,2987.09,2474.55,3045.14,2474.55,3116.7z"/>
</g>
<g>
<path class="st2" d="M2344.96,3301.01h-623.89c-101.59,0-184.23-82.66-184.23-184.25s82.64-184.25,184.23-184.25h623.89
c101.59,0,184.25,82.66,184.25,184.25S2446.55,3301.01,2344.96,3301.01z M1721.07,3041.83c-41.31,0-74.92,33.63-74.92,74.94
c0,41.31,33.61,74.94,74.92,74.94h623.89c41.33,0,74.94-33.63,74.94-74.94c0-41.31-33.61-74.94-74.94-74.94H1721.07z"/>
</g>
<g>
<path class="st0" d="M2892.63,3591.39c0,20.9-8.52,39.88-22.19,53.55c-13.67,13.67-32.64,22.19-53.55,22.19H1186.68
c-41.81,0-75.58-33.93-75.58-75.74c0-95.36,38.59-181.55,100.98-243.94c37.95-38.11,84.74-67.22,137-84.26
c33.61-10.93,69.63-16.88,106.93-16.88h1091.53C2738.1,3246.31,2892.63,3400.84,2892.63,3591.39z"/>
</g>
<g class="st1">
<path class="st2" d="M1927.98,3667.13h-741.3c-41.81,0-75.58-33.93-75.58-75.74c0-95.36,38.59-181.55,100.98-243.94
c37.95-38.11,84.74-67.22,137-84.26C1367.42,3541.06,1603.64,3640.11,1927.98,3667.13z"/>
</g>
<g class="st3">
<path class="st4" d="M2892.63,3591.39c0,20.9-8.52,39.88-22.19,53.55c-8.36,8.36-18.65,14.79-30.23,18.49
c-2.09-169.48-126.23-309.54-288.8-336.24c-25.57,88.92-232.84,87.48-252.3-4.5h-895.35c-95.36,0-181.55,38.59-243.94,101.14
c-4.02,4.02-8.04,8.36-11.9,12.54c16.56-33.13,38.27-63.03,64.16-88.92c62.39-62.55,148.74-101.14,243.94-101.14h1091.53
C2738.1,3246.31,2892.63,3400.84,2892.63,3591.39z"/>
</g>
<g>
<path class="st2" d="M2816.93,3721.74H1186.77c-71.89,0-130.37-58.5-130.37-130.37c0-220.4,179.32-399.7,399.72-399.7h1091.47
c220.4,0,399.7,179.3,399.7,399.7C2947.28,3663.24,2888.8,3721.74,2816.93,3721.74z M1456.11,3300.97
c-160.14,0-290.41,130.27-290.41,290.39c0,11.6,9.45,21.07,21.06,21.07h1630.16c11.6,0,21.05-9.47,21.05-21.07
c0-160.12-130.27-290.39-290.39-290.39H1456.11z"/>
</g>
<g>
<g>
<path class="st0" d="M3396.43,1603.87l-22.83,2.57c-157.43,18.97-254.07,54.03-306.81,115.3c26.53,22.35,45.35,54.19,50.65,91.34
c2.25,16.24,1.93,32.32-0.96,47.44c0,0,0,0,0,0.16c-11.1,60.78-59.82,109.99-123.98,119.31
c-80.72,11.58-155.34-44.22-167.07-124.94c-2.89-21.23-1.45-41.81,4.18-61.1h-0.16c28.62-164.66,128.32-256.16,238.95-308.42
h0.16c104.68-49.53,219.17-63.84,292.5-71.88c1.61,0,3.05-0.32,4.34-0.48l4.82-0.48c152.92-22.67,259.21-165.3,237.18-318.39
c-22.03-153.73-164.98-260.66-318.55-238.47c-7.72,1.13-15.44,2.41-22.99,4.18l0.32,1.61c0.48,3.54,0.64,6.91,0.96,10.45
c0,0,0,0,0,0.16c0,0,0,0.16,0,0.32c1.29,18.81-0.8,36.98-6.27,54.19c-16.4,52.42-61.43,93.43-119.64,101.79
c-80.56,11.58-155.17-44.22-166.75-124.94c-7.72-53.23,13.99-103.72,52.74-135.07v-0.16c18.17-15.12,37.47-28.78,57.73-40.84
l0.16-0.16c53.71-32.16,113.53-53.55,176.24-62.55c259.05-37.31,499.93,142.95,537.08,402.01
C3835.74,1325.69,3655.48,1566.57,3396.43,1603.87z"/>
</g>
<g class="st1">
<path class="st2" d="M3465.89,1380.04c98.73-55.16,158.55-167.23,141.51-285.75c-19.62-136.36-134.43-236.06-267.41-241.04
c0-6.59-0.48-13.19-1.45-19.78l-0.32-1.61c7.56-1.77,15.28-3.05,22.99-4.18c153.57-22.19,296.52,84.74,318.55,238.47
C3700.66,1211.36,3606.11,1347.07,3465.89,1380.04z"/>
</g>
<g class="st3">
<path class="st4" d="M3117.43,1813.08c10.29,71.88-32.96,138.93-99.38,160.96c27.34-31.2,41.49-73.65,35.05-118.03
c-1.87-13.12-5.43-25.58-10.43-37.2c-18.25-42.47-2.7-92.58,38.85-112.83c0.33-0.16,0.67-0.33,1.01-0.49
c-5.63,5.15-10.93,10.61-15.76,16.24C3093.31,1744.09,3112.13,1775.93,3117.43,1813.08z"/>
</g>
<g class="st1">
<path class="st2" d="M3267.14,872.06c0,0-2.41,22.83-6.27,54.67c-16.4,52.42-61.43,93.43-119.64,101.79
c-80.56,11.58-155.17-44.22-166.75-124.94c-7.72-53.23,13.99-103.72,52.74-135.07v-0.16c18.17-15.12,37.47-28.78,57.73-40.84
C2979.3,860.81,3161.33,1005.37,3267.14,872.06z"/>
</g>
<g class="st1">
<path class="st2" d="M3116.47,1860.52c0,0,0,0,0,0.16c-11.1,60.78-59.82,109.99-123.98,119.31
c-80.72,11.58-155.34-44.22-167.07-124.94c-2.89-21.23-1.45-41.81,4.18-61.1h-0.16c28.62-164.66,128.32-256.16,238.95-308.42
h0.16C2901.8,1646.33,2934.76,2004.27,3116.47,1860.52z"/>
</g>
<g class="st3">
<path class="st4" d="M3558.51,1549.36c128.16-101.47,200.52-266.45,175.6-439.63c-37.15-259.05-278.03-439.31-537.08-402.17
c-57.08,8.36-111.76,26.69-161.61,54.19c65.12-51.62,143.11-85.06,225.93-96.96c259.05-37.31,499.93,142.95,537.08,402.01
C3827.38,1267.15,3725.91,1456.58,3558.51,1549.36z"/>
</g>
<g>
<path class="st2" d="M2970.93,2036.23c-43.34,0-85.33-13.91-120.63-40.31c-43.2-32.34-71.22-79.6-78.92-133.08
c-3.84-26.79-2.4-53.44,4.31-79.28c64.8-367.92,438.57-408.84,579.35-424.25l10.43,53.87l-6.03-54.33l4.8-0.53
c121.12-17.97,206.86-133.04,189.12-256.3c-16.63-115.64-118.06-196.91-232.58-194.35c-4.23,34.73-17.4,67.61-38.73,96.11
c-32.33,43.2-79.6,71.2-133.08,78.89c-110.43,15.8-212.8-61.02-228.65-171.29c-9.86-68.5,16.56-137.95,69.07-182.47
c0.98-0.96,1.99-1.85,3.02-2.7c74.58-61.73,164.92-101.66,261.23-115.5c139.77-20.14,278.97,15.51,392.21,100.24
c113.22,84.76,186.65,208.37,206.73,348.07l0,0c41.51,288.72-159.61,557.4-448.34,598.92l-24.36,2.85
c-111.34,13.34-188.34,34.87-236.8,66.61c14.66,23.48,24.41,49.96,28.43,77.93c7.69,53.48-5.92,106.75-38.3,149.94
c-32.36,43.2-79.58,71.2-132.99,78.85C2990.43,2035.52,2980.64,2036.23,2970.93,2036.23z M2883.88,1799.54
c-0.32,3.13-0.91,6.26-1.8,9.36c-3.54,12.38-4.38,25.3-2.49,38.36c3.54,24.59,16.4,46.29,36.22,61.17
c19.82,14.84,44.19,21.03,68.83,17.51c24.53-3.52,46.22-16.4,61.08-36.22c14.87-19.82,21.12-44.26,17.58-68.82
c-3.22-22.45-14.5-42.81-31.72-57.29c-11.19-9.39-18.15-22.88-19.32-37.43c-1.17-14.55,3.52-28.96,13.04-40.03
c61.61-71.66,167.02-112.97,341.81-133.93l23.09-2.67c227.55-32.74,387.12-245.91,354.17-474.96l0,0
c-15.92-110.8-74.19-208.87-164.03-276.12c-89.83-67.25-200.29-95.4-311.15-79.6c-75.17,10.82-145.71,41.63-204.24,89.21
c-1.05,1-2.15,1.96-3.29,2.88c-25.44,20.57-37.82,52.27-33.13,84.83c7.28,50.67,54.46,86,104.9,78.71
c24.57-3.56,46.29-16.4,61.13-36.22c14.82-19.82,21.05-44.26,17.51-68.85c-4.06-28.22,14.02-56.4,41.83-62.7
c8.91-2.03,17.88-3.7,27.1-5.05c183.57-26.26,354.21,101.41,380.59,284.77c26.26,182.68-100.82,353.26-283.29,380.27l-6.78,0.82
c-1.26,0.21-4.47,0.57-8.11,0.75C3166.08,1489.97,2930.06,1547.58,2883.88,1799.54z"/>
</g>
</g>
<g>
<g>
<path class="st0" d="M684.84,1603.87l22.83,2.57c157.43,18.97,254.07,54.03,306.81,115.3c-26.53,22.35-45.35,54.19-50.65,91.34
c-2.25,16.24-1.93,32.32,0.96,47.44c0,0,0,0,0,0.16c11.1,60.78,59.82,109.99,123.98,119.31
c80.72,11.58,155.34-44.22,167.07-124.94c2.89-21.23,1.45-41.81-4.18-61.1h0.16c-28.62-164.66-128.32-256.16-238.95-308.42h-0.16
c-104.68-49.53-219.17-63.84-292.5-71.88c-1.61,0-3.06-0.32-4.34-0.48l-4.82-0.48c-152.92-22.67-259.21-165.3-237.18-318.39
c22.03-153.73,164.98-260.66,318.55-238.47c7.72,1.13,15.44,2.41,22.99,4.18l-0.32,1.61c-0.48,3.54-0.64,6.91-0.96,10.45
c0,0,0,0,0,0.16c0,0,0,0.16,0,0.32c-1.29,18.81,0.8,36.98,6.27,54.19c16.4,52.42,61.43,93.43,119.64,101.79
c80.56,11.58,155.17-44.22,166.75-124.94c7.72-53.23-13.99-103.72-52.74-135.07v-0.16c-18.17-15.12-37.47-28.78-57.73-40.84
l-0.16-0.16c-53.71-32.16-113.53-53.55-176.24-62.55c-259.05-37.31-499.93,142.95-537.08,402.01
C245.53,1325.69,425.79,1566.57,684.84,1603.87z"/>
</g>
<g class="st1">
<path class="st2" d="M615.37,1380.04c-98.73-55.16-158.55-167.23-141.51-285.75c19.62-136.36,134.43-236.06,267.41-241.04
c0-6.59,0.48-13.19,1.45-19.78l0.32-1.61c-7.56-1.77-15.28-3.05-23-4.18c-153.57-22.19-296.52,84.74-318.55,238.47
C380.6,1211.36,475.15,1347.07,615.37,1380.04z"/>
</g>
<g class="st3">
<path class="st4" d="M963.83,1813.08c-10.29,71.88,32.96,138.93,99.38,160.96c-27.34-31.2-41.49-73.65-35.05-118.03
c1.87-13.12,5.43-25.58,10.43-37.2c18.25-42.47,2.7-92.58-38.85-112.83c-0.33-0.16-0.67-0.33-1.01-0.49
c5.63,5.15,10.93,10.61,15.76,16.24C987.95,1744.09,969.14,1775.93,963.83,1813.08z"/>
</g>
<g class="st1">
<path class="st2" d="M814.13,872.06c0,0,2.41,22.83,6.27,54.67c16.4,52.42,61.43,93.43,119.64,101.79
c80.56,11.58,155.17-44.22,166.75-124.94c7.72-53.23-13.99-103.72-52.74-135.07v-0.16c-18.17-15.12-37.47-28.78-57.73-40.84
C1101.96,860.81,919.93,1005.37,814.13,872.06z"/>
</g>
<g class="st1">
<path class="st2" d="M964.8,1860.52c0,0,0,0,0,0.16c11.1,60.78,59.82,109.99,123.98,119.31
c80.72,11.58,155.34-44.22,167.07-124.94c2.89-21.23,1.45-41.81-4.18-61.1h0.16c-28.62-164.66-128.32-256.16-238.95-308.42h-0.16
C1179.47,1646.33,1146.5,2004.27,964.8,1860.52z"/>
</g>
<g class="st3">
<path class="st4" d="M522.75,1549.36c-128.16-101.47-200.52-266.45-175.6-439.63c37.15-259.05,278.03-439.31,537.08-402.17
c57.08,8.36,111.76,26.69,161.61,54.19c-65.12-51.62-143.11-85.06-225.93-96.96c-259.05-37.31-499.93,142.95-537.08,402.01
C253.89,1267.15,355.36,1456.58,522.75,1549.36z"/>
</g>
<g>
<path class="st2" d="M1110.34,2036.23c-9.73,0-19.52-0.71-29.3-2.13c-53.39-7.65-100.61-35.65-132.97-78.85
c-32.38-43.2-45.99-96.46-38.3-149.94c4.02-27.97,13.77-54.44,28.43-77.93c-48.48-31.74-125.5-53.27-237.03-66.65l-22.6-2.6
c-290.26-41.74-491.38-310.42-449.87-599.14c20.09-139.7,93.51-263.31,206.73-348.07c113.22-84.72,252.53-120.27,392.21-100.24
c96.3,13.84,186.65,53.77,261.23,115.5c1.05,0.85,2.06,1.78,3.04,2.7c52.5,44.51,78.9,113.97,69.05,182.47
c-15.85,110.31-118.38,187.16-228.65,171.29c-53.48-7.69-100.75-35.69-133.08-78.89c-21.4-28.61-34.59-61.56-38.82-96.11
c-113.95-4.73-215.86,78.71-232.5,194.35c-17.74,123.26,68,238.33,191.1,256.59l2.83,0.25c1.19,0.07,3.22,0.32,4.39,0.46
c140.78,15.41,514.56,56.33,579.35,424.25c6.71,25.83,8.15,52.48,4.31,79.28c-7.69,53.48-35.71,100.73-78.92,133.08
C1195.68,2022.32,1153.68,2036.23,1110.34,2036.23z M751.65,714.52c-89.97,0-177.24,28.93-250.71,83.94
c-89.85,67.25-148.11,165.32-164.04,276.12l0,0c-32.95,229.04,126.62,442.18,355.68,475.17l21.33,2.42
c175.03,20.99,280.44,62.3,342.05,133.97c9.52,11.07,14.22,25.48,13.04,40.03c-1.17,14.55-8.13,28.04-19.32,37.43
c-17.22,14.48-28.5,34.84-31.72,57.29c-3.54,24.55,2.7,49,17.58,68.82c14.86,19.82,36.54,32.7,61.06,36.22
c24.45,3.45,49.03-2.7,68.87-17.51c19.82-14.87,32.68-36.58,36.2-61.17c1.89-13.06,1.05-25.97-2.49-38.36
c-0.89-3.13-1.49-6.26-1.81-9.43c-46.22-251.89-282.22-309.5-483.03-331.49c-0.14,0.11-3.29-0.25-6.55-0.75l-2.83-0.25
c-184.44-27.29-311.52-197.87-285.26-380.55c26.38-183.36,197.04-311.42,380.47-284.77c9.32,1.35,18.29,3.02,27.22,5.05
c27.81,6.26,46.13,32.88,42.04,61.13c-3.75,26.15,2.47,50.6,17.29,70.42c14.84,19.82,36.56,32.66,61.13,36.22
c50.49,7.33,97.64-28.04,104.9-78.71c4.7-32.56-7.69-64.26-33.13-84.83c-1.14-0.93-2.26-1.89-3.31-2.92
c-58.53-47.54-129.06-78.35-204.23-89.17C791.89,715.98,771.7,714.52,751.65,714.52z M282.8,1066.79h0.36H282.8z"/>
</g>
</g>
<g>
<g>
<path class="st0" d="M3069.51,557.05H1051.45c-62.17,0-112.56-50.4-112.56-112.56l0,0c0-62.17,50.4-112.56,112.56-112.56h2018.07
c62.17,0,112.56,50.4,112.56,112.56l0,0C3182.08,506.66,3131.68,557.05,3069.51,557.05z"/>
</g>
<g class="st3">
<rect x="1705.37" y="350.69" class="st4" width="576.21" height="206.36"/>
</g>
<g class="st3">
<rect x="2352.62" y="350.69" class="st4" width="108.52" height="206.36"/>
</g>
<g class="st1">
<path class="st2" d="M1297.96,557.05h-246.51c-62.23,0-112.56-50.33-112.56-112.56c0-31.2,12.54-59.17,32.96-79.6
c20.42-20.42,48.4-32.96,79.6-32.96h246.51c-31.04,0-59.18,12.54-79.6,32.96c-20.26,20.42-32.96,48.4-32.96,79.6
C1185.39,506.72,1235.89,557.05,1297.96,557.05z"/>
</g>
<g class="st3">
<path class="st4" d="M3182.08,444.49c0,31.2-12.54,59.18-32.96,79.6c-20.42,20.42-48.4,32.96-79.6,32.96H2930.1
c31.04,0,59.34-12.54,79.6-32.96c20.42-20.42,32.96-48.4,32.96-79.6c0-62.23-50.33-112.56-112.56-112.56h139.42
C3131.75,331.93,3182.08,382.26,3182.08,444.49z"/>
</g>
<g>
<path class="st2" d="M3069.51,611.72H1051.45c-92.21,0-167.22-75.01-167.22-167.24c0-92.19,75.01-167.2,167.22-167.2h2018.06
c92.21,0,167.22,75.01,167.22,167.2C3236.73,536.71,3161.72,611.72,3069.51,611.72z M1051.45,386.59
c-31.94,0-57.91,25.97-57.91,57.89c0,31.95,25.98,57.93,57.91,57.93h2018.06c31.94,0,57.91-25.97,57.91-57.93
c0-31.92-25.98-57.89-57.91-57.89H1051.45z"/>
</g>
<g>
<path class="st0" d="M3042.66,557.05l-14.15,112.56l-113.85,900.65c-55.48,439.47-429.18,768.96-872.19,768.96
c-445.9,0-821.22-333.82-873.16-776.67l-104.68-892.93l-13.19-112.56H3042.66z"/>
</g>
<g class="st1">
<path class="st2" d="M3028.51,669.61H1692.47c-202.99,0-360.52,177.12-336.83,378.72l48.29,410.98
c51.78,442.85,423.87,812.96,869.62,812.96c80.56,0,162.25-47.22,236.7-67.81c-136.04,85.71-296.84,134.75-467.77,134.75
c-445.9,0-821.22-333.82-873.16-776.67l-104.68-892.93l-13.19-112.56h1991.22L3028.51,669.61z"/>
</g>
<g class="st3">
<path class="st4" d="M3042.66,557.05l-128,1013.22c-55.48,439.47-429.18,768.96-872.19,768.96c-23.32,0-46.47-0.96-69.31-2.73
c411.81-32.64,749.66-350.07,802.24-766.22l128-1013.22H3042.66z"/>
</g>
<g>
<path class="st2" d="M2042.53,2393.94c-473.55,0-872.25-354.69-927.42-825.02L990.01,502.41H3104.7l-135.75,1074.73
C2910.14,2042.81,2511.86,2393.94,2042.53,2393.94z M1112.88,611.72l110.79,944.47c48.71,415.28,400.75,728.44,818.86,728.44
c414.39,0,766.04-310.03,817.97-721.15l120.23-951.76H1112.88z"/>
</g>
<g class="st5">
<path class="st4" d="M2564.59,1434.82c65.85,15.78,97.67,118.57,71.06,229.59s-101.56,188.22-167.41,172.43
c-65.85-15.78-50.75-107.33-24.15-218.34C2470.7,1507.48,2498.74,1419.03,2564.59,1434.82z"/>
</g>
<g class="st5">
<path class="st4" d="M2373.12,2046.75c-37.22,28.08-90.16,20.67-118.24-16.55c-28.08-37.22-15.1-82.78,22.12-110.86
c37.22-28.08,84.59-28.05,112.67,9.17C2417.75,1965.73,2410.34,2018.67,2373.12,2046.75z"/>
</g>
</g>
</g>
</svg>
