<svg xmlns="http://www.w3.org/2000/svg" viewBox="0 0 498.78 942.08"><defs><style>.cls-1{fill:#ed9f51;}.cls-2{opacity:0.3;}.cls-3{fill:#6b184e;}.cls-4{opacity:0.55;}.cls-5{fill:#fff;}.cls-6{fill:#e05000;}.cls-7{fill:#e81c35;}.cls-8{fill:#f9c710;}.cls-9{fill:#f89f1d;}.cls-10{fill:#cbccd0;}.cls-11{opacity:0.42;}</style></defs><title>Ativo 21.1x</title><g id="Camada_2" data-name="Camada 2"><g id="CUP2"><rect class="cls-1" x="17.45" y="466.89" width="463.89" height="463.89" rx="30.66"/><g class="cls-2"><path class="cls-3" d="M280.72,636.53a14.5,14.5,0,0,1-13.66,9.58H169.77a14.49,14.49,0,0,1-14.51-14.47V478.21a14.53,14.53,0,0,1,14.51-14.51h20.39a13.46,13.46,0,0,0-.9,4.94V622.06a14.49,14.49,0,0,0,14.51,14.47Z"/></g><g class="cls-2"><path class="cls-3" d="M479.1,906.31a37.27,37.27,0,0,1-35,24.47H54.71a37.23,37.23,0,0,1-37.24-37.24V504.13a37.21,37.21,0,0,1,23.15-34.47,37.84,37.84,0,0,0-2.94,14.77V871.24A38.55,38.55,0,0,0,76.2,909.8H463A39,39,0,0,0,479.1,906.31Z"/></g><g class="cls-4"><path class="cls-5" d="M481.35,508.39V897.8a37.32,37.32,0,0,1-25.53,35.36,36.85,36.85,0,0,0,4.25-17.28V526.47a37.24,37.24,0,0,0-37.23-37.23H33.43a36.73,36.73,0,0,0-11.71,1.87,37.17,37.17,0,0,1,33-20H444.12A37.25,37.25,0,0,1,481.35,508.39Z"/></g><path class="cls-3" d="M444.09,942.08H54.69A48.6,48.6,0,0,1,6.15,893.54V504.13a48.6,48.6,0,0,1,48.54-48.54h389.4a48.6,48.6,0,0,1,48.54,48.54V893.54A48.6,48.6,0,0,1,444.09,942.08ZM54.69,478.2a26,26,0,0,0-25.94,25.93V893.54a26,26,0,0,0,25.94,25.93h389.4A26,26,0,0,0,470,893.54V504.13a26,26,0,0,0-25.94-25.93Z"/><rect class="cls-6" x="83.23" y="534.18" width="330.84" height="330.84" rx="12.73"/><g class="cls-2"><path class="cls-3" d="M399,861.13v3.92a15.43,15.43,0,0,1-15.46,15.46H83.6a15.45,15.45,0,0,1-15.46-15.46V565.15A15.45,15.45,0,0,1,83.6,549.69h3.25v296a15.45,15.45,0,0,0,15.46,15.46Z"/></g><g class="cls-4"><path class="cls-5" d="M406.61,551.78v299.9a15.45,15.45,0,0,1-15.46,15.46h-1V565.62a10.45,10.45,0,0,0-10.42-10.43h-304v-3.41a15.45,15.45,0,0,1,15.46-15.46H391.15A15.46,15.46,0,0,1,406.61,551.78Z"/></g><path class="cls-3" d="M398.61,876.32H98.69a26.79,26.79,0,0,1-26.76-26.77V549.64a26.79,26.79,0,0,1,26.76-26.77H398.61a26.8,26.8,0,0,1,26.76,26.77V849.55A26.8,26.8,0,0,1,398.61,876.32ZM98.69,545.48a4.16,4.16,0,0,0-4.16,4.16V849.55a4.17,4.17,0,0,0,4.16,4.17H398.61a4.17,4.17,0,0,0,4.16-4.17V549.64a4.16,4.16,0,0,0-4.16-4.16Z"/><g class="cls-2"><path class="cls-3" d="M304.46,659.45a80.86,80.86,0,1,1-147.59-45.67v-81h19.79v60.86a80.86,80.86,0,0,1,127.8,65.84Z"/></g><path class="cls-7" d="M311.67,468.64V622.06a14.49,14.49,0,0,1-14.51,14.47H199.87a14.49,14.49,0,0,1-14.51-14.47V468.64a14.53,14.53,0,0,1,14.51-14.51h97.29A14.53,14.53,0,0,1,311.67,468.64Z"/><g class="cls-4"><path class="cls-5" d="M309.55,472V625.43A14.5,14.5,0,0,1,295,639.9h-3V478.13a5.09,5.09,0,0,0-5.11-5.1H183.23v-1a14.54,14.54,0,0,1,14.51-14.52H295A14.54,14.54,0,0,1,309.55,472Z"/></g><path class="cls-3" d="M297.18,647.85H199.87a25.82,25.82,0,0,1-25.79-25.79V468.62a25.83,25.83,0,0,1,25.79-25.8h97.31A25.83,25.83,0,0,1,323,468.62V622.06A25.82,25.82,0,0,1,297.18,647.85ZM199.87,465.43a3.2,3.2,0,0,0-3.2,3.19V622.06a3.2,3.2,0,0,0,3.2,3.19h97.31a3.19,3.19,0,0,0,3.19-3.19V468.62a3.19,3.19,0,0,0-3.19-3.19Z"/><g class="cls-2"><path class="cls-3" d="M311.67,543.5v78.56a14.49,14.49,0,0,1-14.51,14.47H199.87a14.49,14.49,0,0,1-14.51-14.47V474.68c2.13-.89,3.41-1.4,3.41-1.4Q216.91,571.26,311.67,543.5Z"/></g><circle class="cls-8" cx="248.71" cy="649.89" r="80.86"/><g class="cls-4"><path class="cls-5" d="M311.3,705.67A80.85,80.85,0,0,0,308.84,618c-13.66,9.4-30.18-8.13-21.07-21.07a80.68,80.68,0,0,0-102.4,9.24A80.84,80.84,0,1,1,311.3,705.67Z"/></g><circle class="cls-9" cx="248.71" cy="649.89" r="42.39"/><g class="cls-4"><path class="cls-5" d="M278.27,680.24a42.39,42.39,0,0,1-58.74,7.36c-8.89,5.75-19-6.47-11.95-14.13a42.23,42.23,0,0,1,8.12-50.13,42.36,42.36,0,0,0,62.57,56.9Z"/></g><g class="cls-2"><path class="cls-3" d="M291.12,649.89a42,42,0,0,1-14.34,31.71,42.35,42.35,0,0,0-62.27-56.77,42.41,42.41,0,0,1,76.61,25.06Z"/></g><path class="cls-3" d="M248.71,742.06a92.17,92.17,0,1,1,92.16-92.17A92.27,92.27,0,0,1,248.71,742.06Zm0-161.73a69.56,69.56,0,1,0,69.56,69.56A69.64,69.64,0,0,0,248.71,580.33Z"/><rect class="cls-3" x="226" y="629.32" width="15.76" height="46.83" rx="3.65"/><g class="cls-2"><path class="cls-3" d="M243,632.72v37.93a4.39,4.39,0,0,1-2.12,3.79,4.64,4.64,0,0,0,.92-2.73V633.78a4.44,4.44,0,0,0-4.43-4.48h-6.87a4.41,4.41,0,0,0-2.22.6,4.48,4.48,0,0,1,3.42-1.61h6.87A4.43,4.43,0,0,1,243,632.72Z"/></g><g class="cls-4"><path class="cls-5" d="M239,675.77a4.58,4.58,0,0,1-3.14,1.3H229a4.44,4.44,0,0,1-4.47-4.43V634.7a4.35,4.35,0,0,1,2.72-4.06,4.48,4.48,0,0,0-1.24,3.14v37.93a4.43,4.43,0,0,0,4.43,4.43h6.87A4.23,4.23,0,0,0,239,675.77Z"/></g><rect class="cls-3" x="255.78" y="629.32" width="15.76" height="46.83" rx="3.65"/><g class="cls-2"><path class="cls-3" d="M272.73,632.72v37.93a4.39,4.39,0,0,1-2.12,3.79,4.64,4.64,0,0,0,.92-2.73V633.78a4.44,4.44,0,0,0-4.43-4.48h-6.87a4.43,4.43,0,0,0-2.22.6,4.48,4.48,0,0,1,3.42-1.61h6.87A4.43,4.43,0,0,1,272.73,632.72Z"/></g><g class="cls-4"><path class="cls-5" d="M268.81,675.77a4.58,4.58,0,0,1-3.14,1.3H258.8a4.44,4.44,0,0,1-4.48-4.43V634.7a4.35,4.35,0,0,1,2.72-4.06,4.48,4.48,0,0,0-1.24,3.14v37.93a4.43,4.43,0,0,0,4.43,4.43h6.87A4.23,4.23,0,0,0,268.81,675.77Z"/></g><rect class="cls-10" x="224.47" y="269.75" width="51.59" height="108.86"/><g class="cls-2"><polygon class="cls-3" points="276.71 282.99 226.92 302.12 226.92 269.75 276.07 269.75 276.71 282.99"/></g><g class="cls-4"><path class="cls-5" d="M269.39,284.47a133.94,133.94,0,0,0,0,85.32Z"/></g><path class="cls-3" d="M276.07,386.11h-51.6a7.5,7.5,0,0,1-7.5-7.5V269.76a7.5,7.5,0,0,1,7.5-7.5h51.6a7.5,7.5,0,0,1,7.5,7.5V378.61A7.5,7.5,0,0,1,276.07,386.11Zm-44.1-15h36.6V277.26H232Z"/><rect class="cls-10" x="187.76" y="371.86" width="121.18" height="35.56" rx="17.78"/><g class="cls-2"><path class="cls-3" d="M230.07,407.43H205.53a17.79,17.79,0,1,1,0-35.58h24.54a17.79,17.79,0,1,0,0,35.58Z"/></g><g class="cls-4"><path class="cls-5" d="M308.93,389.64a17.79,17.79,0,0,1-17.78,17.79H274.42a17.79,17.79,0,0,0,0-35.58h16.73A17.79,17.79,0,0,1,308.93,389.64Z"/></g><path class="cls-3" d="M291.15,414.93H205.54a25.28,25.28,0,1,1,0-50.56h85.61a25.28,25.28,0,1,1,0,50.56Zm-85.61-35.56a10.28,10.28,0,1,0,0,20.56h85.61a10.28,10.28,0,1,0,0-20.56Z"/><path class="cls-10" d="M366.3,454.78a10.38,10.38,0,0,1-10.39,10.39H132.2a10.38,10.38,0,0,1-10.37-10.39,47.25,47.25,0,0,1,47.34-47.35H319A47.35,47.35,0,0,1,366.3,454.78Z"/><g class="cls-2"><path class="cls-3" d="M233.93,465.17H132.2a10.38,10.38,0,0,1-10.37-10.39,47.41,47.41,0,0,1,32.66-45C157,447.87,189.42,461.47,233.93,465.17Z"/></g><g class="cls-4"><path class="cls-5" d="M366.3,454.78a10.4,10.4,0,0,1-3,7.35,10.3,10.3,0,0,1-4.15,2.53,47.38,47.38,0,0,0-39.63-46.14c-3.51,12.21-32,12-34.62-.61H162a47.07,47.07,0,0,0-33.47,13.88c-.55.55-1.1,1.14-1.63,1.72a47.25,47.25,0,0,1,42.28-26.08H319A47.35,47.35,0,0,1,366.3,454.78Z"/></g><path class="cls-3" d="M355.92,472.67H132.22a17.91,17.91,0,0,1-17.89-17.89,54.9,54.9,0,0,1,54.85-54.85H319a54.9,54.9,0,0,1,54.85,54.85A17.91,17.91,0,0,1,355.92,472.67ZM169.18,414.93a39.89,39.89,0,0,0-39.85,39.85,2.89,2.89,0,0,0,2.89,2.89h223.7a2.89,2.89,0,0,0,2.88-2.89A39.89,39.89,0,0,0,319,414.93Z"/><path class="cls-10" d="M435.44,182l-3.14.35c-21.6,2.61-34.86,7.42-42.1,15.83a20.13,20.13,0,0,1,6.82,19v0a20.23,20.23,0,1,1-39.37-9.16h0c3.93-22.59,17.61-35.15,32.79-42.32h0c14.37-6.8,30.08-8.76,40.14-9.86a5,5,0,0,0,.6-.07l.66-.06a38.62,38.62,0,0,0-11.16-76.42c-1.06.15-2.12.33-3.16.57l0,.22c.07.49.09.95.14,1.44v.07a20.21,20.21,0,1,1-32.93-14.28v0a61.72,61.72,0,0,1,7.93-5.61l0,0A65.1,65.1,0,1,1,435.44,182Z"/><g class="cls-2"><path class="cls-3" d="M445,151.33A38.6,38.6,0,0,0,427.69,79a17.78,17.78,0,0,0-.2-2.72l0-.22c1-.24,2.1-.42,3.15-.57A38.61,38.61,0,0,1,445,151.33Z"/></g><g class="cls-4"><path class="cls-5" d="M397.15,210.75a20.25,20.25,0,0,1-13.63,22.09,20.14,20.14,0,0,0,4.81-16.2,20.36,20.36,0,0,0-1.43-5.1c-2.51-5.83-.38-12.71,5.33-15.49l.13-.06a23.88,23.88,0,0,0-2.16,2.23A20,20,0,0,1,397.15,210.75Z"/></g><g class="cls-2"><path class="cls-3" d="M417.7,81.62s-.33,3.13-.86,7.5a20.22,20.22,0,1,1-32.07-21.71v0a61.72,61.72,0,0,1,7.93-5.61C378.2,80.07,403.18,99.91,417.7,81.62Z"/></g><g class="cls-2"><path class="cls-3" d="M397,217.26v0a20.23,20.23,0,1,1-39.37-9.16h0c3.93-22.59,17.61-35.15,32.79-42.32h0C367.56,187.87,372.09,237,397,217.26Z"/></g><g class="cls-4"><path class="cls-5" d="M457.68,174.56A65.09,65.09,0,0,0,385.9,66.48a65.09,65.09,0,1,1,71.78,108.08Z"/></g><path class="cls-3" d="M377.05,241.37a27.76,27.76,0,0,1-26.79-34.67c8.89-50.49,60.18-56.1,79.5-58.22l1.43,7.39-.83-7.45.66-.08a31.12,31.12,0,0,0-6-61.84A27.72,27.72,0,1,1,379.58,62a5,5,0,0,1,.42-.37,72.62,72.62,0,0,1,118,45.67h0a72.68,72.68,0,0,1-61.52,82.19l-3.34.39c-15.28,1.83-25.85,4.78-32.5,9.14a27.72,27.72,0,0,1-19.6,42.09A28.83,28.83,0,0,1,377.05,241.37ZM365.1,208.89a7.31,7.31,0,0,1-.24,1.29,12.58,12.58,0,0,0-.35,5.26,12.73,12.73,0,0,0,22.8,5.82,12.7,12.7,0,0,0-1.94-17.3,7.5,7.5,0,0,1-.86-10.63c8.45-9.83,22.92-15.5,46.9-18.38l3.17-.37a57.61,57.61,0,0,0,48.6-65.17h0A57.58,57.58,0,0,0,390,72.84l-.45.39A12.55,12.55,0,0,0,385,84.87a12.74,12.74,0,0,0,14.4,10.8,12.73,12.73,0,0,0,10.79-14.42,7.71,7.71,0,0,1,5.74-8.6c1.22-.28,2.45-.51,3.71-.69A46.12,46.12,0,0,1,433,163.22l-.93.11a10.49,10.49,0,0,1-1.12.1C403.83,166.41,371.44,174.32,365.1,208.89Z"/><path class="cls-10" d="M63.34,182l3.13.35c21.61,2.61,34.87,7.42,42.11,15.83a20,20,0,0,0-7,12.53,20.22,20.22,0,0,0,.14,6.51v0a20.23,20.23,0,1,0,39.36-9.16h0c-3.92-22.59-17.6-35.15-32.79-42.32h0C94,159,78.26,157,68.19,155.94a4.56,4.56,0,0,1-.59-.07l-.66-.06A38.62,38.62,0,0,1,78.1,79.39c1.06.15,2.12.33,3.16.57l-.05.22c-.06.49-.09.95-.13,1.44v.07a19.82,19.82,0,0,0,.86,7.43A20.21,20.21,0,1,0,114,67.41v0a61.62,61.62,0,0,0-7.92-5.61l0,0A65.1,65.1,0,1,0,63.34,182Z"/><g class="cls-2"><path class="cls-3" d="M53.81,151.33A38.6,38.6,0,0,1,71.08,79a19.15,19.15,0,0,1,.2-2.72l0-.22c-1-.24-2.1-.42-3.16-.57a38.61,38.61,0,0,0-14.36,75.8Z"/></g><g class="cls-4"><path class="cls-5" d="M101.62,210.75a20.26,20.26,0,0,0,13.64,22.09,20.14,20.14,0,0,1-4.81-16.2,20.36,20.36,0,0,1,1.43-5.1c2.51-5.83.37-12.71-5.33-15.49l-.14-.06a25.34,25.34,0,0,1,2.17,2.23A20,20,0,0,0,101.62,210.75Z"/></g><g class="cls-2"><path class="cls-3" d="M81.08,81.62s.33,3.13.86,7.5A20.21,20.21,0,1,0,114,67.41v0a61.62,61.62,0,0,0-7.92-5.61C120.58,80.07,95.6,99.91,81.08,81.62Z"/></g><g class="cls-2"><path class="cls-3" d="M101.76,217.26v0a20.23,20.23,0,1,0,39.36-9.16h0c-3.92-22.59-17.6-35.15-32.79-42.32h0C131.21,187.87,126.69,237,101.76,217.26Z"/></g><g class="cls-4"><path class="cls-5" d="M41.1,174.56A65.09,65.09,0,0,1,112.88,66.48,65.09,65.09,0,1,0,41.1,174.56Z"/></g><path class="cls-3" d="M121.73,241.37a28.61,28.61,0,0,1-4-.29A27.71,27.71,0,0,1,98.11,199c-6.66-4.36-17.23-7.31-32.53-9.15l-3.1-.35A72.59,72.59,0,1,1,118.78,61.6c.15.12.28.25.42.37A27.72,27.72,0,1,1,79,99.69,27.46,27.46,0,0,1,73.71,86.5,31.12,31.12,0,0,0,68,148.38l.39,0,.6.06c19.32,2.12,70.61,7.73,79.5,58.22a27.74,27.74,0,0,1-26.79,34.67ZM72.51,60a57.7,57.7,0,0,0-56.92,49.41h0a57.66,57.66,0,0,0,48.81,65.2l2.93.34c24,2.88,38.48,8.55,46.94,18.38a7.5,7.5,0,0,1-.86,10.63,12.68,12.68,0,0,0-2,17.3,12.73,12.73,0,0,0,22.8-5.82,12.42,12.42,0,0,0-.34-5.26,8.28,8.28,0,0,1-.25-1.3c-6.34-34.56-38.73-42.47-66.28-45.49a5.67,5.67,0,0,1-.9-.1l-.39,0A46.11,46.11,0,1,1,79.16,72c1.28.18,2.51.41,3.74.69A7.49,7.49,0,0,1,88.67,81,12.79,12.79,0,0,0,91,90.7a12.72,12.72,0,1,0,18.24-17.47,4.28,4.28,0,0,1-.45-.4,57.4,57.4,0,0,0-28-12.23A58,58,0,0,0,72.51,60ZM8.17,108.34h0Z"/><path class="cls-10" d="M390.58,38.39H113.65A15.45,15.45,0,0,1,98.2,23h0A15.45,15.45,0,0,1,113.65,7.5H390.58A15.44,15.44,0,0,1,406,23h0A15.44,15.44,0,0,1,390.58,38.39Z"/><g class="cls-4"><rect class="cls-5" x="203.38" y="10.07" width="79.07" height="28.32"/></g><g class="cls-4"><rect class="cls-5" x="292.2" y="10.07" width="14.89" height="28.32"/></g><g class="cls-2"><path class="cls-3" d="M147.47,38.39H113.65a15.45,15.45,0,1,1,0-30.89h33.82a15.45,15.45,0,0,0,0,30.89Z"/></g><g class="cls-4"><path class="cls-5" d="M406,23a15.43,15.43,0,0,1-15.44,15.44H371.45a15.45,15.45,0,0,0,0-30.89h19.13A15.43,15.43,0,0,1,406,23Z"/></g><path class="cls-3" d="M390.58,45.89H113.65a22.95,22.95,0,1,1,0-45.89H390.58a22.95,22.95,0,0,1,0,45.89ZM113.65,15a7.95,7.95,0,1,0,0,15.89H390.58a7.95,7.95,0,0,0,0-15.89Z"/><path class="cls-10" d="M386.89,38.39,385,53.84,369.33,177.43a120.64,120.64,0,0,1-239.51-1.06L115.46,53.84l-1.81-15.45Z"/><g class="cls-2"><path class="cls-3" d="M385,53.84H201.61a46.54,46.54,0,0,0-46.22,52L162,162.2c7.1,60.77,58.16,111.56,119.33,111.56,11,0,22.26-6.48,32.48-9.3a120.65,120.65,0,0,1-184-88.09L115.46,53.84l-1.81-15.45H386.89Z"/></g><g class="cls-4"><path class="cls-5" d="M386.89,38.39l-17.56,139A120.63,120.63,0,0,1,249.64,283c-3.2,0-6.38-.13-9.51-.37A120.66,120.66,0,0,0,350.22,177.43l17.56-139Z"/></g><path class="cls-3" d="M249.65,290.46A128.16,128.16,0,0,1,122.38,177.25L105.22,30.89H395.41L376.78,178.37A128.37,128.37,0,0,1,249.65,290.46ZM122.08,45.89l15.2,129.61a113.14,113.14,0,0,0,224.61,1l16.5-130.61Z"/><g class="cls-11"><path class="cls-5" d="M321.29,158.84c9,2.17,13.4,16.27,9.75,31.51s-13.94,25.83-23,23.66-7-14.73-3.32-30S312.25,156.68,321.29,158.84Z"/></g><g class="cls-11"><path class="cls-5" d="M295,242.82a11.58,11.58,0,0,1-16.22-2.28c-3.85-5.1-2.07-11.35,3-15.21s11.61-3.85,15.46,1.26A11.58,11.58,0,0,1,295,242.82Z"/></g></g></g></svg>