<svg xmlns="http://www.w3.org/2000/svg" viewBox="0 0 405.93 736.13"><defs><style>.cls-1{fill:#47e247;}.cls-2{opacity:0.3;}.cls-3{fill:#6b184e;}.cls-4{opacity:0.55;}.cls-5{fill:#fff;}.cls-6{fill:#51b764;}.cls-7{fill:#e81c35;}.cls-8{fill:#f9c710;}.cls-9{fill:#f89f1d;}.cls-10{opacity:0.42;}</style></defs><title>Ativo 31.1x</title><g id="Camada_2" data-name="Camada 2"><g id="Camada_3" data-name="Camada 3"><rect class="cls-1" x="14.66" y="344.85" width="381.97" height="381.97" rx="30.66"/><g class="cls-2"><path class="cls-3" d="M394.79,706.67A30.7,30.7,0,0,1,366,726.82H45.34a30.66,30.66,0,0,1-30.67-30.66V375.51a30.65,30.65,0,0,1,19.07-28.38,31.19,31.19,0,0,0-2.42,12.16v318.5A31.73,31.73,0,0,0,63,709.54H381.54A32.15,32.15,0,0,0,394.79,706.67Z"/></g><g class="cls-4"><path class="cls-5" d="M396.64,379V699.66a30.73,30.73,0,0,1-21,29.12,30.33,30.33,0,0,0,3.5-14.23V393.91a30.68,30.68,0,0,0-30.66-30.66H27.82a30.23,30.23,0,0,0-9.64,1.54,30.59,30.59,0,0,1,27.16-16.43H366A30.66,30.66,0,0,1,396.64,379Z"/></g><path class="cls-3" d="M366,736.13H45.32a40,40,0,0,1-40-40V375.52a40,40,0,0,1,40-40H366a40,40,0,0,1,40,40V696.16A40,40,0,0,1,366,736.13Zm-320.64-382A21.38,21.38,0,0,0,24,375.52V696.16a21.38,21.38,0,0,0,21.36,21.35H366a21.38,21.38,0,0,0,21.36-21.35V375.52A21.38,21.38,0,0,0,366,354.16Z"/><rect class="cls-6" x="68.82" y="400.25" width="272.42" height="272.42" rx="12.73"/><g class="cls-2"><path class="cls-3" d="M328.8,669.47v3.23a12.71,12.71,0,0,1-12.73,12.73H69.12A12.73,12.73,0,0,1,56.39,672.7v-247A12.73,12.73,0,0,1,69.12,413H71.8V656.74a12.73,12.73,0,0,0,12.73,12.73Z"/></g><g class="cls-4"><path class="cls-5" d="M335.1,414.75V661.69a12.72,12.72,0,0,1-12.73,12.73h-.83V426.14a8.61,8.61,0,0,0-8.59-8.58H62.66v-2.81A12.72,12.72,0,0,1,75.39,402h247A12.72,12.72,0,0,1,335.1,414.75Z"/></g><path class="cls-3" d="M328.51,682h-247a22.06,22.06,0,0,1-22-22V413a22.06,22.06,0,0,1,22-22.05h247a22.06,22.06,0,0,1,22,22.05v247A22.06,22.06,0,0,1,328.51,682Zm-247-272.42A3.43,3.43,0,0,0,78.13,413v247a3.43,3.43,0,0,0,3.42,3.43h247a3.43,3.43,0,0,0,3.42-3.43V413a3.43,3.43,0,0,0-3.42-3.43Z"/><g class="cls-2"><path class="cls-3" d="M248,503.41A66.59,66.59,0,1,1,125.1,467.87V354.16a12,12,0,0,1,11.94-12h16.79a11.45,11.45,0,0,0-.71,4.06v96.81A66.66,66.66,0,0,1,248,503.41Z"/></g><path class="cls-7" d="M253.37,346.29V472.62a11.93,11.93,0,0,1-11.94,11.91H161.32a11.93,11.93,0,0,1-11.95-11.91V346.29a12,12,0,0,1,11.95-12h80.11A12,12,0,0,1,253.37,346.29Z"/><g class="cls-4"><path class="cls-5" d="M251.62,349.06V475.39a11.94,11.94,0,0,1-12,11.92h-2.49V354.11a4.2,4.2,0,0,0-4.2-4.21H147.61v-.84a12,12,0,0,1,11.95-11.95h80.11A12,12,0,0,1,251.62,349.06Z"/></g><path class="cls-3" d="M241.44,493.86H161.31a21.27,21.27,0,0,1-21.24-21.25V346.27A21.27,21.27,0,0,1,161.31,325h80.13a21.27,21.27,0,0,1,21.24,21.24V472.61A21.27,21.27,0,0,1,241.44,493.86ZM161.31,343.65a2.62,2.62,0,0,0-2.63,2.62V472.61a2.63,2.63,0,0,0,2.63,2.63h80.13a2.63,2.63,0,0,0,2.63-2.63V346.27a2.62,2.62,0,0,0-2.63-2.62Z"/><g class="cls-2"><path class="cls-3" d="M253.37,407.93v64.69a11.93,11.93,0,0,1-11.94,11.91H161.32a11.93,11.93,0,0,1-11.95-11.91V351.26c1.75-.73,2.8-1.15,2.8-1.15Q175.35,430.79,253.37,407.93Z"/></g><circle class="cls-8" cx="201.53" cy="495.54" r="66.58"/><g class="cls-4"><path class="cls-5" d="M253.07,541.46a66.56,66.56,0,0,0-2-72.15c-11.25,7.74-24.85-6.7-17.35-17.35a66.45,66.45,0,0,0-84.31,7.6,66.56,66.56,0,1,1,103.69,81.9Z"/></g><circle class="cls-9" cx="201.53" cy="495.54" r="34.91"/><g class="cls-4"><path class="cls-5" d="M225.87,520.52a34.9,34.9,0,0,1-48.36,6.06c-7.33,4.73-15.63-5.32-9.85-11.63a34.78,34.78,0,0,1,6.69-41.28,34.88,34.88,0,0,0,51.52,46.85Z"/></g><g class="cls-2"><path class="cls-3" d="M236.45,495.54a34.58,34.58,0,0,1-11.81,26.1,34.53,34.53,0,0,0,6.83-20.71,34.87,34.87,0,0,0-58.1-26,34.92,34.92,0,0,1,63.08,20.64Z"/></g><path class="cls-3" d="M201.53,571.42a75.89,75.89,0,1,1,75.89-75.89A76,76,0,0,1,201.53,571.42Zm0-133.16a57.28,57.28,0,1,0,57.28,57.27A57.34,57.34,0,0,0,201.53,438.26Z"/><rect class="cls-3" x="177.4" y="480.79" width="10.83" height="32.16" rx="3.05"/><g class="cls-2"><path class="cls-3" d="M189,483.12v26.05a3,3,0,0,1-1.45,2.6,3.14,3.14,0,0,0,.63-1.87v-26a3,3,0,0,0-3-3.07h-4.73a3.08,3.08,0,0,0-1.52.41,3.07,3.07,0,0,1,2.35-1.11H186A3,3,0,0,1,189,483.12Z"/></g><g class="cls-4"><path class="cls-5" d="M186.35,512.69a3.15,3.15,0,0,1-2.16.89h-4.72a3,3,0,0,1-3.07-3V484.48a3,3,0,0,1,1.87-2.78,3.07,3.07,0,0,0-.86,2.15v26a3,3,0,0,0,3,3.05h4.73A2.86,2.86,0,0,0,186.35,512.69Z"/></g><rect class="cls-3" x="196.02" y="480.79" width="10.83" height="32.16" rx="3.05"/><g class="cls-2"><path class="cls-3" d="M207.66,483.12v26.05a3,3,0,0,1-1.46,2.6,3.14,3.14,0,0,0,.63-1.87v-26a3,3,0,0,0-3-3.07h-4.72a3.05,3.05,0,0,0-1.52.41,3.05,3.05,0,0,1,2.34-1.11h4.73A3,3,0,0,1,207.66,483.12Z"/></g><g class="cls-4"><path class="cls-5" d="M205,512.69a3.15,3.15,0,0,1-2.15.89h-4.72a3.05,3.05,0,0,1-3.08-3V484.48a3,3,0,0,1,1.87-2.78,3.06,3.06,0,0,0-.85,2.15v26a3,3,0,0,0,3,3.05h4.72A2.82,2.82,0,0,0,205,512.69Z"/></g><rect class="cls-3" x="214.97" y="480.79" width="10.83" height="32.16" rx="3.05"/><g class="cls-2"><path class="cls-3" d="M226.61,483.12v26.05a3,3,0,0,1-1.46,2.6,3.14,3.14,0,0,0,.63-1.87v-26a3,3,0,0,0-3-3.07H218a3.05,3.05,0,0,0-1.52.41,3.05,3.05,0,0,1,2.34-1.11h4.72A3,3,0,0,1,226.61,483.12Z"/></g><g class="cls-4"><path class="cls-5" d="M223.91,512.69a3.15,3.15,0,0,1-2.15.89H217a3,3,0,0,1-3.08-3V484.48a3,3,0,0,1,1.87-2.78,3.06,3.06,0,0,0-.85,2.15v26a3,3,0,0,0,3,3.05h4.72A2.86,2.86,0,0,0,223.91,512.69Z"/></g><rect class="cls-9" x="182.14" y="185.46" width="41.86" height="88.33"/><g class="cls-2"><polygon class="cls-3" points="224.52 229.62 184.12 245.13 184.12 218.87 224 218.87 224.52 229.62"/></g><g class="cls-4"><path class="cls-5" d="M218.58,197.4a108.63,108.63,0,0,0,0,69.23Z"/></g><path class="cls-3" d="M224,279.87H182.14a6.08,6.08,0,0,1-6.09-6.08V185.46a6.08,6.08,0,0,1,6.09-6.08H224a6.08,6.08,0,0,1,6.08,6.08v88.33A6.08,6.08,0,0,1,224,279.87ZM188.22,267.7h29.69V191.55H188.22Z"/><rect class="cls-9" x="152.34" y="268.31" width="98.32" height="28.86" rx="14.43"/><g class="cls-2"><path class="cls-3" d="M186.68,297.16H166.77a14.43,14.43,0,1,1,0-28.86h19.91a14.43,14.43,0,1,0,0,28.86Z"/></g><g class="cls-4"><path class="cls-5" d="M250.66,282.73a14.41,14.41,0,0,1-14.43,14.43H222.66a14.43,14.43,0,0,0,0-28.86h13.57A14.44,14.44,0,0,1,250.66,282.73Z"/></g><path class="cls-3" d="M236.24,303.25H166.77a20.51,20.51,0,0,1,0-41h69.47a20.51,20.51,0,0,1,0,41ZM166.77,274.4a8.34,8.34,0,0,0,0,16.68h69.47a8.34,8.34,0,1,0,0-16.68Z"/><path class="cls-9" d="M297.21,335.58a8.43,8.43,0,0,1-8.43,8.44H107.27a8.42,8.42,0,0,1-8.41-8.44A38.46,38.46,0,0,1,125.35,299a38.76,38.76,0,0,1,11.91-1.88H258.79A38.42,38.42,0,0,1,297.21,335.58Z"/><g class="cls-2"><path class="cls-3" d="M189.81,344H107.27a8.42,8.42,0,0,1-8.41-8.44A38.46,38.46,0,0,1,125.35,299C127.4,330,153.7,341,189.81,344Z"/></g><g class="cls-4"><path class="cls-5" d="M297.21,335.58a8.44,8.44,0,0,1-5.83,8,38.44,38.44,0,0,0-32.16-37.44c-2.85,9.9-25.92,9.74-28.09-.5H131.44a38.19,38.19,0,0,0-27.16,11.26c-.45.45-.89.93-1.32,1.4a38.34,38.34,0,0,1,34.3-21.17H258.79A38.42,38.42,0,0,1,297.21,335.58Z"/></g><path class="cls-3" d="M288.78,350.1H107.28a14.54,14.54,0,0,1-14.51-14.52,44.55,44.55,0,0,1,44.5-44.5H258.79a44.56,44.56,0,0,1,44.51,44.5A14.54,14.54,0,0,1,288.78,350.1ZM137.27,303.25a32.36,32.36,0,0,0-32.33,32.33,2.35,2.35,0,0,0,2.34,2.35h181.5a2.35,2.35,0,0,0,2.35-2.35,32.37,32.37,0,0,0-32.34-32.33Z"/><path class="cls-9" d="M353.31,147.71l-2.55.28c-17.52,2.11-28.28,6-34.16,12.84a16.37,16.37,0,0,1,5.54,15.45v0a16.42,16.42,0,1,1-31.95-7.43h0c3.18-18.34,14.28-28.52,26.6-34.34h0c11.66-5.52,24.4-7.11,32.57-8a3.14,3.14,0,0,0,.48-.06l.54,0a31.33,31.33,0,0,0-9.06-62c-.86.12-1.72.27-2.56.46l0,.18c.06.4.08.77.11,1.17h0v0a16.18,16.18,0,0,1-.7,6,16.4,16.4,0,1,1-26-17.61v0a48.82,48.82,0,0,1,6.43-4.55v0a52.82,52.82,0,1,1,34.67,97.6Z"/><g class="cls-2"><path class="cls-3" d="M361,122.78a31.32,31.32,0,0,0-14-58.65,14.8,14.8,0,0,0-.16-2.2l0-.18c.85-.2,1.71-.34,2.56-.47A31.33,31.33,0,0,1,361,122.78Z"/></g><g class="cls-4"><path class="cls-5" d="M322.24,171a16.43,16.43,0,0,1-11.06,17.92,16.42,16.42,0,0,0,2.74-17.28,9.63,9.63,0,0,1,4.33-12.57l.11,0a20,20,0,0,0-1.76,1.81A16.23,16.23,0,0,1,322.24,171Z"/></g><g class="cls-2"><path class="cls-3" d="M338.91,66.23s-.27,2.54-.7,6.08a16.4,16.4,0,1,1-26-17.61v0a48.82,48.82,0,0,1,6.43-4.55C306.86,65,327.13,81.07,338.91,66.23Z"/></g><g class="cls-2"><path class="cls-3" d="M322.14,176.28v0a16.42,16.42,0,1,1-31.95-7.43h0c3.18-18.34,14.28-28.52,26.6-34.34h0C298.23,152.43,301.9,192.29,322.14,176.28Z"/></g><g class="cls-4"><path class="cls-5" d="M371.35,141.64a52.82,52.82,0,0,0-58.24-87.7,52.81,52.81,0,1,1,58.24,87.7Z"/></g><path class="cls-3" d="M306,195.84a22.51,22.51,0,0,1-21.78-28.12c7.21-41,48.83-45.53,64.51-47.24l.53-.06.54-.06a25.25,25.25,0,0,0-4.89-50.17,22.49,22.49,0,0,1-44.58.41A22.55,22.55,0,0,1,308,50.25l.3-.26a58.89,58.89,0,1,1,45.86,103.73l-2.71.32c-12.4,1.49-21,3.88-26.37,7.41a22.51,22.51,0,0,1-15.91,34.16A21.89,21.89,0,0,1,306,195.84Zm-9.73-26.36a6.09,6.09,0,0,1-.2,1.05,10.1,10.1,0,0,0-.28,4.28,10.33,10.33,0,0,0,20.45-2.94,10.17,10.17,0,0,0-3.52-6.38,6.07,6.07,0,0,1-.71-8.62c6.86-8,18.6-12.58,38.06-14.92l2.56-.3a46.73,46.73,0,1,0-36.23-82.52c-.11.1-.22.2-.34.29a10.18,10.18,0,0,0-3.69,9.45,10.33,10.33,0,1,0,20.44-2.94,6.25,6.25,0,0,1,4.63-7c1-.24,2-.43,3.07-.58a37.42,37.42,0,0,1,10.81,74.05l-.8.1c-.1,0-.46.06-.86.08C327.66,135,301.38,141.43,296.24,169.48Z"/><path class="cls-9" d="M51.4,147.71l2.54.28c17.53,2.11,28.29,6,34.16,12.84A16.27,16.27,0,0,0,82.46,171a16.06,16.06,0,0,0,.11,5.28v0a16.42,16.42,0,1,0,31.94-7.43h0c-3.19-18.34-14.29-28.52-26.61-34.34h0c-11.65-5.52-24.4-7.11-32.56-8a3.46,3.46,0,0,1-.49-.06l-.53,0a31.33,31.33,0,0,1,9-62c.86.12,1.72.27,2.56.46l0,.18c-.05.4-.07.77-.11,1.17h0v0a16.18,16.18,0,0,0,.7,6,16.4,16.4,0,1,0,26-17.61v0a49.39,49.39,0,0,0-6.42-4.55l0,0a52.82,52.82,0,1,0-34.66,97.6Z"/><g class="cls-2"><path class="cls-3" d="M43.66,122.78a31.32,31.32,0,0,1,14-58.65,14.8,14.8,0,0,1,.16-2.2l0-.18c-.84-.2-1.7-.34-2.56-.47a31.33,31.33,0,0,0-11.66,61.5Z"/></g><g class="cls-4"><path class="cls-5" d="M82.46,171a16.43,16.43,0,0,0,11.06,17.92,16.35,16.35,0,0,1-3.9-13.14,16.58,16.58,0,0,1,1.16-4.14,9.63,9.63,0,0,0-4.32-12.57l-.12,0a20,20,0,0,1,1.76,1.81A16.27,16.27,0,0,0,82.46,171Z"/></g><g class="cls-2"><path class="cls-3" d="M65.79,66.23s.27,2.54.7,6.08a16.4,16.4,0,1,0,26-17.61v0a49.39,49.39,0,0,0-6.42-4.55C97.84,65,77.57,81.07,65.79,66.23Z"/></g><g class="cls-2"><path class="cls-3" d="M82.57,176.28v0a16.42,16.42,0,1,0,31.94-7.43h0c-3.19-18.34-14.29-28.52-26.61-34.34h0C106.47,152.43,102.8,192.29,82.57,176.28Z"/></g><g class="cls-4"><path class="cls-5" d="M33.35,141.64a52.82,52.82,0,0,1,58.24-87.7,52.81,52.81,0,1,0-58.24,87.7Z"/></g><path class="cls-3" d="M98.73,195.84a22,22,0,0,1-3.22-.23A22.51,22.51,0,0,1,79.6,161.45c-5.39-3.53-14-5.92-26.39-7.41l-2.52-.3A58.9,58.9,0,1,1,96.38,50a3.65,3.65,0,0,1,.3.27A22.49,22.49,0,1,1,59.81,70.19,25.25,25.25,0,0,0,55.2,120.4l.27,0,.53.06c15.68,1.71,57.3,6.26,64.51,47.24a22.18,22.18,0,0,1,.48,8.82A22.54,22.54,0,0,1,98.73,195.84ZM58.84,48.68a46.74,46.74,0,0,0-6.58,93l2.38.27c19.49,2.34,31.22,6.94,38.08,14.92a6.08,6.08,0,0,1-.7,8.62,10.18,10.18,0,0,0-3.53,6.38,10.33,10.33,0,0,0,20.45,2.94,10.1,10.1,0,0,0-.28-4.28,7.48,7.48,0,0,1-.2-1.05c-5.15-28-31.42-34.46-53.78-36.9,0,0-.36,0-.72-.09l-.28,0a37.54,37.54,0,0,1-31.8-42.38,37.44,37.44,0,0,1,42.36-31.7c1,.14,2.05.34,3.06.57A6.09,6.09,0,0,1,72,65.69a10.32,10.32,0,0,0,8.72,11.94,10.32,10.32,0,0,0,8-18.21l-.34-.29A47,47,0,0,0,58.84,48.68Z"/><rect class="cls-9" x="79.68" y="6.09" width="249.76" height="25.07" rx="12.53"/><g class="cls-4"><rect class="cls-5" x="165.02" y="8.18" width="64.16" height="22.98"/></g><g class="cls-4"><rect class="cls-5" x="237.09" y="8.18" width="12.08" height="22.98"/></g><g class="cls-2"><path class="cls-3" d="M119.66,31.15H92.21a12.53,12.53,0,0,1,0-25.06h27.45a12.53,12.53,0,0,0,0,25.06Z"/></g><g class="cls-4"><path class="cls-5" d="M329.44,18.62a12.53,12.53,0,0,1-12.53,12.53H301.38a12.53,12.53,0,1,0,0-25.06h15.53A12.52,12.52,0,0,1,329.44,18.62Z"/></g><path class="cls-3" d="M316.91,37.24H92.22A18.62,18.62,0,0,1,92.22,0H316.91a18.62,18.62,0,0,1,0,37.24ZM92.22,12.17a6.45,6.45,0,0,0,0,12.9H316.91a6.45,6.45,0,0,0,0-12.9Z"/><path class="cls-9" d="M313.92,31.15l-1.58,12.53L299.67,144a97.88,97.88,0,0,1-194.33-.86L93.68,43.68,92.21,31.15Z"/><g class="cls-2"><path class="cls-3" d="M312.34,43.68H163.59a37.77,37.77,0,0,0-37.51,42.17l5.38,45.76c5.76,49.31,47.19,90.52,96.82,90.52,9,0,18.07-5.26,26.36-7.55a97.89,97.89,0,0,1-149.3-71.48L93.68,43.68,92.21,31.15H313.92Z"/></g><g class="cls-4"><path class="cls-5" d="M313.92,31.15,299.67,144a97.88,97.88,0,0,1-97.11,85.62c-2.6,0-5.18-.11-7.72-.3A97.9,97.9,0,0,0,284.16,144L298.41,31.15Z"/></g><path class="cls-3" d="M202.56,235.67A104,104,0,0,1,99.3,143.82L85.38,25.07H320.83L305.71,144.73A104.15,104.15,0,0,1,202.56,235.67ZM99.06,37.24,111.39,142.4a91.8,91.8,0,0,0,182.25.81L307,37.24Z"/><g class="cls-10"><path class="cls-5" d="M260.69,128.88c7.33,1.76,10.87,13.2,7.91,25.56s-11.31,21-18.64,19.2-5.65-11.95-2.69-24.31S253.36,127.13,260.69,128.88Z"/></g><g class="cls-10"><path class="cls-5" d="M239.37,197a9.4,9.4,0,0,1-13.16-1.85c-3.13-4.14-1.69-9.21,2.46-12.34s9.42-3.12,12.54,1A9.41,9.41,0,0,1,239.37,197Z"/></g></g></g></svg>