<?xml version="1.0" encoding="utf-8"?>
<svg version="1.1" id="Layer_1" xmlns="http://www.w3.org/2000/svg" xmlns:xlink="http://www.w3.org/1999/xlink" x="0px" y="0px"
viewBox="0 0 4000 4000" style="enable-background:new 0 0 4000 4000;" xml:space="preserve">
<style type="text/css">
.st0{fill:#F89F1D;}
.st1{opacity:0.3;}
.st2{fill:#6B184E;}
.st3{opacity:0.55;}
.st4{fill:#FFFFFF;}
.st5{opacity:0.42;}
</style>
<g>
<g>
<rect x="1819.59" y="2131.84" class="st0" width="372.85" height="786.72"/>
</g>
<g class="st1">
<polygon class="st2" points="2197.09,2525.12 1837.27,2663.33 1837.27,2429.44 2192.44,2429.44 		"/>
</g>
<g class="st3">
<path class="st4" d="M2144.2,2238.16c-67.21,205.54-67.21,411.08,0,616.62V2238.16z"/>
</g>
<g>
<path class="st2" d="M2192.43,2972.76h-372.85c-29.94,0-54.2-24.28-54.2-54.2v-786.7c0-29.92,24.26-54.2,54.2-54.2h372.85
c29.94,0,54.2,24.28,54.2,54.2v786.7C2246.64,2948.48,2222.38,2972.76,2192.43,2972.76z M1873.79,2864.35h264.45v-678.3h-264.45
V2864.35z"/>
</g>
<g>
<path class="st0" d="M2412.18,3126.81h-840.17c-9.82,0-17.78-7.96-17.78-17.78v-221.46c0-9.82,7.96-17.78,17.78-17.78h840.17
c9.82,0,17.78,7.96,17.78,17.78v221.46C2429.97,3118.84,2422,3126.81,2412.18,3126.81z"/>
</g>
<g class="st1">
<path class="st2" d="M1860.02,3126.77h-177.33c-70.96,0-128.53-57.57-128.53-128.53c0-35.56,14.35-67.61,37.63-90.9
c23.28-23.28,55.49-37.64,90.9-37.64h177.33c-35.4,0-67.61,14.35-90.9,37.64c-23.28,23.28-37.63,55.34-37.63,90.9
C1731.49,3069.21,1789.06,3126.77,1860.02,3126.77z"/>
</g>
<g class="st3">
<path class="st4" d="M2429.97,2998.24c0,35.56-14.35,67.62-37.63,90.9c-23.28,23.28-55.5,37.64-90.9,37.64h-120.88
c35.4,0,67.62-14.35,90.9-37.64c23.28-23.28,37.63-55.34,37.63-90.9c0-70.96-57.57-128.53-128.53-128.53h120.88
C2372.4,2869.71,2429.97,2927.28,2429.97,2998.24z"/>
</g>
<g>
<path class="st2" d="M2301.45,3181.02h-618.72c-100.75,0-182.72-81.97-182.72-182.72c0-100.75,81.97-182.72,182.72-182.72h618.72
c100.75,0,182.72,81.97,182.72,182.72C2484.17,3099.05,2402.2,3181.02,2301.45,3181.02z M1682.74,2923.99
c-40.99,0-74.32,33.35-74.32,74.32c0,40.97,33.33,74.32,74.32,74.32h618.72c40.99,0,74.32-33.35,74.32-74.32
c0-40.97-33.33-74.32-74.32-74.32H1682.74z"/>
</g>
<g>
<path class="st0" d="M2844.59,3469c0,20.73-8.45,39.55-22.01,53.1c-13.55,13.55-32.37,22.01-53.1,22.01h-1616.7
c-41.46,0-74.95-33.65-74.95-75.11c0-94.57,38.27-180.04,100.15-241.92c37.63-37.79,84.04-66.66,135.87-83.56
c33.33-10.84,69.05-16.74,106.05-16.74h1082.48C2691.34,3126.77,2844.59,3280.02,2844.59,3469z"/>
</g>
<g class="st1">
<path class="st2" d="M1887.93,3544.11h-735.16c-41.46,0-74.95-33.65-74.95-75.11c0-94.57,38.27-180.04,100.15-241.92
c37.63-37.79,84.04-66.66,135.87-83.56C1332.02,3419.08,1566.28,3517.32,1887.93,3544.11z"/>
</g>
<g class="st3">
<path class="st4" d="M2844.59,3469c0,20.73-8.45,39.55-22.01,53.1c-8.29,8.29-18.5,14.67-29.98,18.34
c-2.07-168.08-125.18-306.98-286.41-333.45c-25.36,88.19-230.91,86.75-250.21-4.46h-887.93c-94.57,0-180.04,38.27-241.91,100.31
c-3.99,3.99-7.97,8.29-11.8,12.44c16.43-32.85,37.95-62.51,63.63-88.19c61.87-62.03,147.51-100.31,241.91-100.31h1082.48
C2691.34,3126.77,2844.59,3280.02,2844.59,3469z"/>
</g>
<g>
<path class="st2" d="M2769.51,3598.26H1152.84c-71.28,0-129.28-58.01-129.28-129.29c0-218.57,177.83-396.39,396.4-396.39h1082.41
c218.57,0,396.4,177.81,396.4,396.39C2898.79,3540.25,2840.79,3598.26,2769.51,3598.26z M1419.97,3180.99
c-158.81,0-288,129.19-288,287.98c0,11.5,9.37,20.89,20.87,20.89h1616.67c11.5,0,20.87-9.39,20.87-20.89
c0-158.79-129.19-287.98-288-287.98H1419.97z"/>
</g>
<g>
<g>
<path class="st0" d="M3344.21,1795.55l-22.65,2.55c-156.12,18.82-251.96,53.58-304.27,114.34
c26.31,22.17,44.97,53.74,50.23,90.58c2.23,16.11,1.91,32.05-0.96,47.04c0,0,0,0,0,0.16c-11,60.28-59.32,109.08-122.95,118.33
c-80.05,11.48-154.05-43.85-165.69-123.91c-2.87-21.05-1.44-41.46,4.15-60.6h-0.16c28.39-163.3,127.26-254.04,236.97-305.86h0.16
c103.82-49.12,217.36-63.31,290.08-71.28c1.59,0,3.03-0.32,4.31-0.48l4.78-0.48c151.66-22.49,257.07-163.93,235.22-315.75
c-21.85-152.45-163.62-258.5-315.91-236.49c-7.66,1.12-15.31,2.39-22.8,4.15l0.32,1.6c0.48,3.51,0.64,6.86,0.96,10.36
c0,0,0,0,0,0.16c0,0,0,0.16,0,0.32c1.28,18.66-0.8,36.68-6.22,53.74c-16.27,51.99-60.92,92.65-118.65,100.94
c-79.9,11.48-153.89-43.85-165.37-123.91c-7.65-52.78,13.87-102.86,52.31-133.96v-0.16c18.02-14.99,37.16-28.55,57.25-40.51
l0.16-0.16c53.26-31.89,112.59-53.1,174.78-62.03c256.91-37,495.79,141.77,532.63,398.67
C3779.88,1519.67,3601.11,1758.55,3344.21,1795.55z"/>
</g>
<g class="st1">
<path class="st2" d="M3413.1,1573.57c97.91-54.7,157.24-165.85,140.33-283.38c-19.46-135.23-133.32-234.1-265.2-239.05
c0-6.54-0.48-13.08-1.44-19.61l-0.32-1.59c7.49-1.75,15.15-3.03,22.8-4.15c152.29-22.01,294.06,84.04,315.91,236.49
C3645.92,1406.28,3552.15,1540.88,3413.1,1573.57z"/>
</g>
<g class="st3">
<path class="st4" d="M3067.52,2003.02c10.21,71.28-32.69,137.78-98.55,159.63c27.11-30.94,41.14-73.04,34.76-117.05
c-1.86-13.01-5.39-25.37-10.34-36.89c-18.1-42.11-2.68-91.81,38.52-111.89c0.33-0.16,0.66-0.32,1-0.48
c-5.58,5.1-10.84,10.52-15.63,16.11C3043.6,1934.61,3062.26,1966.18,3067.52,2003.02z"/>
</g>
<g class="st1">
<path class="st2" d="M3215.99,1069.8c0,0-2.39,22.65-6.22,54.22c-16.27,51.99-60.92,92.65-118.65,100.94
c-79.9,11.48-153.89-43.85-165.37-123.91c-7.65-52.78,13.87-102.86,52.31-133.96v-0.16c18.02-14.99,37.16-28.55,57.25-40.51
C2930.54,1058.64,3111.06,1202,3215.99,1069.8z"/>
</g>
<g class="st1">
<path class="st2" d="M3066.57,2050.06c0,0,0,0,0,0.16c-11,60.28-59.32,109.08-122.95,118.33
c-80.05,11.48-154.05-43.85-165.69-123.91c-2.87-21.05-1.44-41.46,4.15-60.6h-0.16c28.39-163.3,127.26-254.04,236.97-305.86h0.16
C2853.68,1837.65,2886.37,2192.63,3066.57,2050.06z"/>
</g>
<g class="st3">
<path class="st4" d="M3504.95,1741.49c127.1-100.63,198.86-264.24,174.14-435.99c-36.84-256.91-275.72-435.67-532.63-398.83
c-56.61,8.29-110.83,26.47-160.27,53.74c64.59-51.19,141.93-84.36,224.06-96.16c256.91-37,495.79,141.77,532.63,398.67
C3771.58,1461.62,3670.96,1649.47,3504.95,1741.49z"/>
</g>
<g>
<path class="st2" d="M2922.62,2224.31c-98.01,0-183.94-72.16-198.28-171.92c-3.81-26.61-2.38-52.97,4.25-78.55
c64.24-365.05,434.96-405.56,574.57-420.8c0.11,0,4.66-0.53,4.75-0.53l4.76-0.49c119.73-17.79,204.76-131.94,187.17-254.14
c-8.52-59.35-39.73-111.9-87.88-147.93c-41.69-31.19-91.82-46.51-142.81-44.82c-4.2,34.55-17.26,67.08-38.38,95.28
c-32.06,42.84-78.94,70.61-131.98,78.23c-53.05,7.76-105.72-5.79-148.53-37.9c-42.82-32.08-70.61-78.94-78.23-131.94
c-9.79-68.07,16.53-137.13,68.81-181.27c0.86-0.81,1.76-1.62,2.68-2.36c74-61.26,163.59-100.89,259.06-114.58
c138.61-19.94,276.66,15.39,388.96,99.41c112.29,84.05,185.1,206.64,205.02,345.18c19.92,138.54-15.4,276.69-99.46,388.98
c-84.05,112.29-206.63,185.08-345.17,204.99l-24.1,2.86c-110.49,13.23-186.83,34.55-234.87,66.02
c14.5,23.29,24.17,49.58,28.16,77.31c15.74,109.36-60.45,211.16-169.84,226.9C2941.66,2223.63,2932.1,2224.31,2922.62,2224.31z
M2835.9,1989.54c-0.32,3.14-0.9,6.28-1.78,9.35c-3.51,12.28-4.34,25.05-2.47,38.07c3.49,24.35,16.25,45.87,35.9,60.59
c19.67,14.75,43.95,20.86,68.3,17.4c50.21-7.23,85.2-53.99,77.97-104.2c-3.19-22.3-14.34-42.45-31.41-56.74
c-11.1-9.32-18.01-22.69-19.2-37.12c-1.18-14.43,3.48-28.76,12.92-39.73c61.07-71.07,165.6-112.04,338.97-132.82l22.85-2.68
c108.44-15.6,205.67-73.36,272.39-162.46c66.69-89.1,94.73-198.7,78.92-308.56c-15.79-109.89-73.57-207.14-162.68-273.83
c-89.08-66.69-198.63-94.61-308.57-78.94c-74.63,10.73-144.68,41.39-202.82,88.71c-0.95,0.92-1.96,1.8-3,2.61
c-25.23,20.4-37.51,51.87-32.85,84.16c3.49,24.38,16.25,45.91,35.91,60.62c19.64,14.75,43.79,20.93,68.1,17.4
c24.4-3.53,45.93-16.27,60.64-35.92c14.71-19.66,20.87-43.9,17.36-68.25c-4.01-27.91,13.78-55.79,41.25-62.14
c9-2.08,18.05-3.78,27.33-5.08c88.06-12.49,175.64,9.81,246.96,63.2c71.33,53.39,117.6,131.23,130.25,219.24
c26.04,181.13-99.97,350.3-280.93,377.12l-7.13,0.81c-0.9,0.18-4.08,0.56-7.66,0.74
C3115.77,1682.53,2881.71,1739.63,2835.9,1989.54z"/>
</g>
</g>
<g>
<g>
<path class="st0" d="M655.09,1795.55l22.65,2.55c156.12,18.82,251.96,53.58,304.27,114.34c-26.31,22.17-44.97,53.74-50.23,90.58
c-2.23,16.11-1.91,32.05,0.96,47.04c0,0,0,0,0,0.16c11,60.28,59.32,109.08,122.95,118.33c80.05,11.48,154.05-43.85,165.69-123.91
c2.87-21.05,1.44-41.46-4.15-60.6h0.16c-28.39-163.3-127.26-254.04-236.97-305.86h-0.16c-103.81-49.12-217.36-63.31-290.08-71.28
c-1.59,0-3.03-0.32-4.31-0.48l-4.78-0.48c-151.66-22.49-257.07-163.93-235.22-315.75c21.85-152.45,163.62-258.5,315.91-236.49
c7.66,1.12,15.31,2.39,22.8,4.15l-0.32,1.6c-0.48,3.51-0.64,6.86-0.96,10.36c0,0,0,0,0,0.16c0,0,0,0.16,0,0.32
c-1.28,18.66,0.8,36.68,6.22,53.74c16.27,51.99,60.92,92.65,118.65,100.94c79.89,11.48,153.89-43.85,165.37-123.91
c7.65-52.78-13.87-102.86-52.31-133.96v-0.16c-18.02-14.99-37.16-28.55-57.25-40.51l-0.16-0.16
c-53.26-31.89-112.59-53.1-174.78-62.03c-256.91-37-495.79,141.77-532.63,398.67C219.42,1519.67,398.18,1758.55,655.09,1795.55z"
/>
</g>
<g class="st1">
<path class="st2" d="M586.2,1573.57c-97.91-54.7-157.24-165.85-140.33-283.38c19.46-135.23,133.32-234.1,265.2-239.05
c0-6.54,0.48-13.08,1.44-19.61l0.32-1.59c-7.49-1.75-15.15-3.03-22.8-4.15c-152.29-22.01-294.06,84.04-315.91,236.49
C353.37,1406.28,447.14,1540.88,586.2,1573.57z"/>
</g>
<g class="st3">
<path class="st4" d="M931.77,2003.02c-10.21,71.28,32.69,137.78,98.55,159.63c-27.11-30.94-41.14-73.04-34.76-117.05
c1.86-13.01,5.39-25.37,10.34-36.89c18.1-42.11,2.68-91.81-38.52-111.89c-0.33-0.16-0.66-0.32-1-0.48
c5.58,5.1,10.84,10.52,15.63,16.11C955.69,1934.61,937.03,1966.18,931.77,2003.02z"/>
</g>
<g class="st1">
<path class="st2" d="M783.3,1069.8c0,0,2.39,22.65,6.22,54.22c16.27,51.99,60.92,92.65,118.65,100.94
c79.89,11.48,153.89-43.85,165.37-123.91c7.65-52.78-13.87-102.86-52.31-133.96v-0.16c-18.02-14.99-37.16-28.55-57.25-40.51
C1068.75,1058.64,888.23,1202,783.3,1069.8z"/>
</g>
<g class="st1">
<path class="st2" d="M932.73,2050.06c0,0,0,0,0,0.16c11,60.28,59.32,109.08,122.95,118.33
c80.05,11.48,154.05-43.85,165.69-123.91c2.87-21.05,1.44-41.46-4.15-60.6h0.16c-28.39-163.3-127.26-254.04-236.97-305.86h-0.16
C1145.62,1837.65,1112.93,2192.63,932.73,2050.06z"/>
</g>
<g class="st3">
<path class="st4" d="M494.34,1741.49c-127.1-100.63-198.86-264.24-174.14-435.99c36.84-256.91,275.72-435.67,532.63-398.83
c56.61,8.29,110.83,26.47,160.27,53.74c-64.58-51.19-141.93-84.36-224.05-96.16c-256.91-37-495.79,141.77-532.63,398.67
C227.71,1461.62,328.34,1649.47,494.34,1741.49z"/>
</g>
<g>
<path class="st2" d="M1076.67,2224.31c-9.46,0-19.02-0.67-28.65-2.08c-109.39-15.74-185.6-117.54-169.87-226.94
c4.01-27.74,13.67-53.99,28.18-77.28c-48.06-31.48-124.44-52.79-235.07-66.06l-22.48-2.61
c-139.97-20.11-262.56-92.91-346.61-205.2c-84.04-112.29-119.36-250.4-99.44-388.98c19.92-138.54,92.74-261.13,205.02-345.18
c112.29-84.02,250.51-119.31,388.96-99.41c95.45,13.69,185.03,53.32,259.05,114.58c0.94,0.74,1.83,1.55,2.72,2.4
c52.28,44.11,78.59,113.17,68.79,181.24c-7.62,53-35.41,99.86-78.23,131.94c-42.84,32.08-95.63,45.59-148.56,37.9
c-53.02-7.62-99.88-35.39-131.94-78.23c-21.23-28.34-34.28-61.01-38.5-95.28c-50.97-1.98-101.06,13.66-142.69,44.82
c-48.15,36.03-79.36,88.57-87.88,147.93c-17.59,122.2,67.43,236.36,189.53,254.46l2.4,0.18c1.16,0.07,3.58,0.39,4.75,0.53
c139.62,15.24,510.33,55.79,574.57,420.8c6.63,25.58,8.06,51.98,4.25,78.51C1260.59,2152.14,1174.65,2224.31,1076.67,2224.31z
M721.35,913.55c-89.22,0-175.77,28.69-248.64,83.24c-89.1,66.69-146.88,163.95-162.68,273.83
c-15.81,109.89,12.23,219.45,78.92,308.56c66.69,89.1,163.95,146.87,273.81,162.68l21.23,2.43
c173.54,20.82,278.1,61.79,339.17,132.86c9.44,10.97,14.1,25.3,12.92,39.73c-1.18,14.43-8.1,27.81-19.2,37.12
c-17.06,14.29-28.23,34.44-31.42,56.74c-7.22,50.21,27.77,96.97,78,104.2c50.18,7.23,96.97-27.81,104.19-78.02
c1.87-12.99,1.04-25.76-2.47-38.04c-0.88-3.11-1.48-6.25-1.8-9.42c-45.87-249.84-279.9-306.93-479.03-328.67
c0.07,0-3.25-0.25-6.44-0.74l-2.47-0.21c-183.32-27.14-309.33-196.31-283.29-377.44c12.65-88.01,58.91-165.85,130.25-219.24
c71.33-53.43,159.11-75.94,247.07-63.17c9.17,1.27,18.24,3,27.24,5.05c27.22,6.32,45.2,32.29,41.52,59.99
c-3.79,26.5,2.36,50.74,17.08,70.4c14.72,19.66,36.24,32.39,60.61,35.92c24.31,3.49,48.52-2.65,68.14-17.4
c19.66-14.71,32.41-36.24,35.9-60.62c4.66-32.29-7.62-63.77-32.85-84.16c-1.04-0.85-2.05-1.73-3.02-2.61
c-58.15-47.32-128.2-77.99-202.8-88.71C761.26,914.99,741.23,913.55,721.35,913.55z"/>
</g>
</g>
<g>
<g>
<path class="st0" d="M3116.19,757.4H922.47c-8.53,0-15.45-6.92-15.45-15.45V549.59c0-8.53,6.92-15.45,15.45-15.45h2193.71
c8.53,0,15.45,6.92,15.45,15.45v192.36C3131.63,750.49,3124.72,757.4,3116.19,757.4z"/>
</g>
<g class="st3">
<rect x="1667.17" y="552.75" class="st4" width="571.43" height="204.65"/>
</g>
<g class="st3">
<rect x="2309.05" y="552.75" class="st4" width="107.62" height="204.65"/>
</g>
<g class="st1">
<path class="st2" d="M1263.12,757.4h-244.47c-61.71,0-111.63-49.91-111.63-111.63c0-30.94,12.44-58.69,32.69-78.94
c20.25-20.25,48-32.69,78.94-32.69h244.47c-30.78,0-58.68,12.44-78.94,32.69c-20.09,20.25-32.69,48-32.69,78.94
C1151.5,707.49,1201.57,757.4,1263.12,757.4z"/>
</g>
<g class="st3">
<path class="st4" d="M3131.63,645.77c0,30.94-12.44,58.68-32.69,78.94c-20.25,20.25-48,32.69-78.94,32.69h-138.26
c30.78,0,58.84-12.44,78.94-32.69c20.25-20.25,32.69-48,32.69-78.94c0-61.71-49.91-111.63-111.63-111.63H3020
C3081.72,534.14,3131.63,584.06,3131.63,645.77z"/>
</g>
<g>
<path class="st2" d="M3020,811.6H1018.66c-91.45,0-165.83-74.39-165.83-165.82c0-91.47,74.39-165.85,165.83-165.85H3020
c91.45,0,165.83,74.39,165.83,165.85C3185.83,737.21,3111.45,811.6,3020,811.6z M1018.66,588.34
c-31.67,0-57.43,25.76-57.43,57.45c0,31.65,25.76,57.41,57.43,57.41H3020c31.67,0,57.43-25.76,57.43-57.41
c0-31.69-25.76-57.45-57.43-57.45H1018.66z"/>
</g>
<g>
<path class="st0" d="M2993.37,757.4l-14.03,111.63l-112.9,893.19c-55.02,435.83-425.63,762.58-864.96,762.58
c-442.21,0-814.41-331.06-865.92-770.24l-103.81-885.54l-13.08-111.63H2993.37z"/>
</g>
<g class="st1">
<path class="st2" d="M2979.34,869.03H1654.37c-201.31,0-357.53,175.65-334.04,375.58l47.89,407.57
c51.35,439.18,420.36,806.23,862.41,806.23c79.89,0,160.91-46.83,234.74-67.24c-134.91,85-294.38,133.63-463.9,133.63
c-442.21,0-814.41-331.06-865.92-770.24l-103.81-885.54l-13.08-111.63h1974.71L2979.34,869.03z"/>
</g>
<g class="st3">
<path class="st4" d="M2993.37,757.4l-126.94,1004.82c-55.02,435.83-425.63,762.58-864.96,762.58c-23.12,0-46.09-0.96-68.73-2.71
c408.4-32.37,743.45-347.17,795.6-759.87L2855.27,757.4H2993.37z"/>
</g>
<g>
<path class="st2" d="M2001.53,2579.05c-469.63,0-865.02-351.71-919.74-818.14L957.74,703.2H3054.9l-134.62,1065.86
C2861.95,2230.83,2466.97,2579.05,2001.53,2579.05z M1079.59,811.6l109.87,936.68c48.31,411.81,397.43,722.37,812.07,722.37
c410.96,0,759.69-307.46,811.19-715.14l119.24-943.91H1079.59z"/>
</g>
<g class="st5">
<path class="st4" d="M2519.26,1627.89c65.31,15.65,96.86,117.59,70.47,227.68c-26.39,110.1-100.72,186.66-166.02,171
c-65.31-15.65-50.33-106.44-23.95-216.53C2426.15,1699.95,2453.96,1612.24,2519.26,1627.89z"/>
</g>
<g class="st5">
<path class="st4" d="M2329.38,2234.75c-36.91,27.85-89.41,20.5-117.26-16.41c-27.85-36.91-14.98-82.09,21.93-109.94
s83.89-27.82,111.74,9.09C2373.64,2154.41,2366.29,2206.91,2329.38,2234.75z"/>
</g>
</g>
</g>
</svg>
