<?xml version="1.0" encoding="utf-8"?>
<!-- Generator: Adobe Illustrator 23.0.3, SVG Export Plug-In . SVG Version: 6.00 Build 0)  -->
<svg version="1.1" xmlns="http://www.w3.org/2000/svg" xmlns:xlink="http://www.w3.org/1999/xlink" x="0px" y="0px"
	 viewBox="0 0 500 391.3" style="enable-background:new 0 0 500 391.3;" xml:space="preserve">
<style type="text/css">
	.st0{display:none;}
	.st1{display:inline;fill:#FFFFFF;}
	.st2{clip-path:url(#SVGID_2_);}
	.st3{opacity:0.05;}
	.st4{fill:#04E0FF;}
	.st5{fill:#F289FF;}
	.st6{fill:#FFAE3A;}
	.st7{fill:#3B3B3B;}
	.st8{font-family:'Montserrat-BlackItalic';}
	.st9{font-size:89.9062px;}
	.st10{fill:#FFFFFF;}
</style>
<g id="BACKGROUND" class="st0">
	<rect y="0" class="st1" width="500" height="500"/>
</g>
<g id="OBJECTS">
	<g>
		<defs>
			<rect id="SVGID_1_" y="0" width="500" height="391.3"/>
		</defs>
		<clipPath id="SVGID_2_">
			<use xlink:href="#SVGID_1_"  style="overflow:visible;"/>
		</clipPath>
		<g class="st2">
			<g class="st3">
				<g>
					<g>
						<g>
							<g>
								<rect x="-417.95" y="-1.31" width="419.89" height="2.35"/>
								<rect x="-351.09" y="16.27" width="419.89" height="2.35"/>
								<rect x="-141.14" y="7.45" width="109.65" height="6.67"/>
								<rect x="-312.31" y="5.09" width="24.07" height="2.35"/>
								<rect x="-417.95" y="27.16" width="24.07" height="2.35"/>
								<rect x="-363.12" y="-18.45" width="24.07" height="2.35"/>
								<rect x="-252.8" y="-11.38" width="44.8" height="4.38"/>
								<rect x="-171.9" y="-11.38" width="105.64" height="6.28"/>
								<rect x="-171.9" y="2.61" width="347.68" height="1.05"/>
								<rect x="-252.8" y="7.45" width="44.8" height="9.94"/>
								<rect x="-80.97" y="17.38" width="49.48" height="4.84"/>
								<rect x="-230.4" y="20.78" width="89.26" height="8.73"/>
								<rect x="-327.69" y="-8.25" width="39.45" height="3.86"/>
								<rect x="-482.14" y="10.49" width="39.45" height="3.86"/>
								<rect x="-134.19" y="-21.06" width="135.87" height="7.58"/>
							</g>
							<g>
								<rect x="-297.93" y="60.19" width="419.89" height="2.35"/>
								<rect x="-364.79" y="42.61" width="419.89" height="2.35"/>
								<rect x="-264.5" y="47.12" width="109.65" height="6.67"/>
								<rect x="-7.75" y="53.79" width="24.07" height="2.35"/>
								<rect x="97.89" y="31.72" width="24.07" height="2.35"/>
								<rect x="43.06" y="77.32" width="24.07" height="2.35"/>
								<rect x="-87.99" y="68.24" width="44.8" height="4.38"/>
								<rect x="-229.73" y="66.34" width="105.64" height="6.28"/>
								<rect x="-471.77" y="57.58" width="347.68" height="1.05"/>
								<rect x="-87.99" y="43.85" width="44.8" height="9.94"/>
								<rect x="-264.5" y="39.01" width="49.48" height="4.84"/>
								<rect x="-154.85" y="31.72" width="89.26" height="8.73"/>
								<rect x="-7.75" y="65.62" width="39.45" height="3.86"/>
								<rect x="146.7" y="46.89" width="39.45" height="3.86"/>
								<rect x="-297.67" y="74.71" width="135.87" height="7.58"/>
							</g>
							<g>
								<rect x="-380.17" y="104.25" width="419.89" height="2.35"/>
								<rect x="-313.31" y="121.83" width="419.89" height="2.35"/>
								<rect x="-103.36" y="113.01" width="109.65" height="6.67"/>
								<rect x="-274.53" y="110.65" width="24.07" height="2.35"/>
								<rect x="-380.17" y="132.72" width="24.07" height="2.35"/>
								<rect x="-325.35" y="87.12" width="24.07" height="2.35"/>
								<rect x="-215.02" y="94.18" width="44.8" height="4.38"/>
								<rect x="-134.12" y="94.18" width="105.64" height="6.28"/>
								<rect x="-134.12" y="108.17" width="347.68" height="1.05"/>
								<rect x="-215.02" y="113.01" width="44.8" height="9.94"/>
								<rect x="-43.19" y="122.95" width="49.48" height="4.84"/>
								<rect x="-192.62" y="126.35" width="89.26" height="8.73"/>
								<rect x="-289.91" y="97.32" width="39.45" height="3.86"/>
								<rect x="-444.36" y="116.05" width="39.45" height="3.86"/>
								<rect x="-96.41" y="84.5" width="135.87" height="7.58"/>
							</g>
							<g>
								<rect x="-260.16" y="165.76" width="419.89" height="2.35"/>
								<rect x="-327.02" y="148.17" width="419.89" height="2.35"/>
								<rect x="-226.72" y="152.68" width="109.65" height="6.67"/>
								<rect x="30.02" y="159.35" width="24.07" height="2.35"/>
								<rect x="135.67" y="137.28" width="24.07" height="2.35"/>
								<rect x="80.84" y="182.89" width="24.07" height="2.35"/>
								<rect x="-50.21" y="173.8" width="44.8" height="4.38"/>
								<rect x="-191.96" y="171.9" width="105.64" height="6.28"/>
								<rect x="-434" y="163.14" width="347.68" height="1.05"/>
								<rect x="-50.21" y="149.41" width="44.8" height="9.94"/>
								<rect x="-226.72" y="144.57" width="49.48" height="4.84"/>
								<rect x="-117.07" y="137.28" width="89.26" height="8.73"/>
								<rect x="30.02" y="171.18" width="39.45" height="3.86"/>
								<rect x="184.48" y="152.45" width="39.45" height="3.86"/>
								<rect x="-259.89" y="180.27" width="135.87" height="7.58"/>
							</g>
						</g>
						<g>
							<g>
								<rect x="-417.95" y="380.27" width="419.89" height="2.35"/>
								<rect x="-351.09" y="362.68" width="419.89" height="2.35"/>
								<rect x="-141.14" y="367.2" width="109.65" height="6.67"/>
								<rect x="-312.31" y="373.87" width="24.07" height="2.35"/>
								<rect x="-417.95" y="351.8" width="24.07" height="2.35"/>
								<rect x="-363.12" y="397.4" width="24.07" height="2.35"/>
								<rect x="-252.8" y="388.31" width="44.8" height="4.38"/>
								<rect x="-171.9" y="386.42" width="105.64" height="6.28"/>
								<rect x="-171.9" y="377.66" width="347.68" height="1.05"/>
								<rect x="-252.8" y="363.93" width="44.8" height="9.94"/>
								<rect x="-80.97" y="359.09" width="49.48" height="4.84"/>
								<rect x="-230.4" y="351.8" width="89.26" height="8.73"/>
								<rect x="-327.69" y="385.7" width="39.45" height="3.86"/>
								<rect x="-482.14" y="366.97" width="39.45" height="3.86"/>
								<rect x="-134.19" y="394.79" width="135.87" height="7.58"/>
							</g>
							<g>
								<rect x="-297.93" y="318.76" width="419.89" height="2.35"/>
								<rect x="-364.79" y="336.35" width="419.89" height="2.35"/>
								<rect x="-264.5" y="327.52" width="109.65" height="6.67"/>
								<rect x="-7.75" y="325.17" width="24.07" height="2.35"/>
								<rect x="97.89" y="347.24" width="24.07" height="2.35"/>
								<rect x="43.06" y="301.63" width="24.07" height="2.35"/>
								<rect x="-87.99" y="308.69" width="44.8" height="4.38"/>
								<rect x="-229.73" y="308.69" width="105.64" height="6.28"/>
								<rect x="-471.77" y="322.69" width="347.68" height="1.05"/>
								<rect x="-87.99" y="327.52" width="44.8" height="9.94"/>
								<rect x="-264.5" y="337.46" width="49.48" height="4.84"/>
								<rect x="-154.85" y="340.86" width="89.26" height="8.73"/>
								<rect x="-7.75" y="311.83" width="39.45" height="3.86"/>
								<rect x="146.7" y="330.56" width="39.45" height="3.86"/>
								<rect x="-297.67" y="299.02" width="135.87" height="7.58"/>
							</g>
							<g>
								<rect x="-380.17" y="274.71" width="419.89" height="2.35"/>
								<rect x="-313.31" y="257.12" width="419.89" height="2.35"/>
								<rect x="-103.36" y="261.63" width="109.65" height="6.67"/>
								<rect x="-274.53" y="268.3" width="24.07" height="2.35"/>
								<rect x="-380.17" y="246.24" width="24.07" height="2.35"/>
								<rect x="-325.35" y="291.84" width="24.07" height="2.35"/>
								<rect x="-215.02" y="282.75" width="44.8" height="4.38"/>
								<rect x="-134.12" y="280.86" width="105.64" height="6.28"/>
								<rect x="-134.12" y="272.1" width="347.68" height="1.05"/>
								<rect x="-215.02" y="258.37" width="44.8" height="9.94"/>
								<rect x="-43.19" y="253.53" width="49.48" height="4.84"/>
								<rect x="-192.62" y="246.24" width="89.26" height="8.73"/>
								<rect x="-289.91" y="280.14" width="39.45" height="3.86"/>
								<rect x="-444.36" y="261.41" width="39.45" height="3.86"/>
								<rect x="-96.41" y="289.23" width="135.87" height="7.58"/>
							</g>
							<g>
								<rect x="-260.16" y="213.2" width="419.89" height="2.35"/>
								<rect x="-327.02" y="230.79" width="419.89" height="2.35"/>
								<rect x="-226.72" y="221.96" width="109.65" height="6.67"/>
								<rect x="30.02" y="219.61" width="24.07" height="2.35"/>
								<rect x="135.67" y="241.68" width="24.07" height="2.35"/>
								<rect x="80.84" y="196.07" width="24.07" height="2.35"/>
								<rect x="-50.21" y="203.13" width="44.8" height="4.38"/>
								<rect x="-191.96" y="203.13" width="105.64" height="6.28"/>
								<rect x="-434" y="217.12" width="347.68" height="1.05"/>
								<rect x="-50.21" y="221.96" width="44.8" height="9.94"/>
								<rect x="-226.72" y="231.9" width="49.48" height="4.84"/>
								<rect x="-117.07" y="235.3" width="89.26" height="8.73"/>
								<rect x="30.02" y="206.27" width="39.45" height="3.86"/>
								<rect x="184.48" y="225" width="39.45" height="3.86"/>
								<rect x="-259.89" y="193.46" width="135.87" height="7.58"/>
							</g>
						</g>
					</g>
				</g>
			</g>
			<g class="st3">
				<g>
					<g>
						<g>
							<g>
								<rect x="340.26" y="-1.31" width="419.89" height="2.35"/>
								<rect x="407.13" y="16.27" width="419.89" height="2.35"/>
								<rect x="617.07" y="7.45" width="109.65" height="6.67"/>
								<rect x="445.9" y="5.09" width="24.07" height="2.35"/>
								<rect x="340.26" y="27.16" width="24.07" height="2.35"/>
								<rect x="395.09" y="-18.45" width="24.07" height="2.35"/>
								<rect x="505.41" y="-11.38" width="44.8" height="4.38"/>
								<rect x="586.31" y="-11.38" width="105.64" height="6.28"/>
								<rect x="586.31" y="2.61" width="347.68" height="1.05"/>
								<rect x="505.41" y="7.45" width="44.8" height="9.94"/>
								<rect x="677.25" y="17.38" width="49.48" height="4.84"/>
								<rect x="527.81" y="20.78" width="89.26" height="8.73"/>
								<rect x="430.53" y="-8.25" width="39.45" height="3.86"/>
								<rect x="276.08" y="10.49" width="39.45" height="3.86"/>
								<rect x="624.02" y="-21.06" width="135.87" height="7.58"/>
							</g>
							<g>
								<rect x="460.28" y="60.19" width="419.89" height="2.35"/>
								<rect x="393.42" y="42.61" width="419.89" height="2.35"/>
								<rect x="493.71" y="47.12" width="109.65" height="6.67"/>
								<rect x="750.46" y="53.79" width="24.07" height="2.35"/>
								<rect x="856.1" y="31.72" width="24.07" height="2.35"/>
								<rect x="801.28" y="77.32" width="24.07" height="2.35"/>
								<rect x="670.23" y="68.24" width="44.8" height="4.38"/>
								<rect x="528.48" y="66.34" width="105.64" height="6.28"/>
								<rect x="286.44" y="57.58" width="347.68" height="1.05"/>
								<rect x="670.23" y="43.85" width="44.8" height="9.94"/>
								<rect x="493.71" y="39.01" width="49.48" height="4.84"/>
								<rect x="603.36" y="31.72" width="89.26" height="8.73"/>
								<rect x="750.46" y="65.62" width="39.45" height="3.86"/>
								<rect x="904.91" y="46.89" width="39.45" height="3.86"/>
								<rect x="460.55" y="74.71" width="135.87" height="7.58"/>
							</g>
							<g>
								<rect x="378.04" y="104.25" width="419.89" height="2.35"/>
								<rect x="444.9" y="121.83" width="419.89" height="2.35"/>
								<rect x="654.85" y="113.01" width="109.65" height="6.67"/>
								<rect x="483.68" y="110.65" width="24.07" height="2.35"/>
								<rect x="378.04" y="132.72" width="24.07" height="2.35"/>
								<rect x="432.87" y="87.12" width="24.07" height="2.35"/>
								<rect x="543.19" y="94.18" width="44.8" height="4.38"/>
								<rect x="624.09" y="94.18" width="105.64" height="6.28"/>
								<rect x="624.09" y="108.17" width="347.68" height="1.05"/>
								<rect x="543.19" y="113.01" width="44.8" height="9.94"/>
								<rect x="715.02" y="122.95" width="49.48" height="4.84"/>
								<rect x="565.59" y="126.35" width="89.26" height="8.73"/>
								<rect x="468.3" y="97.32" width="39.45" height="3.86"/>
								<rect x="313.85" y="116.05" width="39.45" height="3.86"/>
								<rect x="661.8" y="84.5" width="135.87" height="7.58"/>
							</g>
							<g>
								<rect x="498.06" y="165.76" width="419.89" height="2.35"/>
								<rect x="431.2" y="148.17" width="419.89" height="2.35"/>
								<rect x="531.49" y="152.68" width="109.65" height="6.67"/>
								<rect x="788.24" y="159.35" width="24.07" height="2.35"/>
								<rect x="893.88" y="137.28" width="24.07" height="2.35"/>
								<rect x="839.05" y="182.89" width="24.07" height="2.35"/>
								<rect x="708" y="173.8" width="44.8" height="4.38"/>
								<rect x="566.26" y="171.9" width="105.64" height="6.28"/>
								<rect x="324.22" y="163.14" width="347.68" height="1.05"/>
								<rect x="708" y="149.41" width="44.8" height="9.94"/>
								<rect x="531.49" y="144.57" width="49.48" height="4.84"/>
								<rect x="641.14" y="137.28" width="89.26" height="8.73"/>
								<rect x="788.24" y="171.18" width="39.45" height="3.86"/>
								<rect x="942.69" y="152.45" width="39.45" height="3.86"/>
								<rect x="498.32" y="180.27" width="135.87" height="7.58"/>
							</g>
						</g>
						<g>
							<g>
								<rect x="340.26" y="380.27" width="419.89" height="2.35"/>
								<rect x="407.13" y="362.68" width="419.89" height="2.35"/>
								<rect x="617.07" y="367.2" width="109.65" height="6.67"/>
								<rect x="445.9" y="373.87" width="24.07" height="2.35"/>
								<rect x="340.26" y="351.8" width="24.07" height="2.35"/>
								<rect x="395.09" y="397.4" width="24.07" height="2.35"/>
								<rect x="505.41" y="388.31" width="44.8" height="4.38"/>
								<rect x="586.31" y="386.42" width="105.64" height="6.28"/>
								<rect x="586.31" y="377.66" width="347.68" height="1.05"/>
								<rect x="505.41" y="363.93" width="44.8" height="9.94"/>
								<rect x="677.25" y="359.09" width="49.48" height="4.84"/>
								<rect x="527.81" y="351.8" width="89.26" height="8.73"/>
								<rect x="430.53" y="385.7" width="39.45" height="3.86"/>
								<rect x="276.08" y="366.97" width="39.45" height="3.86"/>
								<rect x="624.02" y="394.79" width="135.87" height="7.58"/>
							</g>
							<g>
								<rect x="460.28" y="318.76" width="419.89" height="2.35"/>
								<rect x="393.42" y="336.35" width="419.89" height="2.35"/>
								<rect x="493.71" y="327.52" width="109.65" height="6.67"/>
								<rect x="750.46" y="325.17" width="24.07" height="2.35"/>
								<rect x="856.1" y="347.24" width="24.07" height="2.35"/>
								<rect x="801.28" y="301.63" width="24.07" height="2.35"/>
								<rect x="670.23" y="308.69" width="44.8" height="4.38"/>
								<rect x="528.48" y="308.69" width="105.64" height="6.28"/>
								<rect x="286.44" y="322.69" width="347.68" height="1.05"/>
								<rect x="670.23" y="327.52" width="44.8" height="9.94"/>
								<rect x="493.71" y="337.46" width="49.48" height="4.84"/>
								<rect x="603.36" y="340.86" width="89.26" height="8.73"/>
								<rect x="750.46" y="311.83" width="39.45" height="3.86"/>
								<rect x="904.91" y="330.56" width="39.45" height="3.86"/>
								<rect x="460.55" y="299.02" width="135.87" height="7.58"/>
							</g>
							<g>
								<rect x="378.04" y="274.71" width="419.89" height="2.35"/>
								<rect x="444.9" y="257.12" width="419.89" height="2.35"/>
								<rect x="654.85" y="261.63" width="109.65" height="6.67"/>
								<rect x="483.68" y="268.3" width="24.07" height="2.35"/>
								<rect x="378.04" y="246.24" width="24.07" height="2.35"/>
								<rect x="432.87" y="291.84" width="24.07" height="2.35"/>
								<rect x="543.19" y="282.75" width="44.8" height="4.38"/>
								<rect x="624.09" y="280.86" width="105.64" height="6.28"/>
								<rect x="624.09" y="272.1" width="347.68" height="1.05"/>
								<rect x="543.19" y="258.37" width="44.8" height="9.94"/>
								<rect x="715.02" y="253.53" width="49.48" height="4.84"/>
								<rect x="565.59" y="246.24" width="89.26" height="8.73"/>
								<rect x="468.3" y="280.14" width="39.45" height="3.86"/>
								<rect x="313.85" y="261.41" width="39.45" height="3.86"/>
								<rect x="661.8" y="289.23" width="135.87" height="7.58"/>
							</g>
							<g>
								<rect x="498.06" y="213.2" width="419.89" height="2.35"/>
								<rect x="431.2" y="230.79" width="419.89" height="2.35"/>
								<rect x="531.49" y="221.96" width="109.65" height="6.67"/>
								<rect x="788.24" y="219.61" width="24.07" height="2.35"/>
								<rect x="893.88" y="241.68" width="24.07" height="2.35"/>
								<rect x="839.05" y="196.07" width="24.07" height="2.35"/>
								<rect x="708" y="203.13" width="44.8" height="4.38"/>
								<rect x="566.26" y="203.13" width="105.64" height="6.28"/>
								<rect x="324.22" y="217.12" width="347.68" height="1.05"/>
								<rect x="708" y="221.96" width="44.8" height="9.94"/>
								<rect x="531.49" y="231.9" width="49.48" height="4.84"/>
								<rect x="641.14" y="235.3" width="89.26" height="8.73"/>
								<rect x="788.24" y="206.27" width="39.45" height="3.86"/>
								<rect x="942.69" y="225" width="39.45" height="3.86"/>
								<rect x="498.32" y="193.46" width="135.87" height="7.58"/>
							</g>
						</g>
					</g>
				</g>
			</g>
		</g>
	</g>
	<g>
		<g>
			<g>
				<g>
					<rect x="26.41" y="234.25" class="st4" width="183.41" height="1.68"/>
					<rect x="182.36" y="226.29" class="st4" width="10.51" height="1.68"/>
					<rect x="228.51" y="242.01" class="st4" width="10.51" height="1.68"/>
					<rect x="204.56" y="209.53" class="st4" width="10.51" height="1.68"/>
					<rect x="147.32" y="214.56" class="st4" width="19.57" height="3.12"/>
					<rect x="85.4" y="214.56" class="st4" width="46.14" height="4.47"/>
					<rect x="70.22" y="235.05" class="st4" width="21.61" height="3.45"/>
					<rect x="118.11" y="237.47" class="st4" width="38.99" height="6.22"/>
					<rect x="182.36" y="216.79" class="st4" width="17.23" height="2.75"/>
					<rect x="249.83" y="230.13" class="st4" width="17.23" height="2.75"/>
					<rect x="55.73" y="207.66" class="st4" width="59.35" height="5.4"/>
				</g>
			</g>
			<g>
				<g>
					<rect x="323.65" y="232.58" class="st4" width="104.17" height="1.68"/>
					<rect x="412.23" y="224.61" class="st4" width="5.97" height="1.68"/>
					<rect x="438.44" y="240.33" class="st4" width="5.97" height="1.68"/>
					<rect x="424.84" y="207.85" class="st4" width="5.97" height="1.68"/>
					<rect x="392.32" y="212.88" class="st4" width="11.11" height="3.12"/>
					<rect x="357.16" y="212.88" class="st4" width="26.21" height="4.47"/>
					<rect x="392.32" y="226.29" class="st4" width="11.11" height="7.08"/>
					<rect x="348.53" y="233.37" class="st4" width="12.27" height="3.45"/>
					<rect x="375.74" y="235.79" class="st4" width="22.14" height="6.22"/>
					<rect x="412.23" y="215.12" class="st4" width="9.79" height="2.75"/>
					<rect x="450.55" y="228.46" class="st4" width="9.79" height="2.75"/>
				</g>
			</g>
			<g>
				<g>
					<rect x="333.51" y="273.25" class="st4" width="54.41" height="1.68"/>
					<rect x="372.32" y="265.28" class="st4" width="5.97" height="1.68"/>
					<rect x="398.53" y="281" class="st4" width="5.97" height="1.68"/>
					<rect x="384.93" y="248.52" class="st4" width="5.97" height="1.68"/>
					<rect x="352.42" y="253.55" class="st4" width="11.11" height="3.12"/>
					<rect x="352.42" y="266.96" class="st4" width="11.11" height="7.08"/>
					<rect x="271.76" y="262.49" class="st4" width="22.14" height="6.22"/>
					<rect x="372.32" y="255.78" class="st4" width="9.79" height="2.75"/>
					<rect x="410.64" y="269.13" class="st4" width="9.79" height="2.75"/>
				</g>
			</g>
		</g>
		<g>
			<g>
				<g>
					
						<rect x="276.16" y="250.36" transform="matrix(-1 -1.224647e-16 1.224647e-16 -1 735.7281 502.3868)" class="st5" width="183.41" height="1.68"/>
					
						<rect x="293.1" y="258.32" transform="matrix(-1 -1.224647e-16 1.224647e-16 -1 596.7111 518.313)" class="st5" width="10.51" height="1.68"/>
					
						<rect x="246.95" y="242.6" transform="matrix(-1 -1.224647e-16 1.224647e-16 -1 504.4225 486.8798)" class="st5" width="10.51" height="1.68"/>
					
						<rect x="270.9" y="275.08" transform="matrix(-1 -1.224647e-16 1.224647e-16 -1 552.3191 551.8417)" class="st5" width="10.51" height="1.68"/>
					
						<rect x="319.09" y="268.61" transform="matrix(-1 -1.224647e-16 1.224647e-16 -1 657.7501 540.3395)" class="st5" width="19.57" height="3.12"/>
					
						<rect x="354.43" y="267.26" transform="matrix(-1 -1.224647e-16 1.224647e-16 -1 755.0035 538.9891)" class="st5" width="46.14" height="4.47"/>
					
						<rect x="394.15" y="247.79" transform="matrix(-1 -1.224647e-16 1.224647e-16 -1 809.9095 499.034)" class="st5" width="21.61" height="3.45"/>
					
						<rect x="328.88" y="242.6" transform="matrix(-1 -1.224647e-16 1.224647e-16 -1 696.7391 491.4202)" class="st5" width="38.99" height="6.22"/>
					
						<rect x="286.38" y="266.75" transform="matrix(-1 -1.224647e-16 1.224647e-16 -1 589.9939 536.2415)" class="st5" width="17.23" height="2.75"/>
					
						<rect x="218.92" y="253.41" transform="matrix(-1 -1.224647e-16 1.224647e-16 -1 455.0657 509.5583)" class="st5" width="17.23" height="2.75"/>
					
						<rect x="370.9" y="273.22" transform="matrix(-1 -1.224647e-16 1.224647e-16 -1 801.1479 551.8417)" class="st5" width="59.35" height="5.4"/>
				</g>
			</g>
			<g>
				<g>
					
						<rect x="58.15" y="252.03" transform="matrix(-1 -1.224647e-16 1.224647e-16 -1 220.478 505.7397)" class="st5" width="104.17" height="1.68"/>
					
						<rect x="67.78" y="259.99" transform="matrix(-1 -1.224647e-16 1.224647e-16 -1 141.5217 521.6658)" class="st5" width="5.97" height="1.68"/>
					
						<rect x="41.57" y="244.28" transform="matrix(-1 -1.224647e-16 1.224647e-16 -1 89.1053 490.2327)" class="st5" width="5.97" height="1.68"/>
					
						<rect x="55.17" y="276.76" transform="matrix(-1 -1.224647e-16 1.224647e-16 -1 116.3087 555.1946)" class="st5" width="5.97" height="1.68"/>
					
						<rect x="82.54" y="270.29" transform="matrix(-1 -1.224647e-16 1.224647e-16 -1 176.1895 543.6924)" class="st5" width="11.11" height="3.12"/>
					
						<rect x="102.61" y="268.94" transform="matrix(-1 -1.224647e-16 1.224647e-16 -1 231.4256 542.3419)" class="st5" width="26.21" height="4.47"/>
					
						<rect x="82.54" y="252.92" transform="matrix(-1 -1.224647e-16 1.224647e-16 -1 176.1895 512.9111)" class="st5" width="11.11" height="7.08"/>
					
						<rect x="125.17" y="249.47" transform="matrix(-1 -1.224647e-16 1.224647e-16 -1 262.6101 502.3868)" class="st5" width="12.27" height="3.45"/>
					
						<rect x="88.09" y="244.28" transform="matrix(-1 -1.224647e-16 1.224647e-16 -1 198.3337 494.773)" class="st5" width="22.14" height="6.22"/>
					
						<rect x="63.96" y="268.42" transform="matrix(-1 -1.224647e-16 1.224647e-16 -1 137.7066 539.5944)" class="st5" width="9.79" height="2.75"/>
					
						<rect x="25.64" y="255.08" transform="matrix(-1 -1.224647e-16 1.224647e-16 -1 61.0726 512.9111)" class="st5" width="9.79" height="2.75"/>
				</g>
			</g>
			<g>
				<g>
					
						<rect x="98.06" y="211.36" transform="matrix(-1 -1.224647e-16 1.224647e-16 -1 250.5294 424.4033)" class="st5" width="54.41" height="1.68"/>
					
						<rect x="107.68" y="219.33" transform="matrix(-1 -1.224647e-16 1.224647e-16 -1 221.3355 440.3294)" class="st5" width="5.97" height="1.68"/>
					
						<rect x="81.47" y="203.61" transform="matrix(-1 -1.224647e-16 1.224647e-16 -1 168.9192 408.8962)" class="st5" width="5.97" height="1.68"/>
					
						<rect x="95.08" y="236.09" transform="matrix(-1 -1.224647e-16 1.224647e-16 -1 196.1226 473.8581)" class="st5" width="5.97" height="1.68"/>
					
						<rect x="122.44" y="229.62" transform="matrix(-1 -1.224647e-16 1.224647e-16 -1 256.0032 462.3559)" class="st5" width="11.11" height="3.12"/>
					
						<rect x="122.44" y="212.25" transform="matrix(-1 -1.224647e-16 1.224647e-16 -1 256.0032 431.5747)" class="st5" width="11.11" height="7.08"/>
					
						<rect x="192.07" y="217.58" transform="matrix(-1 -1.224647e-16 1.224647e-16 -1 406.2928 441.3772)" class="st5" width="22.14" height="6.22"/>
					
						<rect x="103.87" y="227.76" transform="matrix(-1 -1.224647e-16 1.224647e-16 -1 217.5204 458.2579)" class="st5" width="9.79" height="2.75"/>
					
						<rect x="65.55" y="214.41" transform="matrix(-1 -1.224647e-16 1.224647e-16 -1 140.8864 431.5747)" class="st5" width="9.79" height="2.75"/>
				</g>
			</g>
		</g>
		<g>
			<g>
				<g>
					<rect x="30.75" y="258.78" class="st6" width="183.41" height="1.68"/>
					<rect x="186.71" y="250.82" class="st6" width="10.51" height="1.68"/>
					<rect x="232.85" y="266.53" class="st6" width="10.51" height="1.68"/>
					<rect x="208.91" y="234.05" class="st6" width="10.51" height="1.68"/>
					<rect x="151.66" y="239.08" class="st6" width="19.57" height="3.12"/>
					<rect x="89.75" y="239.08" class="st6" width="46.14" height="4.47"/>
					<rect x="74.56" y="259.57" class="st6" width="21.61" height="3.45"/>
					<rect x="122.46" y="261.99" class="st6" width="38.99" height="6.22"/>
					<rect x="186.71" y="241.32" class="st6" width="17.23" height="2.75"/>
					<rect x="254.17" y="254.66" class="st6" width="17.23" height="2.75"/>
					<rect x="60.08" y="232.19" class="st6" width="59.35" height="5.4"/>
				</g>
			</g>
			<g>
				<g>
					<rect x="292.37" y="220.29" class="st6" width="104.17" height="1.68"/>
					<rect x="380.95" y="212.33" class="st6" width="5.97" height="1.68"/>
					<rect x="407.15" y="228.04" class="st6" width="5.97" height="1.68"/>
					<rect x="393.55" y="195.56" class="st6" width="5.97" height="1.68"/>
					<rect x="361.04" y="200.59" class="st6" width="11.11" height="3.12"/>
					<rect x="325.88" y="200.59" class="st6" width="26.21" height="4.47"/>
					<rect x="361.04" y="214" class="st6" width="11.11" height="7.08"/>
					<rect x="317.25" y="221.08" class="st6" width="12.27" height="3.45"/>
					<rect x="344.45" y="223.5" class="st6" width="22.14" height="6.22"/>
					<rect x="380.95" y="202.83" class="st6" width="9.79" height="2.75"/>
					<rect x="419.26" y="216.17" class="st6" width="9.79" height="2.75"/>
				</g>
			</g>
			<g>
				<g>
					<rect x="302.22" y="260.96" class="st6" width="54.41" height="1.68"/>
					<rect x="341.04" y="252.99" class="st6" width="5.97" height="1.68"/>
					<rect x="367.25" y="268.71" class="st6" width="5.97" height="1.68"/>
					<rect x="353.64" y="236.23" class="st6" width="5.97" height="1.68"/>
					<rect x="321.13" y="241.26" class="st6" width="11.11" height="3.12"/>
					<rect x="321.13" y="254.67" class="st6" width="11.11" height="7.08"/>
					<rect x="240.47" y="250.2" class="st6" width="22.14" height="6.22"/>
					<rect x="341.04" y="243.49" class="st6" width="9.79" height="2.75"/>
					<rect x="379.36" y="256.84" class="st6" width="9.79" height="2.75"/>
				</g>
			</g>
		</g>
		<g>
			<g>
				<g>
					
						<rect x="273" y="155.79" transform="matrix(-1 -1.224647e-16 1.224647e-16 -1 729.4148 313.253)" class="st4" width="183.41" height="1.68"/>
					
						<rect x="289.94" y="163.75" transform="matrix(-1 -1.224647e-16 1.224647e-16 -1 590.3977 329.1792)" class="st4" width="10.51" height="1.68"/>
					
						<rect x="243.8" y="148.03" transform="matrix(-1 -1.224647e-16 1.224647e-16 -1 498.1091 297.746)" class="st4" width="10.51" height="1.68"/>
					
						<rect x="267.75" y="180.52" transform="matrix(-1 -1.224647e-16 1.224647e-16 -1 546.0058 362.7079)" class="st4" width="10.51" height="1.68"/>
					
						<rect x="315.93" y="174.04" transform="matrix(-1 -1.224647e-16 1.224647e-16 -1 651.4367 351.2057)" class="st4" width="19.57" height="3.12"/>
					
						<rect x="351.27" y="172.69" transform="matrix(-1 -1.224647e-16 1.224647e-16 -1 748.6903 349.8553)" class="st4" width="46.14" height="4.47"/>
					
						<rect x="390.99" y="153.23" transform="matrix(-1 -1.224647e-16 1.224647e-16 -1 803.5961 309.9002)" class="st4" width="21.61" height="3.45"/>
					
						<rect x="325.72" y="148.03" transform="matrix(-1 -1.224647e-16 1.224647e-16 -1 690.4258 302.2864)" class="st4" width="38.99" height="6.22"/>
					
						<rect x="283.22" y="172.18" transform="matrix(-1 -1.224647e-16 1.224647e-16 -1 583.6805 347.1077)" class="st4" width="17.23" height="2.75"/>
					
						<rect x="215.76" y="158.84" transform="matrix(-1 -1.224647e-16 1.224647e-16 -1 448.7523 320.4245)" class="st4" width="17.23" height="2.75"/>
					
						<rect x="367.74" y="178.65" transform="matrix(-1 -1.224647e-16 1.224647e-16 -1 794.8345 362.7079)" class="st4" width="59.35" height="5.4"/>
				</g>
			</g>
			<g>
				<g>
					
						<rect x="55" y="157.46" transform="matrix(-1 -1.224647e-16 1.224647e-16 -1 214.1646 316.6059)" class="st4" width="104.17" height="1.68"/>
					
						<rect x="64.62" y="165.43" transform="matrix(-1 -1.224647e-16 1.224647e-16 -1 135.2083 332.532)" class="st4" width="5.97" height="1.68"/>
					
						<rect x="38.41" y="149.71" transform="matrix(-1 -1.224647e-16 1.224647e-16 -1 82.7921 301.0989)" class="st4" width="5.97" height="1.68"/>
					
						<rect x="52.01" y="182.19" transform="matrix(-1 -1.224647e-16 1.224647e-16 -1 109.9955 366.0608)" class="st4" width="5.97" height="1.68"/>
					
						<rect x="79.38" y="175.72" transform="matrix(-1 -1.224647e-16 1.224647e-16 -1 169.8761 354.5586)" class="st4" width="11.11" height="3.12"/>
					
						<rect x="99.45" y="174.37" transform="matrix(-1 -1.224647e-16 1.224647e-16 -1 225.1124 353.2081)" class="st4" width="26.21" height="4.47"/>
					
						<rect x="79.38" y="158.35" transform="matrix(-1 -1.224647e-16 1.224647e-16 -1 169.8761 323.7773)" class="st4" width="11.11" height="7.08"/>
					
						<rect x="122.01" y="154.9" transform="matrix(-1 -1.224647e-16 1.224647e-16 -1 256.2967 313.253)" class="st4" width="12.27" height="3.45"/>
					
						<rect x="84.94" y="149.71" transform="matrix(-1 -1.224647e-16 1.224647e-16 -1 192.0204 305.6392)" class="st4" width="22.14" height="6.22"/>
					
						<rect x="60.8" y="173.86" transform="matrix(-1 -1.224647e-16 1.224647e-16 -1 131.3932 350.4606)" class="st4" width="9.79" height="2.75"/>
					
						<rect x="22.49" y="160.51" transform="matrix(-1 -1.224647e-16 1.224647e-16 -1 54.7592 323.7773)" class="st4" width="9.79" height="2.75"/>
				</g>
			</g>
			<g>
				<g>
					
						<rect x="94.9" y="116.8" transform="matrix(-1 -1.224647e-16 1.224647e-16 -1 244.2161 235.2694)" class="st4" width="54.41" height="1.68"/>
					
						<rect x="104.53" y="124.76" transform="matrix(-1 -1.224647e-16 1.224647e-16 -1 215.0222 251.1956)" class="st4" width="5.97" height="1.68"/>
					
						<rect x="78.32" y="109.04" transform="matrix(-1 -1.224647e-16 1.224647e-16 -1 162.6059 219.7624)" class="st4" width="5.97" height="1.68"/>
					
						<rect x="91.92" y="141.52" transform="matrix(-1 -1.224647e-16 1.224647e-16 -1 189.8093 284.7243)" class="st4" width="5.97" height="1.68"/>
					
						<rect x="119.29" y="135.05" transform="matrix(-1 -1.224647e-16 1.224647e-16 -1 249.69 273.2221)" class="st4" width="11.11" height="3.12"/>
					
						<rect x="119.29" y="117.68" transform="matrix(-1 -1.224647e-16 1.224647e-16 -1 249.69 242.4409)" class="st4" width="11.11" height="7.08"/>
					
						<rect x="188.92" y="123.01" transform="matrix(-1 -1.224647e-16 1.224647e-16 -1 399.9795 252.2434)" class="st4" width="22.14" height="6.22"/>
					
						<rect x="100.71" y="133.19" transform="matrix(-1 -1.224647e-16 1.224647e-16 -1 211.207 269.1241)" class="st4" width="9.79" height="2.75"/>
					
						<rect x="62.39" y="119.85" transform="matrix(-1 -1.224647e-16 1.224647e-16 -1 134.573 242.4409)" class="st4" width="9.79" height="2.75"/>
				</g>
			</g>
		</g>
		<g>
			<g>
				<g>
					<rect x="23.25" y="139.69" class="st5" width="183.41" height="1.68"/>
					<rect x="179.21" y="131.72" class="st5" width="10.51" height="1.68"/>
					<rect x="225.35" y="147.44" class="st5" width="10.51" height="1.68"/>
					<rect x="201.4" y="114.96" class="st5" width="10.51" height="1.68"/>
					<rect x="144.16" y="119.99" class="st5" width="19.57" height="3.12"/>
					<rect x="82.25" y="119.99" class="st5" width="46.14" height="4.47"/>
					<rect x="67.06" y="140.48" class="st5" width="21.61" height="3.45"/>
					<rect x="114.96" y="142.9" class="st5" width="38.99" height="6.22"/>
					<rect x="179.21" y="122.22" class="st5" width="17.23" height="2.75"/>
					<rect x="246.67" y="135.57" class="st5" width="17.23" height="2.75"/>
					<rect x="52.57" y="113.1" class="st5" width="59.35" height="5.4"/>
				</g>
			</g>
			<g>
				<g>
					<rect x="320.5" y="138.01" class="st5" width="104.17" height="1.68"/>
					<rect x="409.07" y="130.05" class="st5" width="5.97" height="1.68"/>
					<rect x="435.28" y="145.76" class="st5" width="5.97" height="1.68"/>
					<rect x="421.68" y="113.28" class="st5" width="5.97" height="1.68"/>
					<rect x="389.17" y="118.31" class="st5" width="11.11" height="3.12"/>
					<rect x="354" y="118.31" class="st5" width="26.21" height="4.47"/>
					<rect x="389.17" y="131.72" class="st5" width="11.11" height="7.08"/>
					<rect x="345.38" y="138.8" class="st5" width="12.27" height="3.45"/>
					<rect x="372.58" y="141.22" class="st5" width="22.14" height="6.22"/>
					<rect x="409.07" y="120.55" class="st5" width="9.79" height="2.75"/>
					<rect x="447.39" y="133.89" class="st5" width="9.79" height="2.75"/>
				</g>
			</g>
			<g>
				<g>
					<rect x="330.35" y="178.68" class="st5" width="54.41" height="1.68"/>
					<rect x="369.17" y="170.72" class="st5" width="5.97" height="1.68"/>
					<rect x="395.37" y="186.43" class="st5" width="5.97" height="1.68"/>
					<rect x="381.77" y="153.95" class="st5" width="5.97" height="1.68"/>
					<rect x="349.26" y="158.98" class="st5" width="11.11" height="3.12"/>
					<rect x="349.26" y="172.39" class="st5" width="11.11" height="7.08"/>
					<rect x="268.6" y="167.92" class="st5" width="22.14" height="6.22"/>
					<rect x="369.17" y="161.22" class="st5" width="9.79" height="2.75"/>
					<rect x="407.48" y="174.56" class="st5" width="9.79" height="2.75"/>
				</g>
			</g>
		</g>
		<g>
			<g>
				<g>
					<rect x="115.09" y="112.68" class="st5" width="183.41" height="1.68"/>
					<rect x="271.05" y="104.72" class="st5" width="10.51" height="1.68"/>
					<rect x="317.19" y="120.44" class="st5" width="10.51" height="1.68"/>
					<rect x="293.24" y="87.96" class="st5" width="10.51" height="1.68"/>
					<rect x="236" y="92.98" class="st5" width="19.57" height="3.12"/>
					<rect x="174.09" y="92.98" class="st5" width="46.14" height="4.47"/>
					<rect x="158.9" y="113.47" class="st5" width="21.61" height="3.45"/>
					<rect x="206.8" y="115.9" class="st5" width="38.99" height="6.22"/>
					<rect x="271.05" y="95.22" class="st5" width="17.23" height="2.75"/>
					<rect x="338.51" y="108.56" class="st5" width="17.23" height="2.75"/>
					<rect x="144.41" y="86.09" class="st5" width="59.35" height="5.4"/>
				</g>
			</g>
			<g>
				<g>
					<rect x="213.61" y="85.08" class="st6" width="101.84" height="2.75"/>
					<rect x="300.21" y="72.04" class="st6" width="5.84" height="2.75"/>
					<rect x="325.83" y="97.79" class="st6" width="5.84" height="2.75"/>
					<rect x="312.53" y="44.58" class="st6" width="5.84" height="2.75"/>
					<rect x="280.75" y="52.82" class="st6" width="10.86" height="5.11"/>
					<rect x="246.37" y="52.82" class="st6" width="25.62" height="7.32"/>
					<rect x="280.75" y="74.79" class="st6" width="10.86" height="11.6"/>
					<rect x="237.94" y="86.38" class="st6" width="12" height="5.65"/>
					<rect x="264.53" y="90.35" class="st6" width="21.65" height="10.18"/>
					<rect x="300.21" y="56.48" class="st6" width="9.57" height="4.5"/>
					<rect x="337.66" y="78.33" class="st6" width="9.57" height="4.5"/>
				</g>
			</g>
			<g>
				<g>
					<rect x="227.23" y="111.05" class="st6" width="53.19" height="1.64"/>
					<rect x="265.18" y="103.26" class="st6" width="5.84" height="1.64"/>
					<rect x="290.8" y="118.63" class="st6" width="5.84" height="1.64"/>
					<rect x="277.5" y="86.88" class="st6" width="5.84" height="1.64"/>
					<rect x="245.72" y="91.79" class="st6" width="10.86" height="3.05"/>
					<rect x="245.72" y="104.9" class="st6" width="10.86" height="6.92"/>
					<rect x="166.87" y="100.53" class="st6" width="21.65" height="6.08"/>
					<rect x="265.18" y="93.98" class="st6" width="9.57" height="2.69"/>
					<rect x="302.64" y="107.02" class="st6" width="9.57" height="2.69"/>
				</g>
			</g>
			<g>
				<g>
					<rect x="255.96" y="121.63" class="st4" width="104.17" height="1.68"/>
					<rect x="344.54" y="113.66" class="st4" width="5.97" height="1.68"/>
					<rect x="370.75" y="129.38" class="st4" width="5.97" height="1.68"/>
					<rect x="357.15" y="96.9" class="st4" width="5.97" height="1.68"/>
					<rect x="324.63" y="101.93" class="st4" width="11.11" height="3.12"/>
					<rect x="289.47" y="101.93" class="st4" width="26.21" height="4.47"/>
					<rect x="324.63" y="115.34" class="st4" width="11.11" height="7.08"/>
					<rect x="280.84" y="122.42" class="st4" width="12.27" height="3.45"/>
					<rect x="308.05" y="124.84" class="st4" width="22.14" height="6.22"/>
					<rect x="344.54" y="104.17" class="st4" width="9.79" height="2.75"/>
					<rect x="382.86" y="117.51" class="st4" width="9.79" height="2.75"/>
				</g>
			</g>
			<g>
				<g>
					<rect x="265.82" y="162.3" class="st4" width="54.41" height="1.68"/>
					<rect x="304.63" y="154.33" class="st4" width="5.97" height="1.68"/>
					<rect x="330.84" y="170.05" class="st4" width="5.97" height="1.68"/>
					<rect x="317.24" y="137.57" class="st4" width="5.97" height="1.68"/>
					<rect x="284.73" y="142.6" class="st4" width="11.11" height="3.12"/>
					<rect x="284.73" y="156.01" class="st4" width="11.11" height="7.08"/>
					<rect x="204.07" y="151.54" class="st4" width="22.14" height="6.22"/>
					<rect x="304.63" y="144.83" class="st4" width="9.79" height="2.75"/>
					<rect x="342.95" y="158.17" class="st4" width="9.79" height="2.75"/>
				</g>
			</g>
		</g>
		<g>
			<g>
				<g>
					
						<rect x="268.66" y="131.26" transform="matrix(-1 -1.224647e-16 1.224647e-16 -1 720.7216 264.2026)" class="st6" width="183.41" height="1.68"/>
					
						<rect x="285.6" y="139.23" transform="matrix(-1 -1.224647e-16 1.224647e-16 -1 581.7046 280.1288)" class="st6" width="10.51" height="1.68"/>
					
						<rect x="239.45" y="123.51" transform="matrix(-1 -1.224647e-16 1.224647e-16 -1 489.416 248.6956)" class="st6" width="10.51" height="1.68"/>
					
						<rect x="263.4" y="155.99" transform="matrix(-1 -1.224647e-16 1.224647e-16 -1 537.3127 313.6575)" class="st6" width="10.51" height="1.68"/>
					
						<rect x="311.59" y="149.52" transform="matrix(-1 -1.224647e-16 1.224647e-16 -1 642.7435 302.1553)" class="st6" width="19.57" height="3.12"/>
					
						<rect x="346.93" y="148.17" transform="matrix(-1 -1.224647e-16 1.224647e-16 -1 739.9971 300.8049)" class="st6" width="46.14" height="4.47"/>
					
						<rect x="386.65" y="128.7" transform="matrix(-1 -1.224647e-16 1.224647e-16 -1 794.9029 260.8498)" class="st6" width="21.61" height="3.45"/>
					
						<rect x="321.37" y="123.51" transform="matrix(-1 -1.224647e-16 1.224647e-16 -1 681.7326 253.236)" class="st6" width="38.99" height="6.22"/>
					
						<rect x="278.88" y="147.65" transform="matrix(-1 -1.224647e-16 1.224647e-16 -1 574.9873 298.0573)" class="st6" width="17.23" height="2.75"/>
					
						<rect x="211.41" y="134.31" transform="matrix(-1 -1.224647e-16 1.224647e-16 -1 440.0591 271.3741)" class="st6" width="17.23" height="2.75"/>
					
						<rect x="363.4" y="154.13" transform="matrix(-1 -1.224647e-16 1.224647e-16 -1 786.1413 313.6575)" class="st6" width="59.35" height="5.4"/>
				</g>
			</g>
			<g>
				<g>
					
						<rect x="86.28" y="169.75" transform="matrix(-1 -1.224647e-16 1.224647e-16 -1 276.7322 341.185)" class="st6" width="104.17" height="1.68"/>
					
						<rect x="95.9" y="177.72" transform="matrix(-1 -1.224647e-16 1.224647e-16 -1 197.776 357.1112)" class="st6" width="5.97" height="1.68"/>
					
						<rect x="69.69" y="162" transform="matrix(-1 -1.224647e-16 1.224647e-16 -1 145.3597 325.678)" class="st6" width="5.97" height="1.68"/>
					
						<rect x="83.3" y="194.48" transform="matrix(-1 -1.224647e-16 1.224647e-16 -1 172.5631 390.6398)" class="st6" width="5.97" height="1.68"/>
					
						<rect x="110.67" y="188.01" transform="matrix(-1 -1.224647e-16 1.224647e-16 -1 232.4438 379.1376)" class="st6" width="11.11" height="3.12"/>
					
						<rect x="130.74" y="186.66" transform="matrix(-1 -1.224647e-16 1.224647e-16 -1 287.68 377.7872)" class="st6" width="26.21" height="4.47"/>
					
						<rect x="110.67" y="170.64" transform="matrix(-1 -1.224647e-16 1.224647e-16 -1 232.4438 348.3565)" class="st6" width="11.11" height="7.08"/>
					
						<rect x="153.29" y="167.19" transform="matrix(-1 -1.224647e-16 1.224647e-16 -1 318.8643 337.8322)" class="st6" width="12.27" height="3.45"/>
					
						<rect x="116.22" y="162" transform="matrix(-1 -1.224647e-16 1.224647e-16 -1 254.588 330.2184)" class="st6" width="22.14" height="6.22"/>
					
						<rect x="92.09" y="186.15" transform="matrix(-1 -1.224647e-16 1.224647e-16 -1 193.9608 375.0397)" class="st6" width="9.79" height="2.75"/>
					
						<rect x="53.77" y="172.8" transform="matrix(-1 -1.224647e-16 1.224647e-16 -1 117.3268 348.3565)" class="st6" width="9.79" height="2.75"/>
				</g>
			</g>
			<g>
				<g>
					
						<rect x="126.19" y="129.09" transform="matrix(-1 -1.224647e-16 1.224647e-16 -1 306.7838 259.8486)" class="st6" width="54.41" height="1.68"/>
					
						<rect x="135.81" y="137.05" transform="matrix(-1 -1.224647e-16 1.224647e-16 -1 277.5899 275.7747)" class="st6" width="5.97" height="1.68"/>
					
						<rect x="109.6" y="121.33" transform="matrix(-1 -1.224647e-16 1.224647e-16 -1 225.1735 244.3416)" class="st6" width="5.97" height="1.68"/>
					
						<rect x="123.2" y="153.81" transform="matrix(-1 -1.224647e-16 1.224647e-16 -1 252.3769 309.3034)" class="st6" width="5.97" height="1.68"/>
					
						<rect x="150.57" y="147.34" transform="matrix(-1 -1.224647e-16 1.224647e-16 -1 312.2576 297.8012)" class="st6" width="11.11" height="3.12"/>
					
						<rect x="150.57" y="129.97" transform="matrix(-1 -1.224647e-16 1.224647e-16 -1 312.2576 267.02)" class="st6" width="11.11" height="7.08"/>
					
						<rect x="220.2" y="135.3" transform="matrix(-1 -1.224647e-16 1.224647e-16 -1 462.5472 276.8224)" class="st6" width="22.14" height="6.22"/>
					
						<rect x="131.99" y="145.48" transform="matrix(-1 -1.224647e-16 1.224647e-16 -1 273.7748 293.7033)" class="st6" width="9.79" height="2.75"/>
					
						<rect x="93.68" y="132.14" transform="matrix(-1 -1.224647e-16 1.224647e-16 -1 197.1407 267.0199)" class="st6" width="9.79" height="2.75"/>
				</g>
			</g>
		</g>
		<text transform="matrix(1 0 0 1 105.5219 183.8378)"><tspan x="0" y="0" class="st7 st8 st9">game</tspan><tspan x="8.54" y="90" class="st7 st8 st9">over</tspan></text>
		<g>
			<g>
				
					<rect x="183.05" y="137.78" transform="matrix(-1 -1.224647e-16 1.224647e-16 -1 549.5104 277.233)" class="st10" width="183.41" height="1.68"/>
				
					<rect x="199.99" y="145.74" transform="matrix(-1 -1.224647e-16 1.224647e-16 -1 410.4935 293.1591)" class="st10" width="10.51" height="1.68"/>
				
					<rect x="153.85" y="130.02" transform="matrix(-1 -1.224647e-16 1.224647e-16 -1 318.2049 261.726)" class="st10" width="10.51" height="1.68"/>
				
					<rect x="177.79" y="162.51" transform="matrix(-1 -1.224647e-16 1.224647e-16 -1 366.1015 326.6878)" class="st10" width="10.51" height="1.68"/>
				
					<rect x="225.98" y="156.03" transform="matrix(-1 -1.224647e-16 1.224647e-16 -1 471.5324 315.1856)" class="st10" width="19.57" height="3.12"/>
				<rect x="254.6" y="154.68" class="st10" width="6.72" height="4.47"/>
				
					<rect x="225.98" y="138.66" transform="matrix(-1 -1.224647e-16 1.224647e-16 -1 471.5324 284.4044)" class="st10" width="19.57" height="7.08"/>
				
					<rect x="301.04" y="135.22" transform="matrix(-1 -1.224647e-16 1.224647e-16 -1 623.6917 273.8802)" class="st10" width="21.61" height="3.45"/>
				
					<rect x="235.77" y="130.02" transform="matrix(-1 -1.224647e-16 1.224647e-16 -1 510.5214 266.2663)" class="st10" width="38.99" height="6.22"/>
				
					<rect x="193.27" y="154.17" transform="matrix(-1 -1.224647e-16 1.224647e-16 -1 403.7763 311.0877)" class="st10" width="17.23" height="2.75"/>
				
					<rect x="125.81" y="140.83" transform="matrix(-1 -1.224647e-16 1.224647e-16 -1 268.8479 284.4044)" class="st10" width="17.23" height="2.75"/>
				
					<rect x="277.79" y="160.64" transform="matrix(-1 -1.224647e-16 1.224647e-16 -1 614.9302 326.6878)" class="st10" width="59.35" height="5.4"/>
			</g>
		</g>
		<g>
			<g>
				
					<rect x="253.79" y="254.84" transform="matrix(-1 -1.224647e-16 1.224647e-16 -1 690.9798 511.3658)" class="st10" width="183.41" height="1.68"/>
				
					<rect x="270.72" y="262.81" transform="matrix(-1 -1.224647e-16 1.224647e-16 -1 551.9629 527.292)" class="st10" width="10.51" height="1.68"/>
				
					<rect x="224.58" y="247.09" transform="matrix(-1 -1.224647e-16 1.224647e-16 -1 459.6743 495.8588)" class="st10" width="10.51" height="1.68"/>
				
					<rect x="248.53" y="279.57" transform="matrix(-1 -1.224647e-16 1.224647e-16 -1 507.5709 560.8206)" class="st10" width="10.51" height="1.68"/>
				
					<rect x="296.72" y="273.1" transform="matrix(-1 -1.224647e-16 1.224647e-16 -1 613.0019 549.3184)" class="st10" width="19.57" height="3.12"/>
				<rect x="325.34" y="271.75" class="st10" width="6.72" height="4.47"/>
				
					<rect x="296.72" y="255.73" transform="matrix(-1 -1.224647e-16 1.224647e-16 -1 613.0019 518.5373)" class="st10" width="19.57" height="7.08"/>
				
					<rect x="371.77" y="252.28" transform="matrix(-1 -1.224647e-16 1.224647e-16 -1 765.1611 508.013)" class="st10" width="21.61" height="3.45"/>
				
					<rect x="365.43" y="238.9" transform="matrix(-1 -1.224647e-16 1.224647e-16 -1 769.8576 484.016)" class="st10" width="38.99" height="6.22"/>
				
					<rect x="264.01" y="271.24" transform="matrix(-1 -1.224647e-16 1.224647e-16 -1 545.2457 545.2205)" class="st10" width="17.23" height="2.75"/>
				
					<rect x="196.54" y="257.89" transform="matrix(-1 -1.224647e-16 1.224647e-16 -1 410.3173 518.5373)" class="st10" width="17.23" height="2.75"/>
				
					<rect x="348.53" y="277.71" transform="matrix(-1 -1.224647e-16 1.224647e-16 -1 756.3996 560.8206)" class="st10" width="59.35" height="5.4"/>
			</g>
		</g>
		<g>
			<g>
				
					<rect x="315.29" y="117.18" transform="matrix(-1 -1.224647e-16 1.224647e-16 -1 641.1011 236.0378)" class="st10" width="10.51" height="1.68"/>
				
					<rect x="341.29" y="127.47" transform="matrix(-1 -1.224647e-16 1.224647e-16 -1 702.1401 258.0643)" class="st10" width="19.57" height="3.12"/>
				
					<rect x="376.62" y="126.12" transform="matrix(-1 -1.224647e-16 1.224647e-16 -1 799.3935 256.7139)" class="st10" width="46.14" height="4.47"/>
				
					<rect x="341.29" y="110.1" transform="matrix(-1 -1.224647e-16 1.224647e-16 -1 702.1401 227.2831)" class="st10" width="19.57" height="7.08"/>
				
					<rect x="416.34" y="106.66" transform="matrix(-1 -1.224647e-16 1.224647e-16 -1 854.2995 216.7588)" class="st10" width="21.61" height="3.45"/>
				
					<rect x="351.07" y="101.46" transform="matrix(-1 -1.224647e-16 1.224647e-16 -1 741.1291 209.145)" class="st10" width="38.99" height="6.22"/>
				
					<rect x="393.1" y="132.08" transform="matrix(-1 -1.224647e-16 1.224647e-16 -1 845.5379 269.5665)" class="st10" width="59.35" height="5.4"/>
			</g>
		</g>
		<g>
			<g>
				
					<rect x="69.4" y="184.15" transform="matrix(-1 -1.224647e-16 1.224647e-16 -1 149.3189 369.1279)" class="st10" width="10.51" height="0.83"/>
				
					<rect x="95.4" y="178.36" transform="matrix(-1 -1.224647e-16 1.224647e-16 -1 210.3579 358.2642)" class="st10" width="19.57" height="1.54"/>
				
					<rect x="130.73" y="178.36" transform="matrix(-1 -1.224647e-16 1.224647e-16 -1 307.6113 358.9303)" class="st10" width="46.14" height="2.2"/>
				
					<rect x="95.4" y="184.98" transform="matrix(-1 -1.224647e-16 1.224647e-16 -1 210.3579 373.4459)" class="st10" width="19.57" height="3.49"/>
				
					<rect x="170.45" y="188.47" transform="matrix(-1 -1.224647e-16 1.224647e-16 -1 362.5173 378.6366)" class="st10" width="21.61" height="1.7"/>
				
					<rect x="105.18" y="189.66" transform="matrix(-1 -1.224647e-16 1.224647e-16 -1 249.3468 382.3918)" class="st10" width="38.99" height="3.07"/>
				
					<rect x="147.2" y="174.96" transform="matrix(-1 -1.224647e-16 1.224647e-16 -1 353.7557 352.5911)" class="st10" width="59.35" height="2.66"/>
			</g>
		</g>
		<g>
			<g>
				
					<rect x="232.47" y="223.81" transform="matrix(-1 -1.224647e-16 1.224647e-16 -1 475.4451 448.4388)" class="st10" width="10.51" height="0.83"/>
				
					<rect x="258.46" y="218.02" transform="matrix(-1 -1.224647e-16 1.224647e-16 -1 536.4841 437.575)" class="st10" width="19.57" height="1.54"/>
				
					<rect x="293.8" y="218.02" transform="matrix(-1 -1.224647e-16 1.224647e-16 -1 633.7375 438.2411)" class="st10" width="46.14" height="2.2"/>
				
					<rect x="258.46" y="224.63" transform="matrix(-1 -1.224647e-16 1.224647e-16 -1 536.4841 452.7567)" class="st10" width="19.57" height="3.49"/>
				
					<rect x="333.52" y="228.12" transform="matrix(-1 -1.224647e-16 1.224647e-16 -1 688.6435 457.9474)" class="st10" width="21.61" height="1.7"/>
				
					<rect x="268.24" y="229.32" transform="matrix(-1 -1.224647e-16 1.224647e-16 -1 575.473 461.7026)" class="st10" width="38.99" height="3.07"/>
				
					<rect x="310.27" y="214.62" transform="matrix(-1 -1.224647e-16 1.224647e-16 -1 679.8819 431.902)" class="st10" width="59.35" height="2.66"/>
			</g>
		</g>
		<g>
			<g>
				
					<rect x="75.59" y="236.2" transform="matrix(-1 -1.224647e-16 1.224647e-16 -1 161.6861 474.0738)" class="st10" width="10.51" height="1.68"/>
				
					<rect x="101.58" y="246.49" transform="matrix(-1 -1.224647e-16 1.224647e-16 -1 222.725 496.1002)" class="st10" width="19.57" height="3.12"/>
				
					<rect x="181.26" y="245.14" transform="matrix(-1 -1.224647e-16 1.224647e-16 -1 398.4 494.7497)" class="st10" width="35.88" height="4.47"/>
				
					<rect x="101.58" y="229.12" transform="matrix(-1 -1.224647e-16 1.224647e-16 -1 222.725 465.3191)" class="st10" width="19.57" height="7.08"/>
				
					<rect x="176.64" y="225.67" transform="matrix(-1 -1.224647e-16 1.224647e-16 -1 374.8843 454.7948)" class="st10" width="21.61" height="3.45"/>
				
					<rect x="111.36" y="220.48" transform="matrix(-1 -1.224647e-16 1.224647e-16 -1 261.714 447.181)" class="st10" width="38.99" height="6.22"/>
				
					<rect x="170.32" y="252.66" transform="matrix(-1 -1.224647e-16 1.224647e-16 -1 399.9795 507.6025)" class="st10" width="59.35" height="2.29"/>
			</g>
		</g>
		<g>
			<g>
				
					<rect x="216.01" y="276.13" transform="matrix(-1 -1.224647e-16 1.224647e-16 -1 615.4351 553.9367)" class="st5" width="183.41" height="1.68"/>
				
					<rect x="232.95" y="284.09" transform="matrix(-1 -1.224647e-16 1.224647e-16 -1 476.4181 569.8628)" class="st5" width="10.51" height="1.68"/>
				
					<rect x="186.81" y="268.38" transform="matrix(-1 -1.224647e-16 1.224647e-16 -1 384.1295 538.4297)" class="st5" width="10.51" height="1.68"/>
				
					<rect x="210.76" y="300.86" transform="matrix(-1 -1.224647e-16 1.224647e-16 -1 432.0261 603.3916)" class="st5" width="10.51" height="1.68"/>
				
					<rect x="258.94" y="294.38" transform="matrix(-1 -1.224647e-16 1.224647e-16 -1 537.4571 591.8894)" class="st5" width="19.57" height="3.12"/>
				
					<rect x="294.28" y="293.03" transform="matrix(-1 -1.224647e-16 1.224647e-16 -1 634.7105 590.5389)" class="st5" width="46.14" height="4.47"/>
				
					<rect x="334" y="273.57" transform="matrix(-1 -1.224647e-16 1.224647e-16 -1 689.6165 550.5838)" class="st5" width="21.61" height="3.45"/>
				
					<rect x="268.73" y="268.38" transform="matrix(-1 -1.224647e-16 1.224647e-16 -1 576.446 542.97)" class="st5" width="38.99" height="6.22"/>
				
					<rect x="226.23" y="292.52" transform="matrix(-1 -1.224647e-16 1.224647e-16 -1 469.7009 587.7914)" class="st5" width="17.23" height="2.75"/>
				
					<rect x="158.77" y="279.18" transform="matrix(-1 -1.224647e-16 1.224647e-16 -1 334.7727 561.1081)" class="st5" width="17.23" height="2.75"/>
				
					<rect x="310.75" y="298.99" transform="matrix(-1 -1.224647e-16 1.224647e-16 -1 680.8549 603.3916)" class="st5" width="59.35" height="5.4"/>
			</g>
		</g>
		<g>
			<g>
				
					<rect x="193.93" y="286.41" transform="matrix(-1 -1.224647e-16 1.224647e-16 -1 489.6944 575.5036)" class="st4" width="101.84" height="2.69"/>
				
					<rect x="203.33" y="299.17" transform="matrix(-1 -1.224647e-16 1.224647e-16 -1 412.5071 601.0244)" class="st4" width="5.84" height="2.69"/>
				
					<rect x="177.71" y="273.98" transform="matrix(-1 -1.224647e-16 1.224647e-16 -1 361.2651 550.6544)" class="st4" width="5.84" height="2.69"/>
				
					<rect x="191.01" y="326.03" transform="matrix(-1 -1.224647e-16 1.224647e-16 -1 387.8591 654.7526)" class="st4" width="5.84" height="2.69"/>
				
					<rect x="217.77" y="315.66" transform="matrix(-1 -1.224647e-16 1.224647e-16 -1 446.3982 636.3209)" class="st4" width="10.86" height="5"/>
				
					<rect x="237.39" y="313.5" transform="matrix(-1 -1.224647e-16 1.224647e-16 -1 500.397 634.1568)" class="st4" width="25.62" height="7.16"/>
				
					<rect x="217.77" y="287.83" transform="matrix(-1 -1.224647e-16 1.224647e-16 -1 446.3982 586.9954)" class="st4" width="10.86" height="11.34"/>
				
					<rect x="259.44" y="282.3" transform="matrix(-1 -1.224647e-16 1.224647e-16 -1 530.8827 570.1308)" class="st4" width="12" height="5.52"/>
				
					<rect x="223.2" y="273.98" transform="matrix(-1 -1.224647e-16 1.224647e-16 -1 468.0463 557.9301)" class="st4" width="21.65" height="9.96"/>
				
					<rect x="199.61" y="312.68" transform="matrix(-1 -1.224647e-16 1.224647e-16 -1 408.7775 629.7541)" class="st4" width="9.57" height="4.4"/>
				
					<rect x="162.15" y="291.3" transform="matrix(-1 -1.224647e-16 1.224647e-16 -1 333.8604 586.9955)" class="st4" width="9.57" height="4.4"/>
			</g>
		</g>
		<g>
			<g>
				
					<rect x="154.38" y="267.18" transform="matrix(-1 -1.224647e-16 1.224647e-16 -1 412.9348 536.0462)" class="st6" width="104.17" height="1.68"/>
				
					<rect x="164" y="275.15" transform="matrix(-1 -1.224647e-16 1.224647e-16 -1 333.9786 551.9723)" class="st6" width="5.97" height="1.68"/>
				
					<rect x="137.8" y="259.43" transform="matrix(-1 -1.224647e-16 1.224647e-16 -1 281.5623 520.5392)" class="st6" width="5.97" height="1.68"/>
				
					<rect x="151.4" y="291.91" transform="matrix(-1 -1.224647e-16 1.224647e-16 -1 308.7657 585.501)" class="st6" width="5.97" height="1.68"/>
				
					<rect x="178.77" y="285.44" transform="matrix(-1 -1.224647e-16 1.224647e-16 -1 368.6464 573.9988)" class="st6" width="11.11" height="3.12"/>
				
					<rect x="198.84" y="284.09" transform="matrix(-1 -1.224647e-16 1.224647e-16 -1 423.8826 572.6483)" class="st6" width="26.21" height="4.47"/>
				
					<rect x="178.77" y="268.07" transform="matrix(-1 -1.224647e-16 1.224647e-16 -1 368.6464 543.2175)" class="st6" width="11.11" height="7.08"/>
				
					<rect x="221.4" y="264.62" transform="matrix(-1 -1.224647e-16 1.224647e-16 -1 455.0669 532.6932)" class="st6" width="12.27" height="3.45"/>
				
					<rect x="184.32" y="259.43" transform="matrix(-1 -1.224647e-16 1.224647e-16 -1 390.7906 525.0795)" class="st6" width="22.14" height="6.22"/>
				
					<rect x="160.19" y="283.58" transform="matrix(-1 -1.224647e-16 1.224647e-16 -1 330.1634 569.9009)" class="st6" width="9.79" height="2.75"/>
				
					<rect x="121.87" y="270.23" transform="matrix(-1 -1.224647e-16 1.224647e-16 -1 253.5294 543.2175)" class="st6" width="9.79" height="2.75"/>
			</g>
		</g>
	</g>
	<g>
		<g>
			<rect x="384.06" y="379.31" class="st5" width="7.71" height="2"/>
		</g>
		<g>
			<rect x="386.91" y="376.45" class="st5" width="2" height="7.71"/>
		</g>
	</g>
	<g>
		<g>
			<rect x="456.48" y="39.72" class="st5" width="7.71" height="2"/>
		</g>
		<g>
			<rect x="459.33" y="36.87" class="st5" width="2" height="7.71"/>
		</g>
	</g>
	<g>
		<g>
			<rect x="238.49" y="16.48" class="st5" width="7.71" height="2"/>
		</g>
		<g>
			<rect x="241.35" y="13.63" class="st5" width="2" height="7.71"/>
		</g>
	</g>
	<g>
		<g>
			<rect x="147.81" y="43.58" class="st4" width="7.71" height="2"/>
		</g>
		<g>
			<rect x="150.66" y="40.72" class="st4" width="2" height="7.71"/>
		</g>
	</g>
	<g>
		<g>
			
				<rect x="124.81" y="372.59" transform="matrix(0.7071 -0.7071 0.7071 0.7071 -229.34 199.2163)" class="st5" width="2" height="7.71"/>
		</g>
		<g>
			
				<rect x="121.95" y="375.45" transform="matrix(0.7071 -0.7071 0.7071 0.7071 -229.3354 199.207)" class="st5" width="7.71" height="2"/>
		</g>
	</g>
	<g>
		<g>
			
				<rect x="100.58" y="17.48" transform="matrix(0.7071 -0.7071 0.7071 0.7071 14.6637 78.0776)" class="st5" width="2" height="7.71"/>
		</g>
		<g>
			
				<rect x="97.72" y="20.34" transform="matrix(0.7071 -0.7071 0.7071 0.7071 14.6631 78.0766)" class="st5" width="7.71" height="2"/>
		</g>
	</g>
	<g>
		<path class="st4" d="M48.22,316.51h-7.67v-7.67h7.67V316.51z M42.55,314.51h3.67v-3.67h-3.67V314.51z"/>
	</g>
	<g>
		<path class="st6" d="M485.66,264.1h-7.67v-7.67h7.67V264.1z M479.99,262.1h3.67v-3.67h-3.67V262.1z"/>
	</g>
	<g>
		<path class="st4" d="M361.39,62.56h-7.67v-7.67h7.67V62.56z M355.72,60.56h3.67v-3.67h-3.67V60.56z"/>
	</g>
	<g>
		<path class="st4" d="M71.61,93.46h-7.67V85.8h7.67V93.46z M65.94,91.46h3.67V87.8h-3.67V91.46z"/>
	</g>
</g>
<g id="DESIGNED_BY_FREEPIK">
</g>
</svg>
